<svg xmlns="http://www.w3.org/2000/svg" width="300" height="60.162" viewBox="0 0 300 60.162">
  <g id="logo_text" data-name="logo/text" transform="translate(-19617 495)">
    <g id="Group_608" data-name="Group 608" transform="translate(19617.227 -495)">
      <g id="Group_607" data-name="Group 607" transform="translate(0 0)">
        <path id="Path_62" data-name="Path 62" d="M440.067,144.3a4.592,4.592,0,0,0,2.017-.412,2.414,2.414,0,0,0,1.034-2.286V123.017a2.406,2.406,0,0,0-.966-2.252,4.907,4.907,0,0,0-2.085-.446v-.974H450.8a14.5,14.5,0,0,1,5.152.787,5.4,5.4,0,0,1,3.864,5.4,4.8,4.8,0,0,1-1.568,3.776,7.274,7.274,0,0,1-3.4,1.771v.356a9.32,9.32,0,0,1,3.356,1.386,6.411,6.411,0,0,1,.118,10.484,11.6,11.6,0,0,1-7.084,1.977H440.067Zm12.914-14.484q1.1-1.161,1.1-4.122a8.489,8.489,0,0,0-.72-3.691,2.776,2.776,0,0,0-2.771-1.5,2.186,2.186,0,0,0-1.508.4,1.969,1.969,0,0,0-.424,1.452v8.619Q451.88,130.981,452.981,129.819Zm-4.051,13.4a1.655,1.655,0,0,0,1.627.824,3.842,3.842,0,0,0,3.449-1.48,7.548,7.548,0,0,0,.991-4.216q0-4.085-2.186-5.434a7.776,7.776,0,0,0-4.152-.769v9.594A3.368,3.368,0,0,0,448.931,143.217Z" transform="translate(-440.067 -117.882)" fill="#fff"/>
        <path id="Path_63" data-name="Path 63" d="M501.88,145.278V144.3a4.522,4.522,0,0,0,2.119-.45,2.434,2.434,0,0,0,.966-2.248V123.017a2.375,2.375,0,0,0-1-2.252,4.9,4.9,0,0,0-2.085-.446v-.974h20v7.739h-.847q-.661-3.71-2.245-5.078t-5.771-1.368a3.568,3.568,0,0,0-2.025.365,1.868,1.868,0,0,0-.432,1.452v8.882q2.966.038,4.017-1.19a9.712,9.712,0,0,0,1.61-4.488h.881v12.967h-.881a8.768,8.768,0,0,0-1.517-4.619q-1.144-1.339-4.11-1.34v9.294a2,2,0,0,0,.568,1.658,4.157,4.157,0,0,0,2.33.44,9.474,9.474,0,0,0,5.423-1.424q2.1-1.423,3.729-5.34h.966l-1.407,7.982Z" transform="translate(-477.219 -117.882)" fill="#fff"/>
        <path id="Path_64" data-name="Path 64" d="M565.863,144.3a4.633,4.633,0,0,0,2.034-.413,2.416,2.416,0,0,0,1.034-2.287V123.017a2.39,2.39,0,0,0-.983-2.252,4.905,4.905,0,0,0-2.085-.446v-.974H578v.974a5.047,5.047,0,0,0-2.822.652q-.7.578-.7,2.851v18.136a1.933,1.933,0,0,0,.6,1.688,4.549,4.549,0,0,0,2.347.412,8.786,8.786,0,0,0,5.262-1.527q2.127-1.527,3.669-5.949h1.017l-1.407,8.694h-20.1Z" transform="translate(-515.675 -117.882)" fill="#fff"/>
        <path id="Path_65" data-name="Path 65" d="M628.677,144.3a4.629,4.629,0,0,0,2.033-.413,2.416,2.416,0,0,0,1.034-2.287V123.017a2.39,2.39,0,0,0-.983-2.252,4.907,4.907,0,0,0-2.085-.446v-.974h12.135v.974a5.049,5.049,0,0,0-2.822.652q-.7.578-.7,2.851v18.136a1.933,1.933,0,0,0,.6,1.688,4.549,4.549,0,0,0,2.347.412,8.785,8.785,0,0,0,5.262-1.527q2.128-1.527,3.67-5.949h1.017l-1.406,8.694h-20.1Z" transform="translate(-553.429 -117.882)" fill="#fff"/>
        <path id="Path_66" data-name="Path 66" d="M691.32,145.278V144.3a4.521,4.521,0,0,0,2.119-.45,2.434,2.434,0,0,0,.966-2.248V123.017a2.375,2.375,0,0,0-1-2.252,4.9,4.9,0,0,0-2.085-.446v-.974h20v7.739h-.847q-.661-3.71-2.245-5.078t-5.771-1.368a3.567,3.567,0,0,0-2.025.365,1.868,1.868,0,0,0-.432,1.452v8.882q2.966.038,4.017-1.19a9.712,9.712,0,0,0,1.61-4.488h.881v12.967h-.881a8.768,8.768,0,0,0-1.517-4.619q-1.144-1.339-4.11-1.34v9.294a2,2,0,0,0,.568,1.658,4.156,4.156,0,0,0,2.33.44,9.475,9.475,0,0,0,5.424-1.424q2.1-1.423,3.729-5.34h.966l-1.407,7.982Z" transform="translate(-591.079 -117.882)" fill="#fff"/>
        <path id="Path_67" data-name="Path 67" d="M803.854,144.3a3.274,3.274,0,0,0,2.576-.778,3.659,3.659,0,0,0,.593-2.276V123.017a2.443,2.443,0,0,0-.678-2.056,5.034,5.034,0,0,0-2.406-.642v-.974h8.745l6.83,17.763h.288l6.79-17.763h8.751v.974a4.3,4.3,0,0,0-2.407.718q-.645.568-.644,2.786V140.8a4.146,4.146,0,0,0,.644,2.773,3.592,3.592,0,0,0,2.407.731v.974H823.819V144.3a4.553,4.553,0,0,0,2.322-.572q.78-.515.78-2.257V122.718h-.254l-8.508,22.56h-.931l-8.594-22.11h-.152v17.351a4.819,4.819,0,0,0,.644,2.805q.644.886,2.847.98v.974h-8.119Z" transform="translate(-658.716 -117.882)" fill="#fff"/>
        <path id="Path_68" data-name="Path 68" d="M894.137,143.638a2.564,2.564,0,0,0,2.017-1.255,18.38,18.38,0,0,0,1.407-3.223l7.711-21h.966l7.745,20.162a28.483,28.483,0,0,0,1.949,4.375,1.98,1.98,0,0,0,1.83.947v.974H906.526v-.974a7.218,7.218,0,0,0,2.229-.319q.534-.243.534-1.236a5.412,5.412,0,0,0-.271-1.368q-.171-.544-.458-1.312l-.883-2.323h-7.793q-.763,2.286-.984,2.979a8.347,8.347,0,0,0-.458,2.155q0,.824,1,1.2a6.081,6.081,0,0,0,1.78.225v.974h-7.084Zm13.03-8.076-3.339-8.882h-.292l-3.133,8.882Z" transform="translate(-712.98 -117.217)" fill="#fff"/>
        <path id="Path_69" data-name="Path 69" d="M963.58,144.3a4.9,4.9,0,0,0,2.119-.394,2.419,2.419,0,0,0,1.05-2.3V123.017a2.4,2.4,0,0,0-1-2.27,5.2,5.2,0,0,0-2.169-.428v-.974h12.135v.974a5.7,5.7,0,0,0-2.237.409,2.4,2.4,0,0,0-1.017,2.289v18.588a2.422,2.422,0,0,0,.814,2.154,4.423,4.423,0,0,0,2.44.544v.974H963.58Z" transform="translate(-754.718 -117.882)" fill="#fff"/>
        <path id="Path_70" data-name="Path 70" d="M1009.879,134.418h1a12.469,12.469,0,0,0,2.676,6.254,5.681,5.681,0,0,0,4.234,1.953,3.809,3.809,0,0,0,3.3-1.34,4.717,4.717,0,0,0,.978-2.822,3.946,3.946,0,0,0-1.021-2.813,12.479,12.479,0,0,0-2.737-1.857l-2.211-1.238a14.819,14.819,0,0,1-4.645-3.638,7.188,7.188,0,0,1-1.352-4.444,8.689,8.689,0,0,1,1.792-5.25,6.366,6.366,0,0,1,5.492-2.438,10.619,10.619,0,0,1,3.641.637,12.449,12.449,0,0,0,2.009.637.834.834,0,0,0,.783-.366,3.318,3.318,0,0,0,.35-.965h1.034v8.357h-.966a12.147,12.147,0,0,0-2.394-5,5.2,5.2,0,0,0-4.166-2.1,3.572,3.572,0,0,0-2.725,1.059,4.1,4.1,0,0,0-.063,5.3,21.7,21.7,0,0,0,4.133,2.7l2.562,1.425a10.216,10.216,0,0,1,2.733,2.118,7.732,7.732,0,0,1,1.9,5.28,8.666,8.666,0,0,1-2.042,5.477q-2.042,2.575-6.543,2.575a10.5,10.5,0,0,1-4.185-.881l-.667-.281c-.156-.049-.305-.09-.45-.121a1.81,1.81,0,0,0-.367-.047.773.773,0,0,0-.734.347,3.737,3.737,0,0,0-.35.984h-1Z" transform="translate(-782.545 -116.42)" fill="#fff"/>
        <path id="Path_71" data-name="Path 71" d="M1080.862,119.775a15.473,15.473,0,0,1,0,19.787,12.054,12.054,0,0,1-17.8-.356,13.95,13.95,0,0,1-3.271-9.331,14.428,14.428,0,0,1,3.423-9.913,12.053,12.053,0,0,1,17.643-.187Zm-3.374,17.126a27.442,27.442,0,0,0,.781-7.232q0-6.128-1.655-9.238t-4.489-3.111q-3.937,0-5.4,5.19a27.533,27.533,0,0,0-.764,7.158,27.3,27.3,0,0,0,.78,7.232q1.443,5.116,5.38,5.115Q1076.028,142.017,1077.488,136.9Z" transform="translate(-812.546 -116.028)" fill="#fff"/>
        <path id="Path_72" data-name="Path 72" d="M1131.849,143.3a3.153,3.153,0,0,0,2.492-.815,3.751,3.751,0,0,0,.559-2.239V122.073q-1.593-1.967-1.966-2.314a1.838,1.838,0,0,0-1.016-.44v-.974h7.355l11.932,16.032h.169V123.1a4.652,4.652,0,0,0-.64-2.783,3.526,3.526,0,0,0-2.563-1v-.974h7.457v.974a4.655,4.655,0,0,0-2.178.8,3.174,3.174,0,0,0-.551,2.253V144.99h-.966l-15.27-20.518h-.237v15.047a5.169,5.169,0,0,0,.441,2.5,3.2,3.2,0,0,0,2.847,1.281v.974h-7.864Z" transform="translate(-855.854 -117.323)" fill="#fff"/>
      </g>
    </g>
    <g id="Group_609" data-name="Group 609" transform="translate(19686.67 -450.031)">
      <path id="Path_73" data-name="Path 73" d="M621.055,232.273a2.98,2.98,0,0,1-.021.382,1,1,0,0,1-.067.263.386.386,0,0,1-.113.16.255.255,0,0,1-.16.052h-5.906a.69.69,0,0,1-.449-.177.775.775,0,0,1-.211-.622V218.655a.3.3,0,0,1,.041-.16.278.278,0,0,1,.145-.109,1.471,1.471,0,0,1,.279-.069,3.227,3.227,0,0,1,.852,0,1.486,1.486,0,0,1,.273.069.279.279,0,0,1,.145.109.306.306,0,0,1,.041.16v12.773h4.791a.255.255,0,0,1,.16.051.4.4,0,0,1,.113.148.854.854,0,0,1,.067.257A3.136,3.136,0,0,1,621.055,232.273Z" transform="translate(-614.127 -218.153)" fill="#fff"/>
      <path id="Path_74" data-name="Path 74" d="M641.1,232.833a.3.3,0,0,1-.042.16.276.276,0,0,1-.144.109,1.422,1.422,0,0,1-.273.068,3.18,3.18,0,0,1-.852,0,1.409,1.409,0,0,1-.278-.068.276.276,0,0,1-.145-.109.3.3,0,0,1-.041-.16V218.655a.279.279,0,0,1,.046-.16.309.309,0,0,1,.155-.109,1.62,1.62,0,0,1,.279-.069,2.57,2.57,0,0,1,.408-.028,2.741,2.741,0,0,1,.429.028,1.486,1.486,0,0,1,.273.069.278.278,0,0,1,.144.109.3.3,0,0,1,.042.16Z" transform="translate(-629.271 -218.153)" fill="#fff"/>
      <path id="Path_75" data-name="Path 75" d="M658.853,232.787a.564.564,0,0,1-.114.206.481.481,0,0,1-.2.126,1.351,1.351,0,0,1-.33.063q-.2.017-.5.017c-.151,0-.284,0-.4-.006a2.069,2.069,0,0,1-.294-.029,1.631,1.631,0,0,1-.212-.051.517.517,0,0,1-.15-.074.344.344,0,0,1-.1-.109.806.806,0,0,1-.067-.154l-4.367-13.72a1.526,1.526,0,0,1-.088-.405.278.278,0,0,1,.088-.234.549.549,0,0,1,.3-.1,5.4,5.4,0,0,1,.558-.023q.289,0,.459.017a.784.784,0,0,1,.263.063.335.335,0,0,1,.14.12,1.049,1.049,0,0,1,.088.188l3.83,12.431h.01L661.5,218.7a.959.959,0,0,1,.072-.206.285.285,0,0,1,.144-.126.945.945,0,0,1,.289-.063q.186-.017.5-.017a3.584,3.584,0,0,1,.506.028.408.408,0,0,1,.253.109.305.305,0,0,1,.051.234,1.994,1.994,0,0,1-.1.405Z" transform="translate(-636.91 -218.153)" fill="#fff"/>
      <path id="Path_76" data-name="Path 76" d="M696.012,232.405a2.755,2.755,0,0,1-.02.359.829.829,0,0,1-.072.257.384.384,0,0,1-.119.148.262.262,0,0,1-.15.046H689.24a.689.689,0,0,1-.449-.177.774.774,0,0,1-.211-.622V219.244a.774.774,0,0,1,.211-.622.689.689,0,0,1,.449-.177h6.339a.261.261,0,0,1,.15.046.313.313,0,0,1,.108.148,1.266,1.266,0,0,1,.067.257,2.411,2.411,0,0,1,.026.382,2.238,2.238,0,0,1-.026.359,1.131,1.131,0,0,1-.067.251.311.311,0,0,1-.108.142.258.258,0,0,1-.15.046h-5.224v4.634h4.481a.236.236,0,0,1,.15.052.4.4,0,0,1,.114.142.779.779,0,0,1,.067.251,2.955,2.955,0,0,1,.021.377,2.58,2.58,0,0,1-.021.354.757.757,0,0,1-.067.24.308.308,0,0,1-.114.131.284.284,0,0,1-.15.04h-4.481v5.285h5.3a.265.265,0,0,1,.15.045.4.4,0,0,1,.119.143.761.761,0,0,1,.072.251A2.966,2.966,0,0,1,696.012,232.405Z" transform="translate(-658.875 -218.239)" fill="#fff"/>
      <path id="Path_77" data-name="Path 77" d="M738.045,220.194a3.165,3.165,0,0,1-.021.382,1.212,1.212,0,0,1-.062.274.331.331,0,0,1-.1.154.22.22,0,0,1-.134.046.894.894,0,0,1-.413-.217,6.455,6.455,0,0,0-.774-.479,6.942,6.942,0,0,0-1.162-.479,5.292,5.292,0,0,0-1.605-.217,4.242,4.242,0,0,0-3.469,1.678,5.7,5.7,0,0,0-.934,1.872,8.843,8.843,0,0,0,.031,4.863,5.5,5.5,0,0,0,.986,1.849,4.12,4.12,0,0,0,1.5,1.142,4.656,4.656,0,0,0,1.915.388,4.961,4.961,0,0,0,1.254-.165,4.437,4.437,0,0,0,1.182-.5v-4.3h-3.1a.281.281,0,0,1-.263-.194,1.549,1.549,0,0,1-.088-.6,2.9,2.9,0,0,1,.021-.371.845.845,0,0,1,.068-.251.372.372,0,0,1,.108-.142.254.254,0,0,1,.155-.046h4.244a.606.606,0,0,1,.227.046.634.634,0,0,1,.206.137.611.611,0,0,1,.145.251,1.185,1.185,0,0,1,.052.365V231.3a1.293,1.293,0,0,1-.093.514.842.842,0,0,1-.392.382,7.557,7.557,0,0,1-.774.359,8.4,8.4,0,0,1-.981.331,7.821,7.821,0,0,1-1.022.206,7.722,7.722,0,0,1-1.022.068,6.866,6.866,0,0,1-2.767-.531,5.636,5.636,0,0,1-2.06-1.512,6.774,6.774,0,0,1-1.285-2.351,10.779,10.779,0,0,1,.036-6.244,7.124,7.124,0,0,1,1.353-2.431,6.049,6.049,0,0,1,2.1-1.558,6.5,6.5,0,0,1,2.71-.554,6.647,6.647,0,0,1,1.435.149,8.538,8.538,0,0,1,1.192.348,4.6,4.6,0,0,1,.878.434,2.713,2.713,0,0,1,.49.382.815.815,0,0,1,.186.342A2.31,2.31,0,0,1,738.045,220.194Z" transform="translate(-682.072 -217.979)" fill="#fff"/>
      <path id="Path_78" data-name="Path 78" d="M774.53,232.919a.382.382,0,0,1-.031.16.247.247,0,0,1-.134.114,1.071,1.071,0,0,1-.289.068,4.3,4.3,0,0,1-.5.023,3.459,3.459,0,0,1-.439-.023.9.9,0,0,1-.274-.074.381.381,0,0,1-.16-.143.94.94,0,0,1-.1-.228l-1.228-3.481q-.217-.593-.449-1.09a3.517,3.517,0,0,0-.553-.856,2.268,2.268,0,0,0-.754-.56,2.483,2.483,0,0,0-1.043-.2H767.4v6.29a.278.278,0,0,1-.046.16.309.309,0,0,1-.144.109,1.305,1.305,0,0,1-.269.068,3.219,3.219,0,0,1-.857,0,1.415,1.415,0,0,1-.273-.068.273.273,0,0,1-.144-.109.3.3,0,0,1-.042-.16V219.244a.775.775,0,0,1,.211-.622.69.69,0,0,1,.449-.177h2.839q.506,0,.841.029t.6.063a4.772,4.772,0,0,1,1.368.468,3.288,3.288,0,0,1,1,.811,3.354,3.354,0,0,1,.6,1.124,4.59,4.59,0,0,1,.2,1.4,4.521,4.521,0,0,1-.181,1.33,3.32,3.32,0,0,1-.521,1.039,3.572,3.572,0,0,1-.815.782,5.039,5.039,0,0,1-1.064.559,2.487,2.487,0,0,1,.6.405,3.318,3.318,0,0,1,.5.588,5.561,5.561,0,0,1,.439.788q.207.445.413,1l1.2,3.253q.144.411.186.577A1.141,1.141,0,0,1,774.53,232.919Zm-2.674-10.376a2.857,2.857,0,0,0-.351-1.467,1.99,1.99,0,0,0-1.177-.861,3.067,3.067,0,0,0-.583-.114,8.434,8.434,0,0,0-.852-.034h-1.5v4.977h1.735a3.52,3.52,0,0,0,1.213-.188,2.359,2.359,0,0,0,.852-.525,2.059,2.059,0,0,0,.5-.794A2.984,2.984,0,0,0,771.856,222.543Z" transform="translate(-705.18 -218.239)" fill="#fff"/>
      <path id="Path_79" data-name="Path 79" d="M805.193,232.433a1.568,1.568,0,0,1,.088.4.3.3,0,0,1-.077.234.472.472,0,0,1-.274.1,4.569,4.569,0,0,1-.511.023q-.32,0-.511-.017a1.064,1.064,0,0,1-.289-.057.312.312,0,0,1-.144-.108.91.91,0,0,1-.088-.171l-1.146-3.6h-5.555l-1.094,3.55a.617.617,0,0,1-.083.177.4.4,0,0,1-.15.126.858.858,0,0,1-.279.074,3.945,3.945,0,0,1-.47.023,3.443,3.443,0,0,1-.491-.029.466.466,0,0,1-.268-.109.308.308,0,0,1-.072-.234,1.513,1.513,0,0,1,.088-.405l4.481-13.72a.614.614,0,0,1,.108-.206.445.445,0,0,1,.2-.126,1.332,1.332,0,0,1,.33-.063q.2-.017.511-.017c.22,0,.4.006.547.017a1.466,1.466,0,0,1,.351.063.463.463,0,0,1,.207.131.627.627,0,0,1,.113.211Zm-5.751-12.111h-.01l-2.3,7.363h4.646Z" transform="translate(-722.105 -218.153)" fill="#fff"/>
      <path id="Path_80" data-name="Path 80" d="M838.259,230.9q0,.183-.01.319a1.52,1.52,0,0,1-.036.24.867.867,0,0,1-.067.183,1,1,0,0,1-.144.194,3,3,0,0,1-.434.348,5.019,5.019,0,0,1-.821.457,6.372,6.372,0,0,1-1.126.376,5.878,5.878,0,0,1-1.388.154,5.588,5.588,0,0,1-2.349-.479,4.787,4.787,0,0,1-1.786-1.415,6.681,6.681,0,0,1-1.136-2.311,12.775,12.775,0,0,1,.031-6.444,7.367,7.367,0,0,1,1.2-2.437,5.217,5.217,0,0,1,1.853-1.524,5.387,5.387,0,0,1,2.391-.525,5.248,5.248,0,0,1,1.125.12,6.653,6.653,0,0,1,1.012.3,4.408,4.408,0,0,1,.826.422,2.844,2.844,0,0,1,.5.394,1.32,1.32,0,0,1,.181.234.823.823,0,0,1,.067.188,2.14,2.14,0,0,1,.042.257q.015.149.015.354a3.039,3.039,0,0,1-.021.388,1.177,1.177,0,0,1-.062.268.406.406,0,0,1-.1.16.2.2,0,0,1-.14.052.747.747,0,0,1-.4-.222,6.622,6.622,0,0,0-.669-.491,5.183,5.183,0,0,0-1-.49,3.962,3.962,0,0,0-1.406-.223,3.374,3.374,0,0,0-1.625.394,3.535,3.535,0,0,0-1.251,1.159,5.966,5.966,0,0,0-.8,1.866,11.28,11.28,0,0,0-.01,5,5.4,5.4,0,0,0,.789,1.8,3.371,3.371,0,0,0,1.261,1.1,3.752,3.752,0,0,0,1.692.371,4.07,4.07,0,0,0,1.4-.217,5.151,5.151,0,0,0,1.017-.485,7.834,7.834,0,0,0,.691-.485.789.789,0,0,1,.425-.217.219.219,0,0,1,.124.034.235.235,0,0,1,.083.131,1.31,1.31,0,0,1,.047.268Q838.259,230.633,838.259,230.9Z" transform="translate(-743.012 -218.008)" fill="#fff"/>
      <path id="Path_81" data-name="Path 81" d="M869.114,232.405a2.771,2.771,0,0,1-.021.359.813.813,0,0,1-.072.257.38.38,0,0,1-.118.148.262.262,0,0,1-.15.046h-6.412a.689.689,0,0,1-.449-.177.775.775,0,0,1-.211-.622V219.244a.775.775,0,0,1,.211-.622.689.689,0,0,1,.449-.177h6.34a.26.26,0,0,1,.15.046.315.315,0,0,1,.109.148,1.274,1.274,0,0,1,.067.257,2.419,2.419,0,0,1,.026.382,2.246,2.246,0,0,1-.026.359,1.138,1.138,0,0,1-.067.251.313.313,0,0,1-.109.142.257.257,0,0,1-.15.046h-5.224v4.634h4.481a.238.238,0,0,1,.15.052.408.408,0,0,1,.114.142.8.8,0,0,1,.067.251,3.024,3.024,0,0,1,.021.377,2.64,2.64,0,0,1-.021.354.78.78,0,0,1-.067.24.31.31,0,0,1-.114.131.286.286,0,0,1-.15.04h-4.481v5.285h5.3a.265.265,0,0,1,.15.045.394.394,0,0,1,.118.143.747.747,0,0,1,.072.251A2.98,2.98,0,0,1,869.114,232.405Z" transform="translate(-762.915 -218.239)" fill="#fff"/>
      <path id="Path_82" data-name="Path 82" d="M897.495,219.29a3.019,3.019,0,0,1-.021.377.767.767,0,0,1-.072.257.4.4,0,0,1-.119.142.247.247,0,0,1-.14.046H892.25v5.022h4.626a.272.272,0,0,1,.14.04.35.35,0,0,1,.119.131.693.693,0,0,1,.072.245,3.09,3.09,0,0,1,.021.394,2.872,2.872,0,0,1-.021.371.756.756,0,0,1-.072.251.446.446,0,0,1-.119.148.227.227,0,0,1-.14.052H892.25v6.153a.312.312,0,0,1-.041.154.266.266,0,0,1-.145.114,1.417,1.417,0,0,1-.268.068,2.657,2.657,0,0,1-.434.029,2.689,2.689,0,0,1-.423-.029,1.407,1.407,0,0,1-.279-.068.262.262,0,0,1-.144-.114.308.308,0,0,1-.042-.154V219.244a.775.775,0,0,1,.211-.622.689.689,0,0,1,.449-.177h6.009a.247.247,0,0,1,.14.046.388.388,0,0,1,.119.148.846.846,0,0,1,.072.268A3.176,3.176,0,0,1,897.495,219.29Z" transform="translate(-780.222 -218.239)" fill="#fff"/>
      <path id="Path_83" data-name="Path 83" d="M927.756,227.673a7.486,7.486,0,0,1-.356,2.4,5,5,0,0,1-1.017,1.786,4.246,4.246,0,0,1-1.611,1.107,5.81,5.81,0,0,1-2.158.377,5.5,5.5,0,0,1-2.014-.354,4.211,4.211,0,0,1-1.559-1.044,4.653,4.653,0,0,1-1-1.729,7.474,7.474,0,0,1-.351-2.4v-9.166a.3.3,0,0,1,.042-.16.277.277,0,0,1,.144-.109,1.491,1.491,0,0,1,.268-.069,2.708,2.708,0,0,1,.434-.028,2.75,2.75,0,0,1,.423.028,1.35,1.35,0,0,1,.274.069.277.277,0,0,1,.139.109.3.3,0,0,1,.042.16v8.926a6.314,6.314,0,0,0,.227,1.792,3.477,3.477,0,0,0,.656,1.273,2.738,2.738,0,0,0,1.032.765,3.441,3.441,0,0,0,1.358.257,3.56,3.56,0,0,0,1.378-.251,2.62,2.62,0,0,0,1.022-.753,3.47,3.47,0,0,0,.64-1.244,6.061,6.061,0,0,0,.222-1.735v-9.029a.3.3,0,0,1,.041-.16.275.275,0,0,1,.144-.109,1.479,1.479,0,0,1,.273-.069,2.737,2.737,0,0,1,.429-.028,2.65,2.65,0,0,1,.418.028,1.339,1.339,0,0,1,.268.069.309.309,0,0,1,.145.109.276.276,0,0,1,.046.16Z" transform="translate(-796.579 -218.153)" fill="#fff"/>
      <path id="Path_84" data-name="Path 84" d="M960.589,232.273a2.894,2.894,0,0,1-.021.382,1.014,1.014,0,0,1-.067.263.388.388,0,0,1-.114.16.255.255,0,0,1-.16.052h-5.906a.69.69,0,0,1-.449-.177.775.775,0,0,1-.211-.622V218.655a.3.3,0,0,1,.042-.16.275.275,0,0,1,.144-.109,1.471,1.471,0,0,1,.279-.069,3.226,3.226,0,0,1,.852,0,1.477,1.477,0,0,1,.273.069.281.281,0,0,1,.145.109.3.3,0,0,1,.041.16v12.773h4.791a.255.255,0,0,1,.16.051.4.4,0,0,1,.114.148.869.869,0,0,1,.067.257A3.043,3.043,0,0,1,960.589,232.273Z" transform="translate(-818.199 -218.153)" fill="#fff"/>
      <path id="Path_85" data-name="Path 85" d="M985.785,232.273a2.9,2.9,0,0,1-.021.382,1,1,0,0,1-.067.263.39.39,0,0,1-.113.16.256.256,0,0,1-.16.052h-5.905a.688.688,0,0,1-.449-.177.774.774,0,0,1-.212-.622V218.655a.3.3,0,0,1,.041-.16.275.275,0,0,1,.144-.109,1.48,1.48,0,0,1,.278-.069,3.23,3.23,0,0,1,.852,0,1.493,1.493,0,0,1,.274.069.278.278,0,0,1,.144.109.306.306,0,0,1,.041.16v12.773h4.79a.256.256,0,0,1,.16.051.4.4,0,0,1,.113.148.854.854,0,0,1,.067.257A3.046,3.046,0,0,1,985.785,232.273Z" transform="translate(-833.343 -218.153)" fill="#fff"/>
      <path id="Path_86" data-name="Path 86" d="M1001.807,227.388v5.445a.3.3,0,0,1-.042.16.272.272,0,0,1-.144.109,1.4,1.4,0,0,1-.277.068,3.138,3.138,0,0,1-.846,0,1.549,1.549,0,0,1-.277-.068.276.276,0,0,1-.149-.109.306.306,0,0,1-.041-.16v-5.445l-3.779-8.333a1.952,1.952,0,0,1-.14-.411.248.248,0,0,1,.052-.228.455.455,0,0,1,.278-.1,5.121,5.121,0,0,1,.542-.023,4.449,4.449,0,0,1,.5.023,1.479,1.479,0,0,1,.3.063.36.36,0,0,1,.17.114.985.985,0,0,1,.108.188l1.848,4.246q.258.6.514,1.267t.524,1.336h.021q.236-.65.487-1.3t.509-1.273l1.858-4.269a.608.608,0,0,1,.088-.194.344.344,0,0,1,.155-.12,1.137,1.137,0,0,1,.274-.063,3.588,3.588,0,0,1,.444-.023,4.733,4.733,0,0,1,.584.028.529.529,0,0,1,.294.109.241.241,0,0,1,.057.228,1.8,1.8,0,0,1-.14.4Z" transform="translate(-843.71 -218.153)" fill="#fff"/>
    </g>
    <g id="Group_606" data-name="Group 606" transform="translate(19617 -462.151)">
      <line id="Line_28" data-name="Line 28" x2="299.821" transform="translate(0 0.221)" fill="#030504"/>
      <rect id="Rectangle_74" data-name="Rectangle 74" width="299.821" height="0.441" transform="translate(0 0)" fill="#fff"/>
    </g>
  </g>
</svg>
