<?xml version="1.0" encoding="UTF-8"?> <svg xmlns="http://www.w3.org/2000/svg" width="180" height="49" viewBox="0 0 180 49" fill="none"><path fill-rule="evenodd" clip-rule="evenodd" d="M0 23.8893C0 13.73 0 8.65028 2.76515 5.20364C3.3387 4.48873 3.98873 3.8387 4.70364 3.26515C8.15028 0.5 13.23 0.5 23.3893 0.5C33.5487 0.5 38.6284 0.5 42.075 3.26515C42.7899 3.8387 43.44 4.48873 44.0136 5.20364C46.7787 8.65028 46.7787 13.73 46.7787 23.8893V24.9822C46.7787 35.1417 46.7787 40.2213 44.0136 43.668C43.44 44.3828 42.7899 45.0329 42.075 45.6065C38.6284 48.3716 33.5487 48.3716 23.3893 48.3716C13.23 48.3716 8.15028 48.3716 4.70364 45.6065C3.98873 45.0329 3.3387 44.3828 2.76515 43.668C0 40.2213 0 35.1417 0 24.9822V23.8893ZM36.4138 14.2923V17.0582H35.8897C35.4777 16.021 34.8226 14.9656 33.9989 14.2013C33.4 13.5644 32.7262 13.0549 32.0149 12.6182L32.0709 11.5264H32.1084C33.0299 11.8952 33.8291 12.4336 34.5401 12.9124L34.6167 12.964C35.1582 13.3014 35.5969 13.6489 36.0012 13.9692C36.1419 14.0807 36.2784 14.1889 36.4138 14.2923ZM28.271 37.2198C28.1211 37.2744 27.9527 37.3291 27.803 37.3653C26.6425 37.6565 25.5005 37.7476 24.3962 37.7658C22.6178 37.7658 20.8208 37.4746 19.2485 36.6922C19.1643 36.6467 19.066 36.5966 18.9678 36.5466C18.8695 36.4965 18.771 36.4464 18.6868 36.4009L19.08 37.5474C20.7647 38.1115 22.6178 38.4025 24.4149 38.4025C25.8188 38.4025 27.1105 38.257 28.271 38.0204V37.2198ZM36.4137 33.9444L34.6353 35.3819C33.8865 35.8733 33.0628 36.3281 32.1269 36.8195C31.9717 36.876 31.8097 36.9392 31.6426 37.0044C31.3263 37.1277 30.991 37.2583 30.6481 37.3653L30.6856 36.3827C30.7699 36.3373 30.8588 36.3009 30.9476 36.2644C31.0366 36.228 31.1254 36.1918 31.2097 36.1462C32.2768 35.5639 33.194 34.9088 34.0549 34.0537C34.8786 33.1984 35.5338 32.2341 35.9457 31.1968H36.4137V33.9444ZM28.3459 40.9319C28.3459 40.9319 28.3367 40.9408 28.3187 40.9522L28.327 40.9501C28.327 40.9501 28.3083 40.9683 28.2708 40.9865C28.2615 40.9865 28.2568 40.9911 28.2521 40.9956C28.2474 41.0001 28.2429 41.0048 28.2335 41.0048C28.211 41.0174 28.1881 41.0299 28.1652 41.0426C27.7371 41.3114 26.6028 41.9356 25.5384 42.0614C25.4712 42.0744 25.4029 42.0862 25.3319 42.0964C25.0886 42.1327 24.8267 42.1511 24.471 42.1511C23.2917 42.1511 22.2246 41.9147 21.2513 41.4597C20.3341 41.023 19.4731 40.4043 18.7056 39.6219C18.1065 38.985 17.5638 38.1479 17.1893 37.2926V37.2744L16.9273 36.5284C16.7962 36.1281 16.6652 35.6549 16.5903 35.2C16.4967 34.6542 16.4406 34.0719 16.4406 33.5261C16.4406 32.3432 16.6278 31.2333 17.0396 30.1596C17.3952 29.2681 17.9006 28.4311 18.5184 27.6849L19.0611 27.1026L19.0799 27.0844C19.3981 26.7934 19.8661 26.3748 20.3341 26.0836C20.3835 26.0562 20.4302 26.0288 20.4751 26.0024C20.5497 25.9586 20.6197 25.9175 20.6898 25.8835C20.6992 25.8835 20.7039 25.879 20.7085 25.8744C20.7132 25.8698 20.7179 25.8652 20.7273 25.8652C20.7366 25.8562 20.746 25.8517 20.7554 25.847C20.7646 25.8425 20.7739 25.838 20.7833 25.8288C21.214 25.6105 21.6632 25.4103 22.075 25.2648L17.3391 9.97977V25.4285H18.3125V26.3748H14.9431V25.4285H16.1785C16.1972 25.4285 16.2534 25.4285 16.2908 25.3923V7.26849H15.2238V6.86818H17.8819L23.4601 24.9009C23.4912 24.9009 23.5415 24.8978 23.6004 24.8941C23.6837 24.8889 23.7843 24.8827 23.872 24.8827H24.34C24.6581 24.8827 24.9202 24.8827 25.1635 24.9191L30.0867 7.05014V6.88637H32.8759V7.26849H31.9212C31.8463 7.26849 31.7713 7.28669 31.6779 7.34129C31.6706 7.34825 31.6635 7.35253 31.6574 7.35621C31.6475 7.36214 31.6404 7.36644 31.6404 7.37768C31.528 7.50506 31.5467 7.72341 31.5467 7.72341V25.283C31.5467 25.4649 31.5655 25.5378 31.6591 25.6287C31.7151 25.6833 31.8088 25.7197 31.9212 25.7197H32.8759V26.1018H29.7124L29.001 25.7197H29.6749C29.7311 25.7197 29.8808 25.7197 29.937 25.6287C30.0117 25.5378 30.0492 25.4467 30.0492 25.283L30.0867 9.74322L25.8936 25.0828C26.0434 25.1193 26.5676 25.2466 27.2976 25.5924L27.3164 25.6105L27.3724 25.6469L27.4098 25.6651C27.6907 25.7744 28.6078 26.2111 28.8887 26.3931C29.08 26.5074 29.2482 26.6444 29.4114 26.7772C29.4558 26.8135 29.4997 26.8492 29.5438 26.8843L29.7124 27.048C29.9744 27.2664 30.2551 27.5029 30.4237 27.7031L30.4611 27.7395V29.5592H29.9557L29.9182 29.4683C29.7124 28.8132 29.3941 28.2671 29.001 27.7759C28.795 27.5211 28.5891 27.3028 28.3458 27.1026C28.0117 26.7673 27.572 26.5044 27.2126 26.3244C27.2286 26.3344 27.2444 26.3452 27.2602 26.3566C27.2227 26.3384 27.1805 26.3157 27.1384 26.293C27.107 26.276 27.0756 26.259 27.0461 26.2439C26.8569 26.1558 26.7043 26.0956 26.6236 26.0654C26.5863 26.0472 26.5676 26.0472 26.5676 26.0472C26.1182 25.9017 25.7064 25.8288 25.7064 25.8288L24.9014 28.7403L24.1341 30.8147H23.7784L22.2996 26.029C22.2996 26.029 22.1686 26.0836 22 26.1747C21.7007 26.3202 21.27 26.5568 21.0641 26.7205C21.057 26.7275 21.0527 26.7344 21.0488 26.7403C21.0428 26.75 21.0383 26.7569 21.0266 26.7569C20.54 27.139 19.9598 27.7031 19.342 28.4128C18.9489 28.9587 18.5932 29.6502 18.3311 30.4326C17.9943 31.397 17.8259 32.4706 17.8259 33.5623C17.8259 34.0537 17.8444 34.5268 17.9193 34.9998V35.018L18.144 36.0008L18.3873 36.7832C18.4008 36.8158 18.4166 36.8509 18.4331 36.8873C18.4627 36.9525 18.4943 37.0226 18.5184 37.0925V37.1107L18.6868 37.511C18.9864 38.1661 19.3045 38.7302 19.7352 39.2398C20.2966 39.9493 21.0079 40.5316 21.8129 40.9319C22.3056 41.2056 22.8203 41.3863 23.3526 41.4833C24.0021 41.5655 24.7075 41.5346 25.0416 41.5117C25.1552 41.4807 25.2567 41.4628 25.4202 41.4342C25.4398 41.4307 25.4603 41.4271 25.4818 41.4233C26.006 41.3504 26.5489 41.2049 27.073 40.9137C27.5783 40.6591 27.9527 40.3132 28.2523 39.8767C28.5144 39.5126 28.6828 39.0214 28.7202 38.4391V34.4176H28.1024V33.8717H30.7419V34.4176H30.1241V38.3663C30.1241 38.53 30.0867 38.712 30.0305 38.8757C29.937 39.1123 29.8433 39.3489 29.6749 39.6036C29.3379 40.0948 28.9261 40.4952 28.4582 40.841C28.4308 40.8676 28.4033 40.8845 28.3685 40.9059C28.3558 40.9137 28.3421 40.9222 28.327 40.9319L27.7167 41.0896L28.3459 40.9319ZM28.4769 10.9987L28.6266 10.3437C27.3911 10.0525 25.9685 9.88876 24.4522 9.83418C22.7488 9.83418 21.139 10.0707 19.604 10.562L19.7724 11.1079C20.1282 10.9805 20.4838 10.8714 20.8582 10.7622C20.8582 10.7622 20.877 10.744 20.9144 10.744C21.1765 10.6712 22.4493 10.3801 23.6473 10.2709C23.6826 10.2709 23.718 10.2668 23.7553 10.2625C23.7971 10.2578 23.8413 10.2527 23.8906 10.2527C23.9843 10.2345 24.0779 10.2345 24.1714 10.2345H24.6206C25.6128 10.2709 26.9793 10.5802 27.7841 10.7986C27.8542 10.818 27.9201 10.8361 27.9814 10.853C28.1492 10.8991 28.2823 10.9357 28.3645 10.9623C28.386 10.9693 28.4047 10.9763 28.4207 10.9822C28.4465 10.9918 28.4653 10.9987 28.4769 10.9987ZM16.3845 36.1827C15.3549 35.5458 14.3441 34.8543 13.4456 34.1083C11.9668 32.8709 10.9373 31.3424 10.0762 29.6138C9.25255 27.885 8.91561 25.9927 8.91561 24.082C8.91561 22.0622 9.32743 20.2608 10.0762 18.5503C10.8998 16.8216 11.9668 15.2931 13.4456 14.0558C14.1195 13.4553 14.8682 12.873 15.6731 12.3817L15.7855 13.5827C15.5421 13.7828 15.3175 14.0194 15.1116 14.2377C13.951 15.4751 12.9215 16.9126 12.2663 18.6049C11.6486 20.2244 11.1993 22.0258 11.1993 23.9547C11.1993 25.8835 11.5175 27.6667 12.2663 29.3044C12.6407 30.105 13.0525 30.8876 13.5392 31.6336C13.5486 31.6518 13.5579 31.6653 13.5673 31.679C13.5766 31.6927 13.586 31.7064 13.5954 31.7245C13.6141 31.7609 13.6328 31.7973 13.6702 31.8337C14.2505 32.6708 15.9352 34.1447 15.9352 34.1447L15.9914 34.5086C16.085 35.1273 16.1973 35.6732 16.3845 36.1827ZM24.003 29.068L25.201 25.7744V25.7015H25.1448C24.9389 25.6651 24.1714 25.5378 23.5163 25.7562V25.7744L24.003 29.068Z" fill="#16213a"></path><path d="M168.429 27.6042V10.2225H170.267V26.0149H180V27.6042H168.429Z" fill="#16213a"></path><path d="M147.85 27.6042L155.796 10.2225H157.608L165.554 27.6042H163.617L156.317 11.2902H157.062L149.762 27.6042H147.85ZM150.978 22.9609L151.525 21.471H161.631L162.177 22.9609H150.978Z" fill="#16213a"></path><path d="M132.687 27.6042V10.2225H139.193C140.666 10.2225 141.932 10.4626 142.992 10.9426C144.051 11.4061 144.862 12.0848 145.425 12.9788C146.005 13.8561 146.294 14.9239 146.294 16.182C146.294 17.4069 146.005 18.4663 145.425 19.3603C144.862 20.2378 144.051 20.9165 142.992 21.3964C141.932 21.86 140.666 22.0917 139.193 22.0917H133.705L134.524 21.2474V27.6042H132.687ZM144.556 27.6042L140.087 21.2972H142.073L146.567 27.6042H144.556ZM134.524 21.3964L133.705 20.5274H139.143C140.881 20.5274 142.197 20.1467 143.091 19.3851C144.001 18.6237 144.457 17.5559 144.457 16.182C144.457 14.7914 144.001 13.7154 143.091 12.9539C142.197 12.1925 140.881 11.8117 139.143 11.8117H133.705L134.524 10.9426V21.3964Z" fill="#16213a"></path><path d="M121.805 27.6042V11.8117H115.697V10.2225H129.751V11.8117H123.643V27.6042H121.805Z" fill="#16213a"></path><path d="M98.2285 27.6042V10.2225H99.7432L111.737 25.3198H110.942V10.2225H112.755V27.6042H111.24L99.2715 12.507H100.066V27.6042H98.2285Z" fill="#16213a"></path><path d="M83.2571 17.9946H92.4446V19.5589H83.2571V17.9946ZM83.4557 26.0149H93.9095V27.6042H81.6182V10.2225H93.5371V11.8117H83.4557V26.0149Z" fill="#16213a"></path><path d="M71.3194 27.7537C70.0116 27.7537 68.8032 27.5387 67.694 27.1082C66.585 26.6612 65.6248 26.0404 64.8136 25.2459C64.0026 24.4513 63.3652 23.5159 62.9017 22.44C62.4547 21.364 62.2313 20.1887 62.2313 18.914C62.2313 17.6393 62.4547 16.464 62.9017 15.388C63.3652 14.312 64.0026 13.3767 64.8136 12.5821C65.6413 11.7875 66.6098 11.175 67.7188 10.7446C68.828 10.2976 70.0364 10.0741 71.3442 10.0741C72.6022 10.0741 73.7859 10.2894 74.895 10.7197C76.0041 11.1336 76.9395 11.7626 77.7009 12.6069L76.5339 13.774C75.8221 13.0456 75.0357 12.5241 74.1749 12.2096C73.3141 11.8785 72.3872 11.713 71.3938 11.713C70.3509 11.713 69.3825 11.8951 68.4886 12.2593C67.5947 12.6069 66.8167 13.1118 66.1545 13.774C65.4923 14.4196 64.9709 15.181 64.5902 16.0584C64.226 16.9192 64.0438 17.8711 64.0438 18.914C64.0438 19.957 64.226 20.917 64.5902 21.7943C64.9709 22.6551 65.4923 23.4167 66.1545 24.0787C66.8167 24.7245 67.5947 25.2294 68.4886 25.5935C69.3825 25.941 70.3509 26.115 71.3938 26.115C72.3872 26.115 73.3141 25.9494 74.1749 25.6183C75.0357 25.2873 75.8221 24.7574 76.5339 24.0291L77.7009 25.1963C76.9395 26.0404 76.0041 26.6779 74.895 27.1082C73.7859 27.5387 72.5941 27.7537 71.3194 27.7537Z" fill="#16213a"></path><path d="M166.043 38.5578V35.11H167.334C167.626 35.11 167.877 35.1575 168.087 35.2529C168.297 35.3448 168.458 35.4794 168.57 35.6567C168.685 35.8307 168.742 36.0426 168.742 36.292C168.742 36.535 168.685 36.7452 168.57 36.9225C168.458 37.0965 168.297 37.2312 168.087 37.3265C167.877 37.4217 167.626 37.4692 167.334 37.4692H166.245L166.408 37.2968V38.5578H166.043ZM166.408 37.3265L166.245 37.149H167.324C167.669 37.149 167.93 37.0751 168.107 36.9275C168.288 36.7765 168.378 36.5647 168.378 36.292C168.378 36.0162 168.288 35.8029 168.107 35.6518C167.93 35.5008 167.669 35.4251 167.324 35.4251H166.245L166.408 35.2529V37.3265Z" fill="#16213a"></path><path d="M160.97 38.5872C160.53 38.5872 160.184 38.4608 159.931 38.2081C159.678 37.9552 159.551 37.5809 159.551 37.085V35.11H159.916V37.0703C159.916 37.4775 160.008 37.7779 160.192 37.9717C160.376 38.1654 160.635 38.2622 160.97 38.2622C161.308 38.2622 161.569 38.1654 161.753 37.9717C161.937 37.7779 162.029 37.4775 162.029 37.0703V35.11H162.384V37.085C162.384 37.5809 162.257 37.9552 162.004 38.2081C161.755 38.4608 161.41 38.5872 160.97 38.5872Z" fill="#16213a"></path><path d="M154.395 38.5876C154.136 38.5876 153.894 38.5449 153.671 38.4594C153.451 38.3708 153.259 38.2476 153.095 38.0901C152.934 37.9292 152.807 37.7436 152.716 37.5336C152.627 37.32 152.583 37.0869 152.583 36.834C152.583 36.5813 152.627 36.3498 152.716 36.1396C152.807 35.9262 152.934 35.7406 153.095 35.5831C153.259 35.4222 153.451 35.299 153.671 35.2137C153.891 35.1251 154.132 35.0807 154.395 35.0807C154.655 35.0807 154.894 35.1251 155.114 35.2137C155.334 35.299 155.525 35.4204 155.685 35.5781C155.85 35.7358 155.976 35.9212 156.065 36.1347C156.157 36.3482 156.203 36.5813 156.203 36.834C156.203 37.0869 156.157 37.32 156.065 37.5336C155.976 37.7469 155.85 37.9325 155.685 38.0901C155.525 38.2476 155.334 38.3708 155.114 38.4594C154.894 38.5449 154.655 38.5876 154.395 38.5876ZM154.395 38.2626C154.602 38.2626 154.792 38.228 154.966 38.159C155.144 38.0869 155.296 37.9866 155.424 37.8586C155.556 37.7273 155.658 37.5762 155.73 37.4054C155.802 37.2314 155.838 37.041 155.838 36.834C155.838 36.6273 155.802 36.4384 155.73 36.2677C155.658 36.0936 155.556 35.9427 155.424 35.8145C155.296 35.6832 155.144 35.5831 154.966 35.5141C154.792 35.4418 154.602 35.4057 154.395 35.4057C154.188 35.4057 153.996 35.4418 153.819 35.5141C153.641 35.5831 153.487 35.6832 153.356 35.8145C153.228 35.9427 153.126 36.0936 153.05 36.2677C152.978 36.4384 152.942 36.6273 152.942 36.834C152.942 37.0377 152.978 37.2266 153.05 37.4005C153.126 37.5745 153.228 37.7273 153.356 37.8586C153.487 37.9866 153.641 38.0869 153.819 38.159C153.996 38.228 154.188 38.2626 154.395 38.2626Z" fill="#16213a"></path><path d="M146.767 38.5578V35.11H148.058C148.35 35.11 148.601 35.1575 148.811 35.2529C149.021 35.3448 149.182 35.4794 149.294 35.6567C149.409 35.8307 149.467 36.0426 149.467 36.292C149.467 36.535 149.409 36.7452 149.294 36.9225C149.182 37.0965 149.021 37.2312 148.811 37.3265C148.601 37.4184 148.35 37.4643 148.058 37.4643H146.969L147.132 37.2968V38.5578H146.767ZM149.122 38.5578L148.235 37.3067H148.629L149.521 38.5578H149.122ZM147.132 37.3265L146.969 37.1541H148.048C148.393 37.1541 148.654 37.0784 148.831 36.9275C149.012 36.7765 149.102 36.5647 149.102 36.292C149.102 36.0162 149.012 35.8029 148.831 35.6518C148.654 35.5008 148.393 35.4251 148.048 35.4251H146.969L147.132 35.2529V37.3265Z" fill="#16213a"></path><path d="M141.909 38.5876C141.646 38.5876 141.404 38.5449 141.18 38.4594C140.96 38.3708 140.768 38.2476 140.604 38.0901C140.443 37.9325 140.317 37.7469 140.225 37.5336C140.136 37.32 140.092 37.0869 140.092 36.834C140.092 36.5813 140.136 36.3482 140.225 36.1347C140.317 35.9212 140.445 35.7358 140.609 35.5781C140.773 35.4204 140.965 35.299 141.185 35.2137C141.408 35.1251 141.651 35.0807 141.914 35.0807C142.177 35.0807 142.416 35.1218 142.633 35.2038C142.853 35.2859 143.04 35.4107 143.195 35.5781L142.968 35.8097C142.824 35.6652 142.664 35.5616 142.49 35.4994C142.316 35.4369 142.129 35.4057 141.929 35.4057C141.715 35.4057 141.518 35.4418 141.338 35.5141C141.161 35.5831 141.005 35.6832 140.87 35.8145C140.739 35.9427 140.635 36.0936 140.56 36.2677C140.487 36.4384 140.451 36.6273 140.451 36.834C140.451 37.0377 140.487 37.2266 140.56 37.4005C140.635 37.5745 140.739 37.7273 140.87 37.8586C141.005 37.9866 141.161 38.0869 141.338 38.159C141.518 38.228 141.714 38.2626 141.924 38.2626C142.121 38.2626 142.306 38.2329 142.48 38.1737C142.658 38.1148 142.82 38.0145 142.968 37.8733L143.175 38.1491C143.011 38.2936 142.819 38.4037 142.599 38.4792C142.379 38.5515 142.149 38.5876 141.909 38.5876ZM142.825 38.1049V36.834H143.175V38.1491L142.825 38.1049Z" fill="#16213a"></path><path d="M131.827 38.5578V35.4251H130.616V35.11H133.403V35.4251H132.192V38.5578H131.827Z" fill="#16213a"></path><path d="M124.589 38.5578V35.11H124.889L127.268 38.1045H127.111V35.11H127.47V38.5578H127.17L124.796 35.5632H124.953V38.5578H124.589Z" fill="#16213a"></path><path d="M119.058 36.6516H120.881V36.9619H119.058V36.6516ZM119.098 38.2426H121.172V38.5578H118.733V35.11H121.098V35.4251H119.098V38.2426Z" fill="#16213a"></path><path d="M111.468 38.5578V35.11H111.768L113.344 37.7993H113.187L114.748 35.11H115.049V38.5578H114.699V35.6567H114.783L113.344 38.1195H113.172L111.724 35.6567H111.818V38.5578H111.468Z" fill="#16213a"></path><path d="M105.937 36.6516H107.759V36.9619H105.937V36.6516ZM105.976 38.2426H108.05V38.5578H105.612V35.11H107.976V35.4251H105.976V38.2426Z" fill="#16213a"></path><path d="M100.753 38.5876C100.491 38.5876 100.248 38.5449 100.024 38.4594C99.8043 38.3708 99.6123 38.2476 99.448 38.0901C99.2871 37.9325 99.1606 37.7469 99.0687 37.5336C98.9801 37.32 98.9358 37.0869 98.9358 36.834C98.9358 36.5813 98.9801 36.3482 99.0687 36.1347C99.1606 35.9212 99.2888 35.7358 99.4529 35.5781C99.6171 35.4204 99.8092 35.299 100.029 35.2137C100.252 35.1251 100.495 35.0807 100.758 35.0807C101.021 35.0807 101.261 35.1218 101.477 35.2038C101.697 35.2859 101.884 35.4107 102.039 35.5781L101.812 35.8097C101.668 35.6652 101.508 35.5616 101.334 35.4994C101.16 35.4369 100.973 35.4057 100.773 35.4057C100.559 35.4057 100.362 35.4418 100.182 35.5141C100.005 35.5831 99.8487 35.6832 99.7139 35.8145C99.5826 35.9427 99.4793 36.0936 99.4036 36.2677C99.3315 36.4384 99.2954 36.6273 99.2954 36.834C99.2954 37.0377 99.3315 37.2266 99.4036 37.4005C99.4793 37.5745 99.5826 37.7273 99.7139 37.8586C99.8487 37.9866 100.005 38.0869 100.182 38.159C100.362 38.228 100.558 38.2626 100.768 38.2626C100.965 38.2626 101.151 38.2329 101.325 38.1737C101.502 38.1148 101.665 38.0145 101.812 37.8733L102.019 38.1491C101.855 38.2936 101.663 38.4037 101.443 38.4792C101.223 38.5515 100.993 38.5876 100.753 38.5876ZM101.669 38.1049V36.834H102.019V38.1491L101.669 38.1049Z" fill="#16213a"></path><path d="M92.6461 38.5578L94.2222 35.11H94.5818L96.1579 38.5578H95.7737L94.3256 35.3218H94.4734L93.0253 38.5578H92.6461ZM93.2667 37.6368L93.3751 37.3412H95.3797L95.4881 37.6368H93.2667Z" fill="#16213a"></path><path d="M86.6301 38.5578V35.11H86.9307L89.3095 38.1045H89.152V35.11H89.5116V38.5578H89.211L86.837 35.5632H86.9947V38.5578H86.6301Z" fill="#16213a"></path><path d="M79.9866 38.5578L81.5627 35.11H81.9222L83.4984 38.5578H83.1142L81.6661 35.3218H81.8138L80.3659 38.5578H79.9866ZM80.6072 37.6368L80.7156 37.3412H82.7201L82.8285 37.6368H80.6072Z" fill="#16213a"></path><path d="M73.2728 38.5578V35.11H73.5732L75.1493 37.7993H74.9918L76.5532 35.11H76.8536V38.5578H76.5039V35.6567H76.5875L75.1493 38.1195H74.9771L73.529 35.6567H73.6225V38.5578H73.2728Z" fill="#16213a"></path></svg> 