<svg class="logo" xmlns="http://www.w3.org/2000/svg" width="252" height="22" viewBox="0 0 252 22" fill="none">
        <path d="M199.629 13.4518C199.629 14.7204 198.36 15.7353 196.498 15.7353H190.406C188.544 15.7353 187.274 14.7204 187.274 13.4518V10.3993C187.274 7.94671 188.586 7.95439 190.194 7.86977V12.8597H196.71V7.86977C198.318 7.95439 199.629 7.94671 199.629 10.3993V13.4518ZM196.71 4.61401V0.00488281H190.194V4.61401L184.947 2.75328L180.716 6.98211V16.9193L184.947 21.1481H201.956L206.188 16.9193V6.98211L201.956 2.75328L196.71 4.61401Z" fill="white" />
        <path d="M162.476 0.00488281L158.244 4.23356V9.30759H164.803V8.54637C164.803 6.5592 165.649 5.45968 168.061 5.45968H169.624C171.782 5.45968 172.84 6.5592 172.84 8.54637V12.606C172.84 14.5938 171.782 15.6933 169.624 15.6933H168.061C165.649 15.6933 164.803 14.5938 164.803 12.606V11.8448H158.244V16.9193L162.476 21.1481H175.167L179.398 16.9193V4.23356L175.167 0.00488281H162.476Z" fill="white" />
        <path d="M112.777 0.00488281H104.484L100.295 4.19109V17.0039L104.484 21.1481H112.777L106.811 15.1858V5.96721L112.777 0.00488281Z" fill="white" />
        <path d="M114.005 17.2152H120.563V3.9375H114.005V17.2152Z" fill="white" />
        <path d="M121.788 0.00488281L127.754 5.96721V15.1858L121.788 21.1481H130.082L134.27 17.0039V4.19109L130.082 0.00488281H121.788Z" fill="white" />
        <path d="M147.696 16.2427H144.903C143.169 16.2427 142.111 15.5241 142.111 14.0864C142.111 12.7752 143.169 12.014 144.903 12.014H150.404V14.1284C150.404 15.5241 149.135 16.2427 147.696 16.2427ZM136.187 0.00488281V1.27348L139.826 4.95231H147.696C149.473 4.95231 150.404 5.67137 150.404 7.32041V9.0539L148.458 7.10918H139.826L135.595 11.3374V16.9193L139.826 21.1481H152.689L156.921 16.9193V14.9741V6.13628V4.23356L152.689 0.00488281H136.187Z" fill="white" />
        <path d="M14.5976 3.1342L11.8895 0.427801H4.23086L0 4.65647V9.39267H6.55841V8.46238C6.55841 7.03789 7.71395 5.8826 9.13935 5.8826H11.9974C13.4333 5.8826 14.5976 7.04619 14.5976 8.48119V12.606C14.5976 14.5938 13.54 15.6933 11.3816 15.6933H9.81637C7.40413 15.6933 6.55841 14.5938 6.55841 12.606V11.8448H0V16.9193L4.23086 21.1481H16.9245L21.156 16.9193V0.00488281H14.5976V3.1342Z" fill="white" />
        <path d="M31.2801 6.47458L29.0372 8.7156V0.00488281H22.4814V21.1481H29.0372V14.3456C29.0372 12.988 29.9228 11.8874 32.2187 11.8874H33.9511C36.0668 11.8874 37.0823 12.6906 37.0823 14.3821V21.1481H43.5987V10.7034L39.3673 6.47458H31.2801Z" fill="white" />
        <path d="M216.311 6.46969L214.068 8.71072V0H207.513V21.1432H214.068V14.3407C214.068 12.9831 214.954 11.8825 217.25 11.8825H218.982C221.098 11.8825 222.114 12.6857 222.114 14.3772V21.1432H228.63V10.6985L224.399 6.46969H216.311Z" fill="white" />
        <path d="M64.3897 0.00488281L60.6239 3.76818L56.8582 0.00488281H49.707L44.9258 4.78308V21.1481H51.4421V7.65871C51.4421 6.47458 52.2884 5.45968 53.5151 5.45968H55.2923C56.4352 5.45968 57.3661 6.47458 57.3661 7.65871V21.1481H63.8819V7.65871C63.8819 6.47458 64.8127 5.45968 65.9549 5.45968H67.7322C68.9595 5.45968 69.8059 6.47458 69.8059 7.65871V21.1481H76.3217V4.78308L71.5405 0.00488281H64.3897Z" fill="white" />
        <path d="M89.6563 16.2427H86.8637C85.425 16.2427 84.1556 15.5241 84.1556 14.1284V12.014H89.6563C91.391 12.014 92.449 12.7752 92.449 14.0864C92.449 15.5241 91.391 16.2427 89.6563 16.2427ZM86.102 7.10918L84.1556 9.0539V7.32041C84.1556 5.67137 85.0865 4.95231 86.8637 4.95231H94.7339L98.3731 1.27348V0.00488281H81.8705L77.6396 4.23356V6.13628V14.9741V16.9193L81.8705 21.1481H94.7339L98.9655 16.9193V11.3374L94.7339 7.10918H86.102Z" fill="white" />
        <path d="M247.303 0H234.187L229.955 4.22883V21.1432H236.513V8.54211C236.513 6.55431 237.36 5.45479 239.772 5.45479H241.76C243.918 5.45479 244.976 6.55431 244.976 8.54211V21.1432H251.535V4.22883L247.303 0Z" fill="white" />
    </svg>