<svg version="1.1" id="Layer_1" xmlns="http://www.w3.org/2000/svg" x="0px" y="0px" viewBox="0 0 1249.9 357.9" enable-background="new 0 0 1249.9 357.9" xml:space="preserve"><style>
			  .Drop_x0020_Shadow{fill:none;}
			  .Outer_x0020_Glow_x0020_5_x0020_pt{fill:none;}
			  .Blue_x0020_Neon{fill:none;stroke:#8AACDA;stroke-width:7;stroke-linecap:round;stroke-linejoin:round;}
			  .Chrome_x0020_Highlight{fill:url(#SVGID_1_);stroke:#FFFFFF;stroke-width:0.3629;stroke-miterlimit:1;}
			  .Jive_GS{fill:#FFDD00;}
			  .Alyssa_GS{fill:#A6D0E4;}
			  .st0{fill:#22489A;}
			  .st1{fill:#44B766;}
			</style><linearGradient id="SVGID_1_" gradientUnits="userSpaceOnUse" x1="353.8004" y1="-2057.1233" x2="353.8004" y2="-2058.1233"><stop offset="0" style="stop-color:#656565"></stop><stop offset="0.618" style="stop-color:#1B1B1B"></stop><stop offset="0.6292" style="stop-color:#545454"></stop><stop offset="0.9831" style="stop-color:#3E3E3E"></stop></linearGradient><g><g><g><path class="st0" d="M192.2,113v47.2c0,6.7-5.4,12.1-12.1,12.1h0c-6.7,0-12.1-5.4-12.1-12.1V113c0-6.7,5.4-12.1,12.1-12.1h0     C186.8,100.9,192.2,106.3,192.2,113"></path><path class="st0" d="M180.2,196.4L180.2,196.4c6.7,0,12.1,5.4,12.1,12.1v47c0,6.7-5.4,12.1-12.1,12.1c-6.7,0-12.1-5.4-12.1-12.1     v-47C168.1,201.8,173.5,196.4,180.2,196.4"></path><path class="st0" d="M109,172.3h47c6.7,0,12.1,5.4,12.1,12.1c0,6.7-5.4,12.1-12.1,12.1h-47c-6.7,0-12.1-5.4-12.1-12.1     C96.9,177.7,102.3,172.3,109,172.3"></path><path class="st0" d="M263.4,184.3L263.4,184.3c0,6.7-5.4,12.1-12.1,12.1h-47c-6.7,0-12.1-5.4-12.1-12.1c0-6.7,5.4-12.1,12.1-12.1     h47C258,172.3,263.4,177.7,263.4,184.3"></path><path class="st0" d="M208.7,35.6c0,15.8-12.8,28.6-28.6,28.6c-15.8,0-28.6-12.8-28.6-28.6c0-15.8,12.8-28.6,28.6-28.6     C195.9,7,208.7,19.8,208.7,35.6"></path><path class="st0" d="M107,51.8c10.1,12.1,8.6,30.1-3.5,40.2s-30.1,8.6-40.2-3.5c-10.1-12.1-8.6-30.1,3.5-40.2     C78.8,38.1,96.9,39.7,107,51.8"></path><path class="st0" d="M39.5,129.6c15.5,2.7,25.9,17.5,23.2,33.1c-2.7,15.5-17.5,25.9-33.1,23.2c-15.5-2.7-25.9-17.5-23.2-33.1     C9.2,137.2,24,126.9,39.5,129.6"></path><path class="st0" d="M37.8,232.6c13.7-7.9,31.1-3.2,39,10.5c7.9,13.7,3.2,31.1-10.5,39c-13.7,7.9-31.1,3.2-39-10.4     C19.5,257.9,24.2,240.5,37.8,232.6"></path><path class="st0" d="M102.8,312.5c5.4-14.8,21.8-22.5,36.6-17.1c14.8,5.4,22.5,21.8,17.1,36.6c-5.4,14.8-21.8,22.5-36.6,17.1     C105,343.8,97.4,327.4,102.8,312.5"></path><path class="st0" d="M203.9,332.1c-5.4-14.8,2.2-31.2,17.1-36.6c14.8-5.4,31.2,2.2,36.6,17.1c5.4,14.8-2.2,31.2-17.1,36.6     C225.7,354.5,209.3,346.9,203.9,332.1"></path><path class="st0" d="M293.9,282c-13.7-7.9-18.3-25.3-10.5-39c7.9-13.7,25.4-18.3,39-10.4c13.7,7.9,18.3,25.3,10.5,39     C325,285.2,307.6,289.9,293.9,282"></path><path class="st0" d="M330.7,185.8c-15.5,2.7-30.3-7.6-33.1-23.2c-2.7-15.5,7.6-30.3,23.2-33.1c15.5-2.7,30.3,7.6,33.1,23.2     C356.6,168.3,346.2,183.1,330.7,185.8"></path><path class="st0" d="M297.1,88.5c-10.1,12.1-28.1,13.7-40.2,3.5c-12.1-10.1-13.7-28.1-3.5-40.2c10.1-12.1,28.1-13.7,40.2-3.5     S307.2,76.4,297.1,88.5"></path></g></g><g><g><g><g><path class="st0" d="M420.8,251.9h19.3v6.3c0,4.5,0.8,8.3,2.5,11.3c1.7,3,4,5.3,7.2,6.9c3.1,1.6,7.1,2.4,12,2.4h2.5       c4.9,0,8.9-0.8,12.1-2.4c3.2-1.6,5.6-3.9,7.2-6.9c1.6-3,2.4-6.8,2.4-11.3v-35.5c0-4.1-0.8-7.6-2.4-10.5c-1.6-2.9-4-5.2-7.1-6.8       c-3.1-1.6-7-2.4-11.7-2.4h-2.5c-4.9,0-8.9,0.8-12,2.4c-3.1,1.6-5.4,3.9-6.9,6.8c-1.5,2.9-2.3,6.4-2.3,10.5v3.5h-19.3v-3.5       c0-8.1,1.6-14.9,4.8-20.5c3.2-5.6,7.8-9.8,13.8-12.6s13.3-4.2,21.8-4.2h2.5c8.4,0,15.6,1.4,21.6,4.2c6,2.8,10.7,7,13.9,12.6       c3.3,5.6,4.9,12.4,4.9,20.5v35.5c0,8.3-1.6,15.3-4.7,21c-3.2,5.7-7.8,10-14,12.9c-6.2,2.9-13.6,4.4-22.3,4.4h-2.5       c-8.8,0-16.2-1.5-22.3-4.4c-6.1-2.9-10.7-7.2-13.9-12.9c-3.2-5.7-4.7-12.7-4.7-21V251.9z"></path><path class="st0" d="M520.1,216.4c0-7.2,1.2-13,3.6-17.3c2.4-4.3,5.8-7.4,10.4-9.3c4.5-1.9,10.1-2.8,16.6-2.8h28       c1.2,0,2-0.3,2.5-0.8c0.5-0.5,0.7-1.3,0.7-2.4h19.1c0,4-0.4,7.5-1.3,10.6c-0.9,3.1-2.6,5.5-5.3,7.3c-2.6,1.7-6.6,2.6-11.8,2.6       h-29.8c-4.7,0-8.1,1-10.3,3.1c-2.2,2-3.3,5.5-3.3,10.5v16.6h5c3-2.5,6.5-4.3,10.5-5.5c4-1.2,8.3-1.8,13-1.8h2.5       c6.9,0,13,1.2,18.3,3.6c5.3,2.4,9.4,6,12.3,10.8c3,4.8,4.5,10.8,4.5,18.2v3.2c0,5.9-1.1,11-3.3,15.3c-2.2,4.3-5.1,7.8-8.8,10.4       c-3.7,2.6-8.1,4.6-13.1,5.8c-5.1,1.2-10.4,1.9-15.9,1.9h-2.6c-5.7,0-11.1-0.6-16.1-1.9c-5-1.2-9.3-3.2-13.1-5.8       c-3.8-2.6-6.8-6.1-8.9-10.4c-2.1-4.3-3.2-9.4-3.2-15.3V216.4z M585.7,259.8c0-4-0.9-7.2-2.8-9.8c-1.9-2.5-4.5-4.4-7.8-5.6       c-3.4-1.2-7-1.8-11-1.8h-2.6c-4.1,0-7.8,0.6-11.1,1.8c-3.3,1.2-5.9,3-7.8,5.6c-1.9,2.5-2.8,5.8-2.8,9.8v3.2       c0,4,0.9,7.2,2.8,9.8c1.9,2.5,4.5,4.4,7.8,5.6c3.3,1.2,7,1.8,11.1,1.8h2.6c4,0,7.7-0.6,11-1.8c3.4-1.2,6-3,7.8-5.6       c1.8-2.5,2.8-5.8,2.8-9.8V259.8z"></path><path class="st0" d="M644,294.6c-5-1.2-9.3-3.1-13.1-5.8c-3.8-2.7-6.8-6.2-8.9-10.4c-2.1-4.2-3.2-9.4-3.2-15.4v-3.2       c0-7.3,1.5-13.4,4.5-18.2c3-4.8,7.2-8.5,12.4-11c5.3-2.5,11.4-3.7,18.6-3.7h2.5c4.7,0,9,0.6,13,1.9c4,1.3,7.5,3.2,10.5,5.6h4.5       V219c0-4.1-0.9-7.4-2.6-9.9c-1.8-2.5-4.2-4.4-7.4-5.5c-3.2-1.1-6.8-1.7-10.9-1.7h-2.5c-4.4,0-8.1,0.5-11.2,1.6       c-3.1,1.1-5.6,2.8-7.4,5.2c-1.9,2.4-2.8,5.6-2.8,9.4v2.1h-19.4v-2.1c0-6,1.1-11.2,3.3-15.4c2.2-4.2,5.1-7.6,8.8-10.2       c3.7-2.5,8-4.4,13-5.5c5-1.1,10.2-1.7,15.8-1.7h2.5c5.5,0,10.6,0.6,15.4,1.7c4.8,1.1,9.1,3,12.7,5.6c3.7,2.6,6.5,6.1,8.7,10.4       c2.1,4.3,3.2,9.6,3.2,15.8v44c0,6-1.1,11.2-3.3,15.4c-2.2,4.3-5.1,7.7-8.8,10.4c-3.7,2.7-8.1,4.6-13.1,5.8       c-5.1,1.2-10.4,1.8-15.9,1.8h-2.6C654.3,296.4,649,295.8,644,294.6z M684.3,259.8c0-4-0.9-7.2-2.8-9.7       c-1.9-2.5-4.5-4.3-7.8-5.6c-3.4-1.2-7-1.9-11-1.9h-2.6c-4.1,0-7.8,0.6-11.1,1.9c-3.3,1.2-5.9,3.1-7.8,5.6       c-1.9,2.5-2.8,5.7-2.8,9.7v3.2c0,4,0.9,7.2,2.8,9.8c1.9,2.5,4.5,4.4,7.8,5.6c3.3,1.2,7,1.8,11.1,1.8h2.6c4,0,7.7-0.6,11-1.8       c3.4-1.2,6-3,7.8-5.6c1.8-2.5,2.8-5.8,2.8-9.8V259.8z"></path><path class="st0" d="M718.8,251.9h19.3v6.3c0,4.5,0.8,8.3,2.5,11.3c1.7,3,4,5.3,7.2,6.9c3.1,1.6,7.1,2.4,12,2.4h2.5       c4.9,0,8.9-0.8,12.1-2.4c3.2-1.6,5.6-3.9,7.2-6.9c1.6-3,2.4-6.8,2.4-11.3v-35.5c0-4.1-0.8-7.6-2.4-10.5c-1.6-2.9-4-5.2-7.1-6.8       c-3.1-1.6-7-2.4-11.7-2.4h-2.5c-4.9,0-8.9,0.8-12,2.4c-3.1,1.6-5.4,3.9-6.9,6.8c-1.5,2.9-2.3,6.4-2.3,10.5v3.5h-19.3v-3.5       c0-8.1,1.6-14.9,4.8-20.5c3.2-5.6,7.8-9.8,13.8-12.6s13.3-4.2,21.8-4.2h2.5c8.4,0,15.6,1.4,21.6,4.2c6,2.8,10.7,7,13.9,12.6       c3.3,5.6,4.9,12.4,4.9,20.5v35.5c0,8.3-1.6,15.3-4.7,21c-3.2,5.7-7.8,10-14,12.9c-6.2,2.9-13.6,4.4-22.3,4.4h-2.5       c-8.8,0-16.2-1.5-22.3-4.4c-6.1-2.9-10.7-7.2-13.9-12.9c-3.2-5.7-4.7-12.7-4.7-21V251.9z"></path><path class="st0" d="M840.3,274.5c-6.1-2-10.8-4.6-14.1-7.6c-3.3-3-5.6-6.7-6.9-11.2c-1.3-4.5-1.9-10-1.9-16.5v-19.7       c0-7.9,1.3-14.3,4-19.3c2.7-5,6.4-8.7,11.2-11.1c4.8-2.4,10.2-3.5,16.4-3.5h2.2c4.8,0,9.2,0.7,13.2,2.1c4,1.4,7.5,3.9,10.4,7.4       h5.3c3.4-3.5,7.3-6.1,11.5-7.5c4.3-1.5,8.8-2.2,13.6-2.2h2.2c4.8,0,9.3,0.7,13.7,2c4.4,1.3,8.3,3.4,11.6,6.2       c3.4,2.8,6,6.3,8,10.4c1.9,4.1,2.9,9.1,2.9,14.8v5c0,5.6-1,10.5-3,14.7c-2,4.2-4.7,7.7-8.1,10.6c-3.4,2.9-7.4,5-11.9,6.3       c-4.5,1.3-9.3,1.9-14.4,1.9H904c-5.2,0-10-0.6-14.5-1.9c-4.5-1.3-8.5-3.4-12-6.3c-3.5-2.9-6.2-6.5-8.2-10.6       c-2-4.2-3-9.1-3-14.7v-5c0-3.8-0.5-6.9-1.5-9.4c-1-2.5-2.5-4.4-4.7-5.6c-2.1-1.2-4.7-1.9-7.7-1.9H851c-3.1,0-5.7,0.6-7.9,1.9       c-2.1,1.3-3.7,3.3-4.8,6.1c-1.1,2.7-1.6,6.2-1.6,10.4V238c0,4.1,0.4,7.5,1.1,10.3s2.3,5.1,4.6,6.9c2.3,1.8,5.8,3.4,10.3,4.8       c4.5,1.4,10.6,2.8,18.2,4.2c9.2,1.6,16.8,3.3,22.6,5c5.8,1.7,10.3,3.7,13.4,6.1c3.2,2.3,5.3,5.1,6.5,8.3       c1.2,3.2,1.8,7,1.8,11.5H896c0-1.8-0.4-3.4-1.2-4.8c-0.8-1.4-2.3-2.7-4.5-3.8c-2.2-1.1-5.5-2.2-9.8-3.1       c-4.3-0.9-9.9-2-16.9-3.1C854.1,278.4,846.3,276.5,840.3,274.5z M924.3,218.8c0-3.5-0.7-6.6-2.2-9.2s-3.6-4.5-6.4-5.9       c-2.8-1.3-6-2-9.7-2h-2.2c-3.7,0-6.9,0.7-9.6,2c-2.7,1.3-4.8,3.3-6.4,5.8c-1.5,2.5-2.3,5.6-2.3,9.3v5c0,3.7,0.8,6.8,2.3,9.3       c1.5,2.5,3.6,4.5,6.4,5.9c2.7,1.4,6,2.1,9.8,2.1h2.2c3.6,0,6.8-0.7,9.6-2.1c2.8-1.4,4.9-3.3,6.4-5.8c1.5-2.5,2.2-5.6,2.2-9.4       V218.8z"></path><path class="st0" d="M1016.5,210.7c-3.2-4.7-8.6-7-16.1-7h-2.5c-7.4,0-12.7,2.3-16,7c-3.3,4.7-4.9,11.2-4.9,19.6V295h-19.3       v-64.7c0-15.1,3.5-26.3,10.5-33.7c7-7.4,16.9-11.1,29.7-11.1h2.5c12.7,0,22.5,3.7,29.6,11.1c7.1,7.4,10.6,18.7,10.6,33.7V295       h-19.3v-64.7C1021.3,221.9,1019.7,215.3,1016.5,210.7z"></path><path class="st0" d="M1127.7,261.3c0-2.8-0.6-5.2-1.7-7.3c-1.1-2.1-2.8-3.6-5-4.6c-2.2-1-4.9-1.5-8.3-1.5h-13.9v-16h13.9       c4.6,0,7.9-0.9,9.9-2.7c2-1.8,3.1-4.2,3.1-7.2c0-2.6-0.7-4.6-2-6.1s-3-2.8-5-3.8c-2-1-4.2-2-6.4-3c-2.2-1-4.4-2.3-6.6-3.9       c-2.1-1.6-3.8-3.9-5-6.9c-1.2-3-1.8-6.8-1.8-11.5h19.1c0,2.6,0.6,4.7,1.9,6.5c1.3,1.7,2.9,3.2,5,4.4c2.1,1.2,4.3,2.4,6.6,3.5       c2.3,1.1,4.5,2.4,6.5,4c2,1.5,3.7,3.4,5,5.7c1.3,2.3,2,5.2,2,8.8c0,3.8-0.9,7-2.6,9.8c-1.7,2.7-4.5,5-8.4,6.9v3.5       c4.2,1.9,7.4,4.7,9.6,8.2c2.2,3.5,3.3,7.9,3.3,13.1v3.1c0,10.6-3.8,18.7-11.5,24c-7.7,5.4-18.6,8.1-32.6,8.1h-2.5       c-9.4,0-17.5-1.3-24-3.8c-6.6-2.5-11.6-6.6-15-12.1c-3.4-5.5-5.1-12.7-5.1-21.4v-72.3h19.3v72.3c0,4.5,0.8,8.3,2.5,11.4       c1.7,3.1,4.3,5.4,8,6.9c3.7,1.5,8.4,2.3,14.4,2.3h2.5c9.2,0,15.6-1.5,19.3-4.4c3.7-3,5.6-7,5.6-12.2V261.3z"></path><path class="st0" d="M1219.8,210.7c-3.2-4.7-8.6-7-16.1-7h-2.5c-7.4,0-12.7,2.3-16,7c-3.3,4.7-4.9,11.2-4.9,19.6V295h-19.3       v-64.7c0-15.1,3.5-26.3,10.5-33.7c7-7.4,16.9-11.1,29.7-11.1h2.5c12.7,0,22.5,3.7,29.6,11.1c7.1,7.4,10.6,18.7,10.6,33.7V295       h-19.3v-64.7C1224.7,221.9,1223,215.3,1219.8,210.7z"></path></g></g></g><g><path class="st1" d="M469.4,114.7c0-3-1.1-5.4-3.4-7.1c-2.3-1.7-5.7-2.6-10.4-2.6h-10.5V94.1h10.6c2.9,0,5.3-0.4,7.1-1.2     c1.8-0.8,3.2-2,4.1-3.5c0.9-1.5,1.3-3.1,1.3-4.9v-1.3c0-2.2-0.5-4-1.6-5.5c-1.1-1.5-2.9-2.6-5.4-3.4c-2.5-0.8-6-1.2-10.4-1.2     V61.9c7.1,0,12.9,0.8,17.4,2.3c4.5,1.5,7.8,3.7,9.9,6.5c2.1,2.8,3.1,6.2,3.1,10.2v1.3c0,1.9-0.3,3.8-0.9,5.6     c-0.6,1.8-1.5,3.4-2.8,4.9c-1.3,1.5-3,2.8-5.3,4v2.7c3.5,1.6,6,3.7,7.7,6.2c1.6,2.5,2.5,5.5,2.5,9.2v1.7c0,5.2-1.3,9.4-3.8,12.6     c-2.5,3.2-6.1,5.6-10.6,7.1c-4.5,1.5-9.7,2.2-15.6,2.2h-2.2c-5.8,0-11-0.8-15.4-2.3c-4.5-1.5-7.9-4-10.4-7.6     c-2.5-3.5-3.7-8.3-3.7-14.2V110h12.7v4.3c0,3,0.6,5.4,1.8,7.3c1.2,1.9,3.1,3.3,5.5,4.2c2.5,0.9,5.6,1.4,9.4,1.4h2.2     c3.8,0,7-0.4,9.5-1.3c2.5-0.9,4.3-2.1,5.6-3.7c1.2-1.6,1.9-3.7,1.9-6.2V114.7z"></path><path class="st1" d="M513.9,124.4c-4.3-0.4-8-1.2-11-2.2c-3-1-5.3-2.5-7.1-4.6c-1.8-2.1-3.1-4.6-3.9-7.7c-0.8-3-1.2-6.7-1.2-11     V85.3c0-4.5,0.6-8.2,1.7-11.2c1.1-3,2.6-5.4,4.6-7.2c1.9-1.8,4.1-3.1,6.6-3.8c2.4-0.7,5-1.1,7.8-1.1h1.6c2.9,0,5.7,0.5,8.6,1.5     c2.9,1,5.5,3,7.9,5.8h3.3c2.2-2.8,4.5-4.7,7-5.8c2.5-1,5-1.6,7.5-1.6h1.6c2.5,0,5.1,0.5,7.8,1.6c2.7,1,5.1,3,7.3,5.8h3.3     c2.2-2.9,4.7-4.8,7.5-5.8c2.8-1,5.5-1.5,8.3-1.5h1.6c2.7,0,5.3,0.4,7.8,1.1c2.5,0.7,4.7,2,6.6,3.8c1.9,1.8,3.4,4.2,4.6,7.2     c1.1,3,1.7,6.7,1.7,11.2v14.2h-12.8V87.1c0-2.4-0.2-4.4-0.7-6c-0.5-1.6-1.2-2.9-2-4c-0.8-1-1.9-1.7-3.1-2.1     c-1.2-0.4-2.5-0.6-4-0.6H581c-1.9,0-3.5,0.4-5,1.2c-1.5,0.8-2.7,2.1-3.5,4c-0.8,1.9-1.3,4.4-1.3,7.5v12.5h-12.7V87.1     c0-3.1-0.4-5.6-1.2-7.5c-0.8-1.9-2-3.2-3.5-4c-1.5-0.8-3.2-1.2-5.1-1.2h-1.6c-1.9,0-3.6,0.4-5.1,1.2c-1.5,0.8-2.6,2.1-3.4,4     c-0.8,1.9-1.2,4.4-1.2,7.5v12.5h-12.8V87.1c0-3.1-0.4-5.6-1.2-7.5c-0.8-1.9-2-3.2-3.4-4c-1.5-0.8-3.2-1.2-5.1-1.2h-1.6     c-1.5,0-2.8,0.2-4,0.6c-1.2,0.4-2.2,1.1-3,2.1c-0.8,1-1.5,2.3-2,4c-0.5,1.6-0.7,3.6-0.7,6v10.7c0,2.5,0.2,4.6,0.7,6.3     c0.5,1.8,1.2,3.2,2.3,4.3c1.1,1.1,2.6,2,4.5,2.6s4.3,1,7.1,1.2l47.3,3.6c5.9,0.4,10.6,1.4,14,2.9c3.5,1.5,6,3.7,7.6,6.7     c1.6,3,2.4,7,2.4,12.1h-12.7c0-1.8-0.3-3.3-0.8-4.5c-0.5-1.2-1.5-2.1-2.8-2.8c-1.3-0.7-3.2-1.2-5.5-1.6c-2.4-0.4-5.4-0.7-9-1.1     L513.9,124.4z"></path><path class="st1" d="M657,80.4c-2.5-3.6-6.5-5.4-11.9-5.4h-2.2c-5.3,0-9.3,1.8-11.8,5.4c-2.5,3.6-3.8,8.7-3.8,15.3v41.7h-12.7     V95.7c0-11.2,2.5-19.6,7.4-25.3c5-5.7,11.9-8.5,20.9-8.5h2.2c9,0,16,2.8,21,8.5c5,5.7,7.5,14.1,7.5,25.3v41.7h-12.7V95.7     C660.8,89.1,659.6,84,657,80.4z"></path><path class="st1" d="M683.8,84.7c0-5.3,0.8-9.4,2.5-12.5s4.1-5.2,7.3-6.6c3.2-1.3,7-2,11.5-2h22c0.7,0,1.3-0.2,1.6-0.6     c0.3-0.4,0.5-0.9,0.5-1.7h12.7c0,2.8-0.3,5.3-0.9,7.5c-0.6,2.2-1.8,3.8-3.5,5c-1.7,1.2-4.2,1.7-7.5,1.7h-23.6     c-3.4,0-5.9,0.7-7.5,2.2c-1.6,1.4-2.4,4.1-2.4,8v10.9h3.2c2.2-1.9,4.9-3.4,7.9-4.3c3-0.9,6.3-1.4,9.7-1.4h2.1     c5.3,0,9.9,0.8,13.7,2.5c3.8,1.7,6.7,4.2,8.7,7.5s3,7.5,3,12.6v1.6c0,4.2-0.8,7.7-2.3,10.7c-1.5,3-3.6,5.4-6.3,7.2     c-2.7,1.8-5.8,3.1-9.4,4c-3.6,0.9-7.4,1.3-11.5,1.3h-2.1c-4,0-7.8-0.4-11.4-1.3c-3.6-0.9-6.7-2.2-9.4-4c-2.7-1.8-4.8-4.2-6.3-7.2     c-1.5-3-2.3-6.6-2.3-10.7V84.7z M731.8,113.6c0-2.9-0.7-5.2-2.1-7c-1.4-1.7-3.3-3-5.9-3.9c-2.5-0.9-5.3-1.3-8.5-1.3h-2.1     c-3.2,0-6,0.4-8.5,1.3c-2.5,0.9-4.5,2.2-5.9,3.9c-1.4,1.7-2.1,4.1-2.1,7v1.6c0,2.8,0.7,5.1,2.1,7c1.4,1.8,3.3,3.1,5.9,4     c2.5,0.8,5.3,1.2,8.5,1.2h2.1c3.2,0,6-0.4,8.5-1.2c2.5-0.8,4.5-2.1,5.9-4c1.4-1.8,2.1-4.1,2.1-7V113.6z"></path><path class="st1" d="M797.2,80.4c-2.5-3.6-6.5-5.4-11.9-5.4H783c-5.3,0-9.3,1.8-11.8,5.4c-2.5,3.6-3.8,8.7-3.8,15.3v41.7h-12.7     V95.7c0-11.2,2.5-19.6,7.4-25.3c5-5.7,11.9-8.5,20.9-8.5h2.2c9,0,16,2.8,21,8.5c5,5.7,7.5,14.1,7.5,25.3v41.7h-12.7V95.7     C800.9,89.1,799.7,84,797.2,80.4z"></path><path class="st1" d="M871.6,114.7c0-3-1.1-5.4-3.4-7.1c-2.3-1.7-5.7-2.6-10.4-2.6h-10.5V94.1h10.6c2.9,0,5.3-0.4,7.1-1.2     c1.8-0.8,3.2-2,4.1-3.5s1.3-3.1,1.3-4.9v-1.3c0-2.2-0.5-4-1.6-5.5c-1.1-1.5-2.9-2.6-5.4-3.4c-2.5-0.8-6-1.2-10.4-1.2V61.9     c7.1,0,12.9,0.8,17.4,2.3c4.5,1.5,7.8,3.7,9.9,6.5c2.1,2.8,3.1,6.2,3.1,10.2v1.3c0,1.9-0.3,3.8-0.9,5.6c-0.6,1.8-1.5,3.4-2.8,4.9     c-1.3,1.5-3,2.8-5.3,4v2.7c3.5,1.6,6,3.7,7.7,6.2c1.6,2.5,2.5,5.5,2.5,9.2v1.7c0,5.2-1.3,9.4-3.8,12.6c-2.5,3.2-6.1,5.6-10.6,7.1     c-4.5,1.5-9.7,2.2-15.6,2.2h-2.2c-5.8,0-11-0.8-15.4-2.3c-4.5-1.5-7.9-4-10.4-7.6c-2.5-3.5-3.7-8.3-3.7-14.2V110h12.7v4.3     c0,3,0.6,5.4,1.8,7.3c1.2,1.9,3.1,3.3,5.5,4.2c2.5,0.9,5.6,1.4,9.4,1.4h2.2c3.8,0,7-0.4,9.5-1.3c2.5-0.9,4.3-2.1,5.6-3.7     c1.2-1.6,1.9-3.7,1.9-6.2V114.7z"></path><path class="st1" d="M938.9,101.6c-1.1-2.1-2.5-3.8-4.3-5.2c-1.8-1.4-3.8-2.7-6-3.9c-2.2-1.2-4.3-2.5-6.5-4s-4.1-3.3-6-5.5     c-1.8-2.2-3.3-4.9-4.4-8.1c-1.1-3.2-1.6-7.3-1.6-12.1h12.9c0,3.5,0.6,6.4,1.7,8.6c1.1,2.3,2.6,4.2,4.4,5.7c1.8,1.6,3.8,3,5.9,4.3     c2.1,1.3,4.3,2.7,6.5,4.1c2.2,1.4,4.2,3.2,6,5.2c1.8,2,3.2,4.5,4.3,7.5c1.1,3,1.6,6.7,1.6,11.2c0,5.9-1.1,10.9-3.3,15.3     c-2.2,4.3-5.5,7.6-10,10c-4.4,2.4-9.8,3.6-16.3,3.6h-2.1c-6.6,0-12.1-1.2-16.5-3.6c-4.4-2.4-7.7-5.7-10-10     c-2.2-4.3-3.3-9.4-3.3-15.3v-8.1h13v7.6c0,3.7,0.7,6.8,2,9.2c1.3,2.4,3.2,4.2,5.7,5.3c2.5,1.2,5.5,1.7,9.1,1.7h2.1     c3.5,0,6.5-0.6,9-1.7c2.5-1.1,4.3-2.9,5.7-5.2c1.3-2.3,2-5.2,2-8.8C940.5,106.4,940,103.7,938.9,101.6z"></path></g></g></g></svg>