<?xml version="1.0" encoding="UTF-8"?>
<svg xmlns="http://www.w3.org/2000/svg" xmlns:xlink="http://www.w3.org/1999/xlink" width="1640" zoomAndPan="magnify" viewBox="0 0 1230 302.999993" height="404" preserveAspectRatio="xMidYMid meet" version="1.0">
  <defs>
    <g></g>
  </defs>
  <path fill="#025cff" d="M 111.765625 118.960938 L 158.382812 138.878906 L 121.679688 154.105469 L 95.417969 126.792969 C 106.167969 121.382812 111.617188 118.777344 111.765625 118.960938 M 246.5 136.339844 L 181.457031 12.417969 C 177.355469 4.605469 169.792969 0.03125 160.96875 0.03125 C 152.144531 0.03125 144.582031 4.605469 140.480469 12.417969 L 75.441406 136.339844 L 56.667969 172.105469 C 62.574219 182.339844 86.984375 175.160156 98.324219 170.894531 L 202.40625 131.800781 C 210.835938 129.234375 219.917969 132.839844 224.289062 140.488281 C 223.183594 142.882812 221.390625 144.898438 219.136719 146.28125 C 207.058594 153.082031 194.179688 158.351562 180.800781 161.984375 L 148.5625 228.21875 L 130.074219 234.46875 L 132.945312 179.03125 C 79.675781 192.691406 33.507812 218.234375 6.859375 267.15625 C 0.503906 281.921875 15.578125 302.820312 30.046875 298.796875 L 122.5 273.09375 C 148.808594 265.777344 173.128906 265.777344 199.4375 273.09375 L 292.015625 298.832031 C 306.816406 302.945312 322.390625 280.925781 314.242188 265.402344 Z M 246.5 136.339844 " fill-opacity="1" fill-rule="evenodd"></path>
  <g fill="#025cff" fill-opacity="1">
    <g transform="translate(387.115682, 224.461757)">
      <g>
        <path d="M 16.339844 -158.71875 C 13.304688 -158.71875 11.671875 -157.082031 11.671875 -154.050781 L 11.671875 -131.640625 C 11.671875 -128.609375 13.304688 -126.972656 16.339844 -126.972656 L 37.230469 -126.972656 C 21.941406 -121.023438 11.671875 -104.917969 11.671875 -80.527344 L 11.671875 -4.667969 C 11.671875 -1.632812 13.304688 0 16.339844 0 L 42.011719 0 C 45.046875 0 46.679688 -1.632812 46.679688 -4.667969 L 46.679688 -88.578125 C 52.285156 -75.15625 66.753906 -66.054688 88.695312 -66.054688 L 96.632812 -66.054688 C 99.664062 -66.054688 101.300781 -67.6875 101.300781 -70.722656 L 101.300781 -93.128906 C 101.300781 -96.164062 99.664062 -97.796875 96.632812 -97.796875 L 46.679688 -97.796875 L 46.679688 -126.972656 L 98.964844 -126.972656 C 102 -126.972656 103.632812 -128.609375 103.632812 -131.640625 L 103.632812 -154.050781 C 103.632812 -157.082031 102 -158.71875 98.964844 -158.71875 Z M 16.339844 -158.71875 "></path>
      </g>
    </g>
  </g>
  <g fill="#025cff" fill-opacity="1">
    <g transform="translate(496.311394, 224.461757)">
      <g>
        <path d="M 41.546875 0 C 44.582031 0 46.214844 -1.632812 46.214844 -4.667969 L 46.214844 -130.707031 C 46.214844 -154.75 33.84375 -170.386719 11.203125 -175.054688 L 11.203125 -4.667969 C 11.203125 -1.632812 12.835938 0 15.871094 0 Z M 41.546875 0 "></path>
      </g>
    </g>
  </g>
  <g fill="#025cff" fill-opacity="1">
    <g transform="translate(553.942485, 224.461757)">
      <g>
        <path d="M 22.640625 58.351562 C 47.617188 58.351562 63.253906 46.679688 73.058594 21.472656 L 121.839844 -105.265625 C 97.796875 -105.265625 81.925781 -93.363281 73.289062 -67.453125 L 60.6875 -29.410156 L 37.8125 -99.199219 C 36.878906 -101.765625 35.011719 -102.933594 32.445312 -102.933594 L 6.769531 -102.933594 C 3.269531 -102.933594 1.867188 -100.832031 3.035156 -97.566406 L 42.945312 7.46875 Z M 22.640625 58.351562 "></path>
      </g>
    </g>
  </g>
  <g fill="#025cff" fill-opacity="1">
    <g transform="translate(677.604311, 224.461757)">
      <g>
        <path d="M 111.800781 -97.796875 L 47.847656 -97.796875 L 47.847656 -154.050781 C 47.847656 -157.082031 46.214844 -158.71875 43.179688 -158.71875 L 17.503906 -158.71875 C 14.472656 -158.71875 12.835938 -157.082031 12.835938 -154.050781 L 12.835938 4.667969 C 33.144531 0 47.847656 -17.273438 47.847656 -46.449219 L 47.847656 -88.578125 C 53.449219 -75.15625 67.921875 -66.054688 89.863281 -66.054688 L 111.800781 -66.054688 L 111.800781 -4.667969 C 111.800781 -1.632812 113.4375 0 116.46875 0 L 142.144531 0 C 145.179688 0 146.8125 -1.632812 146.8125 -4.667969 L 146.8125 -163.386719 C 126.507812 -158.71875 111.800781 -141.445312 111.800781 -112.269531 Z M 111.800781 -97.796875 "></path>
      </g>
    </g>
  </g>
  <g fill="#025cff" fill-opacity="1">
    <g transform="translate(837.431375, 224.461757)">
      <g>
        <path d="M 66.289062 -106.667969 C 31.742188 -106.667969 6.300781 -84.960938 6.300781 -51.351562 C 6.300781 -17.273438 30.808594 3.734375 66.289062 3.734375 C 91.960938 3.734375 112.269531 -7.46875 120.4375 -30.808594 C 121.605469 -34.078125 119.738281 -36.179688 116.46875 -36.179688 L 90.5625 -36.179688 C 87.996094 -36.179688 86.59375 -34.777344 85.425781 -32.210938 C 82.625 -25.910156 75.859375 -21.238281 65.585938 -21.238281 C 52.515625 -21.238281 44.347656 -30.578125 43.414062 -44.8125 L 118.570312 -44.8125 C 121.605469 -44.8125 123.238281 -46.449219 123.238281 -49.484375 L 123.238281 -53.683594 C 123.238281 -87.761719 97.566406 -106.667969 66.289062 -106.667969 Z M 43.878906 -63.71875 C 45.863281 -74.925781 52.167969 -82.859375 65.121094 -82.859375 C 77.492188 -82.859375 85.425781 -74.925781 86.128906 -63.71875 Z M 43.878906 -63.71875 "></path>
      </g>
    </g>
  </g>
  <g fill="#025cff" fill-opacity="1">
    <g transform="translate(967.392935, 224.461757)">
      <g>
        <path d="M 41.546875 0 C 44.582031 0 46.214844 -1.632812 46.214844 -4.667969 L 46.214844 -130.707031 C 46.214844 -154.75 33.84375 -170.386719 11.203125 -175.054688 L 11.203125 -4.667969 C 11.203125 -1.632812 12.835938 0 15.871094 0 Z M 41.546875 0 "></path>
      </g>
    </g>
  </g>
  <g fill="#025cff" fill-opacity="1">
    <g transform="translate(1025.024026, 224.461757)">
      <g>
        <path d="M 81.460938 -106.667969 C 63.71875 -106.667969 49.132812 -98.964844 40.144531 -86.011719 C 34.425781 -95.929688 24.625 -102.464844 11.203125 -105.265625 L 11.203125 9.335938 C 11.203125 39.679688 23.574219 56.019531 46.214844 58.351562 L 46.214844 -9.804688 C 55.085938 -1.167969 67.222656 3.734375 81.460938 3.734375 C 111.800781 3.734375 132.808594 -18.90625 132.808594 -51.582031 C 132.808594 -84.027344 111.800781 -106.667969 81.460938 -106.667969 Z M 70.722656 -24.273438 C 56.484375 -24.273438 46.214844 -35.476562 46.214844 -51.351562 C 46.214844 -67.222656 56.484375 -78.425781 70.722656 -78.425781 C 84.960938 -78.425781 95.230469 -67.222656 95.230469 -51.351562 C 95.230469 -35.476562 84.960938 -24.273438 70.722656 -24.273438 Z M 70.722656 -24.273438 "></path>
      </g>
    </g>
  </g>
</svg>
