<svg xmlns="http://www.w3.org/2000/svg" width="138" height="45" viewBox="0 0 138 45" fill="none">
  <path d="M47.8369 4.31995C49.7785 4.31995 51.5754 4.33048 53.3723 4.31205C53.7724 4.30811 53.8896 4.58056 54.0555 4.82669C56.8515 8.96882 59.6461 13.1123 62.4421 17.2557C62.5764 17.4544 62.7146 17.6519 62.9187 17.9467C64.8959 15.0168 66.8428 12.133 68.7976 9.23601C68.5317 9.06358 68.3092 9.13466 68.1013 9.13334C66.4123 9.12676 64.7234 9.12939 63.0345 9.12939C62.7725 9.12939 62.5119 9.18467 62.5185 8.75559C62.5382 7.41832 62.5316 6.07973 62.5211 4.74246C62.5185 4.4621 62.6093 4.35944 62.8989 4.36075C66.2768 4.36997 69.6572 4.31337 73.0324 4.39234C75.0346 4.43973 76.1615 7.04451 74.9952 8.79639C73.1983 11.4973 71.3712 14.1784 69.5572 16.8674C68.3922 18.5943 67.2338 20.3238 66.0543 22.0401C65.8963 22.2691 65.8792 22.4337 66.028 22.6522C68.2224 25.8782 70.4234 29.1016 72.6046 32.3369C74.0434 34.4691 75.4519 36.6211 76.8802 38.76C77.4002 39.5392 77.9399 40.3039 78.5375 41.1726C76.5603 41.1726 74.6858 41.1687 72.81 41.1766C72.5217 41.1766 72.4493 40.9357 72.344 40.7804C70.2588 37.7044 68.1881 34.6179 66.1162 31.5313C65.1526 30.0954 64.1798 28.6659 63.2385 27.2155C62.9384 26.7522 62.762 26.7811 62.5001 27.23C62.1986 27.7459 61.8827 28.2592 61.5167 28.7291C61.2942 29.0147 61.3469 29.1832 61.576 29.3885C63.0542 30.7153 63.7019 32.4672 63.8283 34.3612C63.9547 36.2565 63.3123 38.0058 62.0907 39.476C61.0086 40.7777 59.658 41.7149 57.9585 42.0505C55.7786 42.4822 53.7487 42.2058 51.9361 40.808C49.7298 39.1062 48.7333 36.8673 48.8334 34.1019C48.8465 33.732 48.9439 33.6175 49.3178 33.6254C50.546 33.6518 51.7742 33.661 53.0023 33.6399C53.5263 33.6307 53.6619 33.7268 53.5381 34.3046C53.3078 35.3773 54.2648 37.1174 55.5035 37.353C56.8923 37.6175 58.0573 37.166 58.7062 36.0683C59.3052 35.0535 59.088 33.457 58.1889 32.4764C57.3451 31.5577 56.4855 30.6521 55.6141 29.7584C55.3337 29.4715 55.2363 29.2859 55.5114 28.8884C56.9541 26.8114 58.3442 24.6962 59.7765 22.6127C59.9357 22.381 59.8436 22.2902 59.7462 22.1138C59.0761 20.9042 58.2429 19.8026 57.4754 18.6588C54.4082 14.0915 51.324 9.53479 48.2476 4.97279C48.1291 4.79642 48.0198 4.61478 47.8342 4.31864L47.8369 4.31995Z" fill="#006BCE"/>
  <path d="M100.852 30.9311C101.014 30.2296 101.073 29.5307 100.787 28.8423C100.763 28.8067 100.74 28.7699 100.716 28.7344C100.688 27.7024 100.179 26.8495 99.584 26.0861C98.5625 24.7765 97.1697 24.0092 95.5427 23.6775C95.4808 23.6643 95.4124 23.6801 95.3479 23.6814C94.5493 23.6911 94.1504 23.3032 94.1513 22.5179C94.1513 21.5531 94.1921 20.5857 94.1368 19.6235C94.0999 19.001 94.2553 18.8022 94.9108 18.8259C96.1258 18.8693 97.2408 18.4837 98.2702 17.8203C99.2746 17.1727 99.688 16.1856 99.6327 15.0984C99.5669 13.8072 98.831 12.9477 97.5304 12.5068C95.0872 11.6802 92.569 11.1063 90.1521 10.1915C87.493 9.18464 85.9594 7.27482 85.3381 4.55684C85.2749 4.28043 85.3973 4.21594 85.6461 4.21726C87.0507 4.22384 88.454 4.23042 89.8586 4.21199C90.1152 4.20804 90.1877 4.35677 90.293 4.51472C91.2803 5.98756 92.7915 6.6154 94.4014 7.12609C96.0469 7.64862 97.7726 7.82236 99.405 8.40676C101.162 9.0346 102.651 10.0125 103.552 11.6381C104.374 13.1228 104.777 14.7062 104.464 16.5041C104.107 18.5403 103.166 20.0816 101.474 21.2543C103.09 22.4587 104.258 23.9644 104.955 25.7979C106.912 30.9509 105.233 36.6172 100.126 39.6497C98.3071 40.7303 96.3628 41.1752 94.2566 41.1344C92.0174 41.0896 90.0047 40.4579 88.192 39.1522C85.5579 37.2542 83.8545 34.7468 83.5123 31.4984C83.3214 29.6939 83.453 27.8564 83.4359 26.0335C83.4333 25.761 83.5886 25.715 83.8177 25.7176C85.1551 25.7334 86.4939 25.7531 87.8313 25.7479C88.2249 25.7466 88.2262 25.9571 88.2315 26.248C88.2631 27.8262 88.0841 29.4148 88.321 30.9785C88.7133 33.5701 90.2719 35.2641 92.7098 36.0722C95.573 37.0212 98.311 35.709 99.8315 33.4767C100.284 32.812 100.785 32.0986 100.719 31.2009C100.763 31.1128 100.81 31.0259 100.854 30.9377L100.852 30.9311Z" fill="#006BCE"/>
  <path d="M115.173 17.9506C115.173 13.6097 115.18 9.26886 115.162 4.92798C115.159 4.42651 115.27 4.24355 115.807 4.2633C116.968 4.30542 118.132 4.30542 119.293 4.2633C119.84 4.24355 119.988 4.40545 119.985 4.95168C119.965 10.3666 119.963 15.7828 119.977 21.1977C119.985 24.4408 120.023 27.684 120.067 30.9271C120.081 32.0407 120.576 33.0068 121.223 33.8597C122.09 35.0048 123.214 35.8603 124.628 36.2341C126.529 36.7369 128.34 36.4921 129.95 35.3325C131.897 33.9307 132.75 31.9643 132.732 29.5899C132.724 28.4724 132.745 27.3536 132.719 26.2362C132.709 25.8321 132.832 25.7097 133.239 25.7176C134.51 25.7426 135.783 25.7413 137.053 25.7176C137.462 25.7097 137.581 25.84 137.569 26.2401C137.519 27.967 137.664 29.7031 137.429 31.4207C137.114 33.7201 136.211 35.7655 134.639 37.5003C133.19 39.0995 131.463 40.2486 129.371 40.8277C126.362 41.6595 123.476 41.3687 120.795 39.755C118.02 38.086 116.152 35.7116 115.442 32.4908C115.212 31.4444 115.149 30.3914 115.148 29.3293C115.142 25.5359 115.146 21.7439 115.146 17.9506H115.173Z" fill="#006BCE"/>
  <path d="M13.9663 33.916C14.2677 30.1556 15.9408 27.2941 19.4424 25.6304C19.8321 25.4448 20.119 25.4541 20.5034 25.7436C21.4012 26.4162 22.3937 26.9322 23.5864 26.6729C23.9115 26.6018 24.0103 26.794 24.1116 27.0177C25.6649 30.4267 28.3175 32.5432 31.8743 33.5698C32.3087 33.6949 32.1402 33.9778 32.131 34.1819C32.0678 35.5981 31.7032 36.9367 31.0108 38.1792C29.2666 41.3092 26.6259 43.4283 23.4218 44.9143C23.2099 45.013 23.0269 45.0354 22.8005 44.9327C18.5631 43.0137 15.4524 40.0548 14.1532 35.4678C14.0176 34.9913 13.8846 34.4583 13.9676 33.9147L13.9663 33.916Z" fill="#006BCE"/>
  <path d="M34.4414 31.6197C32.3931 31.4604 30.5291 30.8957 28.8573 29.5769C27.5436 28.541 26.7471 27.2117 26.0139 25.7875C25.9139 25.5927 26.0073 25.5019 26.1298 25.3492C26.9288 24.3502 27.4172 23.2327 27.2421 21.9192C27.1895 21.5217 27.508 21.5348 27.7068 21.4414C29.5589 20.5674 31.1057 19.3236 32.3076 17.6638C33.1171 16.5477 33.7069 15.3144 34.0597 13.9837C34.1544 13.6297 34.2808 13.5691 34.6125 13.5586C36.7345 13.4849 38.5235 14.3496 40.1979 15.5197C42.1041 16.8504 43.5179 18.626 44.7 20.6043C45.008 21.1202 45.1791 21.7046 45.5267 22.2061C45.6478 22.3825 45.6004 22.672 45.4938 22.9037C43.8062 26.5838 41.2537 29.4268 37.4625 30.9971C36.5239 31.3854 35.5156 31.7105 34.4414 31.6197Z" fill="#006BCE"/>
  <path d="M11.7509 13.4348C15.4184 13.6072 18.1512 15.2985 19.852 18.6167C20.1034 19.1063 20.0915 19.5262 19.7414 20.0066C19.0819 20.9122 18.629 21.9085 18.9423 23.0839C19.0279 23.4064 18.7422 23.4314 18.5698 23.5143C17.622 23.9684 16.7019 24.4594 15.887 25.1372C14.801 26.0388 13.8453 27.0536 13.1753 28.3001C12.6869 29.2096 12.1906 30.1217 12.0379 31.1747C11.9826 31.5498 11.6772 31.6512 11.3073 31.6051C8.79039 31.2984 6.61968 30.2625 4.76489 28.5383C3.03912 26.9338 1.6477 25.0938 0.678842 22.9365C0.527458 22.6009 0.539306 22.31 0.684108 22.0099C2.27825 18.6772 4.53848 15.9711 7.91895 14.3179C9.11554 13.7335 10.3898 13.4782 11.7523 13.4321L11.7509 13.4348Z" fill="#006BCE"/>
  <path d="M32.1761 11.2366C31.8825 15.0272 30.1146 17.7386 26.7131 19.3563C26.3326 19.5379 26.0496 19.5168 25.71 19.226C24.8925 18.5257 23.9105 18.2217 22.8416 18.3191C22.3861 18.3612 22.1952 18.2125 22.0083 17.8137C20.509 14.6153 18.0552 12.4896 14.6511 11.5498C13.8928 11.3405 13.9033 10.9246 13.9929 10.4192C14.9012 5.32544 18.2632 2.28235 22.6547 0.109283C22.9456 -0.0341843 23.2628 -0.0355005 23.5459 0.100069C27.5477 2.00068 30.6543 4.73972 31.9009 9.16746C32.0931 9.84795 32.0944 10.5824 32.1774 11.2366H32.1761Z" fill="#006BCE"/>
  <path d="M100.852 30.9312C100.807 31.0193 100.761 31.1075 100.716 31.1944C100.68 31.0654 100.696 30.9627 100.852 30.9312Z" fill="#006BCE"/>
  <path d="M100.716 28.7344C100.74 28.7712 100.764 28.8068 100.788 28.8423C100.764 28.8055 100.74 28.7699 100.716 28.7344Z" fill="#006BCE"/>
</svg>