<svg width="149" height="35" viewBox="0 0 149 35" fill="none" xmlns="http://www.w3.org/2000/svg">
<path d="M26.1957 17.519L13.1172 26.259V34.999L26.1957 26.259V17.519Z" fill="#232F47"/>
<path d="M13.1172 26.259L26.1957 17.519V8.73999L13.1172 17.519V26.259Z" fill="#F15A29"/>
<path d="M0 26.259L13.1174 34.999V26.259L0 17.519V26.259Z" fill="#BCBEC0"/>
<path d="M0 0V8.74L13.1174 17.519V8.74L0 0Z" fill="#FBB040"/>
<path d="M100.504 10.0551C99.8247 10.0233 99.1461 10.1314 98.5101 10.3727C97.8741 10.614 97.2941 10.9835 96.8061 11.4582C96.318 11.9329 95.9322 12.5028 95.6724 13.1328C95.4126 13.7628 95.2844 14.4395 95.2956 15.1211V24.6731H98.459V15.1211C98.4506 14.8548 98.4986 14.5898 98.6 14.3435C98.7014 14.0973 98.8538 13.8754 99.0471 13.6926C99.2405 13.5097 99.4703 13.3701 99.7214 13.283C99.9726 13.1959 100.239 13.1632 100.504 13.1871C100.772 13.1485 101.044 13.1709 101.302 13.2527C101.56 13.3345 101.796 13.4735 101.992 13.6594C102.189 13.8454 102.341 14.0733 102.437 14.3264C102.534 14.5795 102.572 14.8512 102.549 15.1211V24.6731H105.712V15.1211C105.731 14.4374 105.608 13.7573 105.351 13.1238C105.094 12.4903 104.708 11.9172 104.219 11.441C103.729 10.9647 103.146 10.5956 102.507 10.357C101.867 10.1185 101.185 10.0156 100.504 10.0551Z" fill="#232F47"/>
<path d="M85.9576 14.8117C85.3931 14.8041 84.8316 14.8958 84.2986 15.0827C84.7226 14.1157 85.6873 13.2267 87.7713 13.2267V10.0547H87.3084C84.0672 10.2097 80.7881 12.1817 80.7881 17.2867V24.6347H83.9515V19.9167C83.9431 19.6504 83.9911 19.3854 84.0925 19.1391C84.1939 18.8928 84.3463 18.671 84.5396 18.4881C84.733 18.3053 84.9628 18.1657 85.2139 18.0786C85.4651 17.9915 85.7318 17.9588 85.9965 17.9827C86.2641 17.9441 86.5368 17.9665 86.7945 18.0483C87.0521 18.1301 87.288 18.2691 87.4846 18.455C87.6812 18.6409 87.8334 18.8689 87.9298 19.122C88.0263 19.3751 88.0645 19.6467 88.0416 19.9167V24.6737H91.205V19.9167C91.2196 19.2292 91.0927 18.5462 90.8321 17.9101C90.5715 17.2741 90.1828 16.6988 89.6903 16.2202C89.1978 15.7415 88.6122 15.3698 87.9699 15.1284C87.3277 14.8869 86.6426 14.7808 85.9576 14.8167" fill="#232F47"/>
<path d="M54.2064 10.055C53.5004 10.0471 52.8004 10.1846 52.1495 10.4588C51.4987 10.7331 50.911 11.1384 50.4227 11.6496C49.9345 12.1607 49.5561 12.7669 49.311 13.4306C49.066 14.0943 48.9594 14.8014 48.9979 15.508V16.243H52.1613V15.508C52.1348 15.2162 52.1686 14.9219 52.2609 14.6438C52.3531 14.3657 52.5017 14.1097 52.6972 13.8919C52.8928 13.6741 53.1312 13.4991 53.3974 13.378C53.6636 13.2568 53.952 13.1922 54.2443 13.188C56.2505 13.188 56.3273 15.47 56.3273 15.508V19.375C56.3273 21.889 54.8229 21.889 54.2443 21.889C52.5484 21.889 52.1992 20.535 52.1992 19.375V18.718L49.0358 18.679V19.414C49.0358 22.814 51.1188 25.099 54.2443 25.099C57.4077 25.099 59.4527 22.856 59.4527 19.414V15.547C59.474 14.8396 59.3545 14.1349 59.1013 13.4743C58.8481 12.8136 58.4661 12.21 57.9778 11.6988C57.4895 11.1876 56.9045 10.779 56.257 10.4968C55.6095 10.2146 54.9124 10.0644 54.2064 10.055Z" fill="#232F47"/>
<path d="M134.687 16.3984H131.523V19.3764C131.523 20.5364 131.176 21.8904 129.44 21.8904C128.862 21.8904 127.357 21.8904 127.357 19.3764V10.4424H124.193V19.3764C124.193 22.8184 126.238 25.0614 129.401 25.0614C132.527 25.0614 134.61 22.7794 134.61 19.3764C134.687 19.1054 134.687 16.3984 134.687 16.3984Z" fill="#232F47"/>
<path d="M116.592 11.9504H115.395C114.689 11.9425 113.989 12.0799 113.338 12.3542C112.687 12.6285 112.099 13.0338 111.611 13.5449C111.123 14.0561 110.745 14.6623 110.499 15.326C110.254 15.9897 110.148 16.6967 110.186 17.4034H113.35C113.323 17.1115 113.357 16.8173 113.449 16.5392C113.542 16.2611 113.69 16.0051 113.886 15.7873C114.081 15.5694 114.32 15.3945 114.586 15.2733C114.852 15.1522 115.14 15.0875 115.433 15.0834H116.63V19.3764C116.63 21.8904 115.125 21.8904 114.547 21.8904C112.851 21.8904 112.502 20.5364 112.502 19.3764V18.7964L109.338 18.7194V19.3764C109.338 22.7764 111.421 25.0614 114.547 25.0614C117.71 25.0614 119.755 22.8184 119.755 19.3764V10.4424H116.592V11.9504Z" fill="#232F47"/>
<path d="M71.6445 11.873V10.21H68.4811V11.873C66.8439 12.2057 65.3916 13.1442 64.4134 14.5017C63.4353 15.8592 63.0029 17.5361 63.2024 19.1987C63.4018 20.8613 64.2185 22.3876 65.4899 23.4739C66.7612 24.5602 68.394 25.1268 70.0633 25.061C71.7326 25.1268 73.3654 24.5602 74.6367 23.4739C75.9081 22.3876 76.7248 20.8613 76.9242 19.1987C77.1237 17.5361 76.6913 15.8592 75.7132 14.5017C74.735 13.1442 73.2827 12.2057 71.6455 11.873M70.0633 21.928C69.1034 21.9521 68.1726 21.5964 67.4723 20.9378C66.772 20.2792 66.3585 19.3708 66.3213 18.409C66.3323 17.7215 66.5424 17.0521 66.926 16.4822C67.3096 15.9123 67.8503 15.4664 68.4821 15.199V19.066H71.6455V15.199C72.2773 15.4664 72.818 15.9123 73.2016 16.4822C73.5852 17.0521 73.7953 17.7215 73.8063 18.409C73.7691 19.3708 73.3556 20.2792 72.6553 20.9378C71.955 21.5964 71.0242 21.9521 70.0643 21.928" fill="#232F47"/>
<path d="M39.2753 10.0548C38.4298 10.0385 37.5904 10.2025 36.8129 10.5359C36.0354 10.8693 35.3374 11.3646 34.7652 11.9888L36.9599 14.2318C37.2364 13.8874 37.5902 13.6133 37.9924 13.4319C38.3946 13.2505 38.8338 13.1668 39.2743 13.1878C39.8919 13.1878 41.2416 13.1878 41.3194 15.2758C40.537 14.938 39.6837 14.7981 38.8346 14.8686C37.9856 14.939 37.1668 15.2176 36.4504 15.6798C35.734 16.1419 35.1419 16.7736 34.7263 17.5191C34.3107 18.2645 34.0842 19.101 34.0669 19.9548C34.0936 21.3218 34.6541 22.6238 35.6279 23.5811C36.6018 24.5384 37.9114 25.0746 39.2753 25.0746C40.6393 25.0746 41.9489 24.5384 42.9228 23.5811C43.8966 22.6238 44.4571 21.3218 44.4838 19.9548V15.5078C44.4838 12.1818 42.4387 10.0548 39.2753 10.0548ZM39.2753 21.9278C38.9002 21.8988 38.5417 21.7608 38.2437 21.5307C37.9456 21.3006 37.721 20.9884 37.5972 20.6322C37.4735 20.2761 37.4561 19.8915 37.5471 19.5256C37.6381 19.1597 37.8335 18.8283 38.1095 18.572C38.3855 18.3158 38.7301 18.1457 39.101 18.0828C39.472 18.0198 39.8532 18.0666 40.198 18.2175C40.5427 18.3684 40.8361 18.6168 41.0422 18.9323C41.2483 19.2478 41.3582 19.6167 41.3583 19.9938C41.3342 20.5259 41.1022 21.027 40.7124 21.3889C40.3226 21.7508 39.8064 21.9444 39.2753 21.9278Z" fill="#232F47"/>
<path d="M143.792 10.0551C143.112 10.0233 142.434 10.1314 141.798 10.3727C141.162 10.614 140.582 10.9835 140.094 11.4582C139.606 11.9329 139.22 12.5028 138.96 13.1328C138.7 13.7628 138.572 14.4395 138.583 15.1211V24.6731H141.747V15.1211C141.738 14.8548 141.786 14.5898 141.888 14.3435C141.989 14.0973 142.141 13.8754 142.335 13.6926C142.528 13.5097 142.758 13.3701 143.009 13.283C143.26 13.1959 143.527 13.1632 143.792 13.1871C144.059 13.1485 144.332 13.1709 144.59 13.2527C144.847 13.3345 145.083 13.4735 145.28 13.6594C145.476 13.8454 145.628 14.0733 145.725 14.3264C145.821 14.5795 145.86 14.8512 145.837 15.1211V24.6731H149V15.1211C149.019 14.4374 148.896 13.7573 148.639 13.1238C148.382 12.4903 147.996 11.9172 147.506 11.441C147.017 10.9647 146.434 10.5956 145.794 10.357C145.155 10.1185 144.473 10.0156 143.792 10.0551Z" fill="#232F47"/>
</svg>
