<svg width="192" height="192" viewBox="0 0 192 192" fill="none" xmlns="http://www.w3.org/2000/svg">
<rect width="192" height="192" rx="24" fill="white"/>
<path d="M89.5312 26.0628C81.8625 26.7565 74.8687 29.1003 71.4187 32.1565C70.5562 32.9253 69.375 34.3315 69.375 34.594C69.375 34.744 70.2937 34.8565 72.4312 34.9315C81.9937 35.3065 91.9875 37.069 100.406 39.8628C115.856 44.9815 128.006 54.169 136.181 66.9003C140.737 74.0065 144.169 82.8753 145.444 90.7878C145.856 93.3753 145.912 93.1315 146.269 87.8628C146.662 81.6565 146.306 73.7065 145.387 68.344C141.356 44.7753 125.456 29.4753 101.719 26.344C99.0375 25.9878 92.1562 25.8378 89.5312 26.0628Z" fill="black"/>
<path d="M70.1251 42.5815C63.7689 43.0315 57.9751 44.6065 52.4064 47.419C47.7001 49.8003 44.0251 52.4815 40.2189 56.344C32.3064 64.3503 26.8126 75.2628 24.8064 87.0003C24.3376 89.7565 24.3189 96.769 24.7876 98.8503C25.2189 100.8 26.0064 102.732 26.7751 103.8C27.5251 104.832 27.4314 104.925 28.4626 102.188C31.1814 94.969 35.4564 86.569 39.4314 80.6253C44.6064 72.8815 51.3189 65.869 58.1814 61.069C65.3251 56.0628 73.4814 52.519 81.7689 50.8315C86.6252 49.8378 89.0627 49.6128 94.9689 49.6128C99.8439 49.6128 100.969 49.6503 103.444 50.0253C105.019 50.2503 106.463 50.494 106.631 50.5315C107.325 50.7378 104.063 49.2378 101.906 48.3753C93.3939 44.9815 85.5939 43.1065 77.8126 42.5628C74.7564 42.3565 73.2564 42.3565 70.1251 42.5815Z" fill="black"/>
<path d="M148.69 51.9376C148.69 52.0501 148.952 53.0251 149.252 54.0939C151.896 63.1689 153.377 73.2376 153.377 82.2189C153.377 93.9189 151.165 103.875 146.421 113.438C143.29 119.738 139.615 124.8 134.365 130.031C129.565 134.794 124.877 138.281 119.065 141.356C117.883 141.994 117.171 142.463 117.471 142.388C120.115 141.844 125.421 140.381 128.346 139.406C139.277 135.769 147.658 130.838 154.24 124.2C161.908 116.438 166.24 107.156 167.458 95.8126C167.74 93.2626 167.571 85.5001 167.177 82.9314C165.827 74.1001 162.902 66.2439 158.59 59.8689C157.165 57.7689 154.708 55.0501 153.152 53.8689C151.352 52.4814 148.69 51.3376 148.69 51.9376Z" fill="black"/>
<path d="M76.5201 68.2693C74.0076 68.7193 72.2076 70.0881 71.4388 72.1506C70.9701 73.3881 70.7076 76.1256 71.0451 76.1256C71.4576 76.1256 72.4513 75.5256 73.9326 74.4006C74.7201 73.8006 75.3763 73.3506 75.3763 73.4068C75.3763 73.6506 74.7201 74.7756 74.1763 75.4506C72.9951 76.9131 70.1826 78.6756 67.3326 79.7068C66.2451 80.0818 66.1888 80.1381 66.5826 80.3068C67.1638 80.5131 69.4513 80.3443 70.9138 79.9506C72.5826 79.5193 74.4201 78.6756 77.2513 76.9881C80.2138 75.2256 81.7513 74.5506 83.4388 74.2318C86.5326 73.6693 88.7076 75.5818 89.5888 79.6318C89.8701 80.9443 89.8701 81.1506 89.5701 82.5756C88.9888 85.4631 86.7763 89.0631 82.8576 93.5818C81.9951 94.5756 80.0263 96.7881 78.4701 98.5131C71.5513 106.257 68.6263 111.657 68.6263 116.719C68.6263 119.719 69.6013 121.951 71.9826 124.332C75.1513 127.501 79.6326 129.563 85.6326 130.613C88.0138 131.026 88.9513 131.101 92.3451 131.101C97.8013 131.101 101.345 130.538 106.295 128.888C115.708 125.757 123.133 119.269 126.751 111.019C127.426 109.463 128.064 107.776 128.064 107.551C128.064 107.438 127.633 107.851 127.108 108.432C125.083 110.701 120.189 113.851 116.514 115.238C115.351 115.669 112.689 116.307 112.689 116.138C112.689 116.101 113.083 115.857 113.589 115.576C118.426 112.782 122.251 108.451 125.176 102.469C127.258 98.1943 128.776 92.7193 129.414 87.2818C129.676 84.9756 129.714 78.0381 129.489 76.5943L129.339 75.6568L128.908 77.1568C127.501 82.2006 124.033 87.8631 119.964 91.8006C118.239 93.4881 116.833 94.6881 116.589 94.6881C116.514 94.6881 116.701 94.2756 117.001 93.7693C118.876 90.7318 120.901 85.1068 121.783 80.4943C122.214 78.2443 122.12 78.1506 121.201 79.8756C119.851 82.4068 118.408 84.2818 115.783 86.9256C111.658 91.0693 108.001 93.5068 98.1951 98.5693C91.6138 101.963 88.8763 103.501 86.5326 105.057C81.6951 108.263 78.8263 111.226 76.5951 115.332C75.8076 116.757 75.7326 116.832 75.8451 116.157C76.2763 113.569 78.8263 109.238 83.9826 102.376C87.9201 97.1443 89.5326 94.6131 91.2013 91.1068C93.4138 86.4381 94.2388 82.5756 93.6763 79.3506C92.6263 73.2756 88.9138 69.5256 82.8388 68.4568C81.2076 68.1756 77.6638 68.0631 76.5201 68.2693Z" fill="black"/>
<path d="M52.4641 75.3938C45.4891 83.5876 40.4453 91.7813 37.6328 99.5626C35.3453 105.881 34.4453 110.813 34.4453 117C34.4453 126.994 37.4453 136.013 43.6891 144.75C50.8328 154.744 62.4953 163.05 72.9391 165.563C75.3203 166.144 79.2766 166.2 80.7766 165.694C81.3016 165.506 81.7516 165.281 81.7516 165.188C81.7516 165.113 80.9266 164.381 79.9328 163.575C76.7266 161.025 74.0641 158.644 70.8953 155.55C61.5953 146.4 55.3516 137.306 51.2266 126.938C44.6641 110.475 45.5078 91.2188 53.4578 75.3188C54.0766 74.1188 54.5266 73.1251 54.4891 73.1251C54.4516 73.1251 53.5328 74.1563 52.4641 75.3938Z" fill="black"/>
<path d="M61.8769 131.719C62.9644 133.575 66.3394 138.563 67.8581 140.569C83.0456 160.725 102.302 168.788 122.871 163.575C135.996 160.256 149.139 150.994 155.177 140.756C156.246 138.956 157.164 136.781 157.502 135.281C157.727 134.288 157.821 132.075 157.652 131.906C157.596 131.85 156.227 132.675 154.614 133.763C143.008 141.581 131.552 146.588 120.096 148.856C115.071 149.85 112.558 150.094 106.877 150.075C101.533 150.056 99.5081 149.888 95.0644 149.044C83.4206 146.813 71.9831 140.944 63.2831 132.731C61.7269 131.25 61.5019 131.081 61.8769 131.719Z" fill="black"/>
</svg>
