<svg id="Layer_1" data-name="Layer 1" xmlns="http://www.w3.org/2000/svg" viewBox="12.5 10 118.69 31.49"><defs><style>.cls-1{fill:#0d2745;}</style></defs><title>logo-eng</title><path class="cls-1" d="M58.68,22a4,4,0,0,0-4.32,4.18,4,4,0,0,0,4.32,4.17A4,4,0,0,0,63,26.19,4,4,0,0,0,58.68,22m0,7.64C57.45,29.65,56,29,56,26.19s1.45-3.47,2.65-3.47,2.57.76,2.57,3.47-1.43,3.46-2.57,3.46"/><path class="cls-1" d="M96.84,29.6c-1.41,0-3-1.09-3-3.45s1.32-3.44,2.75-3.44a2.07,2.07,0,0,1,.35,0c.57.16,1.65,1.54,1.65,1.54l.9-1.48a4.9,4.9,0,0,0-2.9-.82,4.15,4.15,0,0,0-4.43,4.24c0,3.21,2.57,4.17,4.37,4.17a4.18,4.18,0,0,0,2.69-.79l-.43-.68a2.63,2.63,0,0,1-2,.68"/><path class="cls-1" d="M128.27,29.6c-1.42,0-3-1.09-3-3.45s1.31-3.44,2.74-3.44a2,2,0,0,1,.35,0c.57.16,1.66,1.54,1.66,1.54l.9-1.48a4.91,4.91,0,0,0-2.91-.82,4.15,4.15,0,0,0-4.43,4.24c0,3.21,2.57,4.17,4.38,4.17a4.13,4.13,0,0,0,2.68-.79l-.42-.68a2.63,2.63,0,0,1-2,.68"/><path class="cls-1" d="M47.4,22.21v1.1A1.75,1.75,0,0,1,48.57,23H50v6.16c0,.93-.35,1-.35,1h2.24s-.35-.11-.35-1V23h1.38a1.75,1.75,0,0,1,1.17.34v-1.1Z"/><path class="cls-1" d="M104.28,29.42h-1.62V23.25c0-.93.35-1,.35-1h-2.27s.35.1.35,1v6.91h5.16v-1a7.42,7.42,0,0,1-2,.3"/><path class="cls-1" d="M78.28,22.21s.25.11.25,1v4.07a1.87,1.87,0,0,1-2,2.08c-2,0-1.94-2-1.94-2.25v-3.9h0c0-.93.35-1,.35-1H72.68s.35.12.35,1v4.12c0,1.53.69,3,3.36,3a2.93,2.93,0,0,0,3-2.94V23.25c0-.92.25-1,.25-1Z"/><path class="cls-1" d="M87.66,30.16s-.4-.11-.76-1h0l-2.37-6.91H82.16s.31.09.6.76l-2.47,7.18h.83l.81-2.43h2.84l.5,1.58c.23.77,0,.86,0,.86ZM82.17,27l1.16-3.44h.11L84.54,27Z"/><path class="cls-1" d="M67,22.21h-3s.35.11.35,1v5.88c0,.92-.35,1-.35,1h2.52c.41,0,4.88.14,4.88-4.11,0-3.5-3.77-3.84-4.42-3.84m-1.1,6.28V23h.76a3,3,0,0,1,3.07,3.15,3,3,0,0,1-2,3.16c-.9.33-1.86.09-1.86-.79"/><path class="cls-1" d="M109.24,29.12V23.25c0-.93.35-1,.35-1h-2.25s.36.1.36,1v5.87c0,.93-.36,1-.36,1h2.25s-.35-.11-.35-1"/><path class="cls-1" d="M122,29.12V23.25c0-.93.35-1,.35-1h-2.25s.35.1.35,1v5.87c0,.93-.35,1-.35,1h2.25s-.35-.11-.35-1"/><path class="cls-1" d="M117.27,22.21s.24.12.24,1v5.21l-5-6.22h-1.18v6.94c0,.91-.24,1-.24,1h1.27s-.24-.11-.24-1V24.22l4.75,5.94h1.4V23.22c0-.9.24-1,.24-1Z"/><path class="cls-1" d="M21.35,14.34,21,13.5a.23.23,0,0,0-.29-.1c-.3.15-.6.31-.88.47a.21.21,0,0,0-.07.3L22,17.84a.06.06,0,0,0,.12,0c0-.16,0-.4,0-.72a7.51,7.51,0,0,0-.71-2.75"/><path class="cls-1" d="M21.52,20.59l-4.29-4.5a.2.2,0,0,0-.3,0q-.36.35-.69.72a.23.23,0,0,0,0,.31l4.8,4a.14.14,0,0,0,.2,0l.26-.34a.14.14,0,0,0,0-.18"/><path class="cls-1" d="M19.32,22.17l-4.75-2.55a.21.21,0,0,0-.29.09q-.22.43-.42.9a.21.21,0,0,0,.12.28l1.92.77a7.69,7.69,0,0,0,2.32.54c.34,0,.72.05,1.06.09a.06.06,0,0,0,0-.12"/><path class="cls-1" d="M31.58,29.48,31,29.29a.25.25,0,0,0-.26.06A8.48,8.48,0,0,0,29.55,31a9.5,9.5,0,0,0-.72,4.2c0,1.48.18,4.09.25,4.88a.22.22,0,0,0,.25.19c.35-.06.71-.13,1.05-.22a.2.2,0,0,0,.16-.23c-.1-.67-.42-2.85-.53-4.69a9.09,9.09,0,0,1,.37-3.69,8.33,8.33,0,0,1,1.24-1.8.08.08,0,0,0,0-.13"/><path class="cls-1" d="M32.59,38l.39.84a.22.22,0,0,0,.29.1c.3-.15.59-.3.87-.47a.22.22,0,0,0,.08-.3L32,34.53a.07.07,0,0,0-.13,0c0,.16,0,.4,0,.72A7.93,7.93,0,0,0,32.59,38"/><path class="cls-1" d="M32.42,31.78l4.3,4.5a.2.2,0,0,0,.3,0c.24-.23.46-.47.68-.72a.22.22,0,0,0,0-.31l-4.81-4a.14.14,0,0,0-.2,0l-.26.34a.15.15,0,0,0,0,.18"/><path class="cls-1" d="M34.63,30.2l4.74,2.55a.22.22,0,0,0,.3-.09q.22-.44.42-.9a.22.22,0,0,0-.12-.28L38,30.71a7.69,7.69,0,0,0-2.32-.54c-.34,0-.71-.05-1-.09a.06.06,0,0,0,0,.12"/><path class="cls-1" d="M31.76,23.61a9.48,9.48,0,0,0,4.2.72c1.47,0,4.08-.18,4.88-.26a.21.21,0,0,0,.19-.24c-.06-.36-.14-.71-.22-1a.21.21,0,0,0-.24-.16c-.66.1-2.85.42-4.69.53a9.22,9.22,0,0,1-3.68-.37,8.7,8.7,0,0,1-1.8-1.24.08.08,0,0,0-.13,0c0,.13-.1.3-.19.54a.26.26,0,0,0,.06.27,8.57,8.57,0,0,0,1.62,1.22"/><path class="cls-1" d="M38.82,20.57l.83-.39a.22.22,0,0,0,.11-.29c-.15-.3-.31-.59-.48-.88a.21.21,0,0,0-.29-.07l-3.68,2.25a.07.07,0,0,0,0,.12c.16,0,.4,0,.72,0a7.7,7.7,0,0,0,2.75-.7"/><path class="cls-1" d="M32.57,20.73l4.5-4.29a.21.21,0,0,0,0-.3,9.2,9.2,0,0,0-.72-.68.22.22,0,0,0-.31,0l-4,4.81a.12.12,0,0,0,0,.19l.34.26a.14.14,0,0,0,.18,0"/><path class="cls-1" d="M32.27,13.19l-.77,1.93A7.7,7.7,0,0,0,31,17.43c0,.34-.05.72-.09,1.06a.06.06,0,0,0,.12,0l2.55-4.74a.22.22,0,0,0-.09-.3q-.44-.22-.9-.42a.21.21,0,0,0-.28.12"/><path class="cls-1" d="M34.86,26.9a9.57,9.57,0,0,1-5-1.43,19.09,19.09,0,0,1-2.42-2.13A10.3,10.3,0,0,0,29,18.5a54.13,54.13,0,0,0,.23-6.21.23.23,0,0,0-.19-.21c-.43-.06-.87-.1-1.31-.12a.22.22,0,0,0-.23.23,53.87,53.87,0,0,1,.2,6.1,9.45,9.45,0,0,1-1.42,5,21.17,21.17,0,0,1-2.13,2.43,10.19,10.19,0,0,0-4.84-1.58A54.19,54.19,0,0,0,13.08,24a.22.22,0,0,0-.21.19c-.06.43-.1.86-.12,1.31a.21.21,0,0,0,.23.22,58.9,58.9,0,0,1,6.1-.2,9.57,9.57,0,0,1,5,1.43A19.93,19.93,0,0,1,26.54,29,10.32,10.32,0,0,0,25,33.87a54.19,54.19,0,0,0-.23,6.21.22.22,0,0,0,.18.21c.43.06.87.1,1.31.12a.22.22,0,0,0,.23-.23,56.31,56.31,0,0,1-.2-6.1,9.54,9.54,0,0,1,1.42-5,21.17,21.17,0,0,1,2.13-2.43,10.19,10.19,0,0,0,4.84,1.58,54.4,54.4,0,0,0,6.22.23.21.21,0,0,0,.2-.19,11.18,11.18,0,0,0,.13-1.31A.21.21,0,0,0,41,26.7a59.08,59.08,0,0,1-6.11.2M27,28.43a23.83,23.83,0,0,0-2.24-2.25A22.94,22.94,0,0,0,27,23.94a23.06,23.06,0,0,0,2.25,2.25A21.66,21.66,0,0,0,27,28.43"/><path class="cls-1" d="M18,28c-1.48,0-4.09.18-4.88.25a.22.22,0,0,0-.19.25c.06.36.13.71.22,1.05a.2.2,0,0,0,.23.16c.67-.1,2.85-.42,4.69-.53a9.38,9.38,0,0,1,3.68.37,8.18,8.18,0,0,1,1.8,1.24.09.09,0,0,0,.14,0l.18-.54A.25.25,0,0,0,23.8,30a8.78,8.78,0,0,0-1.61-1.22A9.65,9.65,0,0,0,18,28"/><path class="cls-1" d="M15.13,31.8l-.84.39a.22.22,0,0,0-.1.29c.15.3.3.59.47.88a.22.22,0,0,0,.3.07l3.67-2.25a.06.06,0,0,0,0-.12c-.16,0-.4,0-.73,0a7.65,7.65,0,0,0-2.74.7"/><path class="cls-1" d="M21.38,31.64l-4.5,4.29a.21.21,0,0,0,0,.3c.24.24.48.47.73.68a.22.22,0,0,0,.31,0l4-4.81a.13.13,0,0,0,0-.19l-.34-.26a.14.14,0,0,0-.18,0"/><path class="cls-1" d="M21.68,39.18l.77-1.93A7.68,7.68,0,0,0,23,34.94c0-.34.06-.72.1-1.06,0-.07-.09-.1-.13,0l-2.54,4.75a.21.21,0,0,0,.09.29c.29.15.59.29.89.42a.22.22,0,0,0,.29-.12"/><path class="cls-1" d="M22.36,22.89l.55.19a.25.25,0,0,0,.26-.06,8.17,8.17,0,0,0,1.22-1.62,9.64,9.64,0,0,0,.73-4.2c0-1.48-.19-4.08-.26-4.88a.21.21,0,0,0-.24-.19c-.36.06-.71.13-1.06.22a.21.21,0,0,0-.15.24c.1.66.42,2.85.53,4.68A9.43,9.43,0,0,1,23.57,21a8.31,8.31,0,0,1-1.25,1.8.08.08,0,0,0,0,.13"/></svg>
