<?xml version="1.0" encoding="UTF-8"?>
<svg xmlns="http://www.w3.org/2000/svg" xmlns:xlink="http://www.w3.org/1999/xlink" version="1.1" id="Layer_1" x="0px" y="0px" viewBox="0 0 907.95 770.79" style="enable-background:new 0 0 907.95 770.79;" xml:space="preserve">
<style type="text/css">
	.st0{filter:url(#Adobe_OpacityMaskFilter);}
	.st1{clip-path:url(#SVGID_2_);fill:url(#SVGID_4_);}
	.st2{clip-path:url(#SVGID_2_);mask:url(#SVGID_3_);fill:url(#SVGID_5_);}
	.st3{filter:url(#Adobe_OpacityMaskFilter_1_);}
	.st4{clip-path:url(#SVGID_7_);fill:url(#SVGID_9_);}
	.st5{clip-path:url(#SVGID_7_);mask:url(#SVGID_8_);fill:url(#SVGID_10_);}
	.st6{filter:url(#Adobe_OpacityMaskFilter_2_);}
	.st7{clip-path:url(#SVGID_12_);fill:url(#SVGID_14_);}
	.st8{clip-path:url(#SVGID_12_);mask:url(#SVGID_13_);fill:url(#SVGID_15_);}
	.st9{fill:none;stroke:url(#SVGID_16_);stroke-width:0.75;stroke-miterlimit:10;}
	.st10{fill:none;stroke:url(#SVGID_17_);stroke-width:0.75;stroke-miterlimit:10;}
	.st11{fill:none;stroke:url(#SVGID_18_);stroke-width:0.75;stroke-miterlimit:10;}
	.st12{fill:none;stroke:url(#SVGID_19_);stroke-width:0.75;stroke-miterlimit:10;}
	.st13{fill:none;stroke:url(#SVGID_20_);stroke-width:0.75;stroke-miterlimit:10;}
	.st14{fill:none;stroke:url(#SVGID_21_);stroke-width:0.75;stroke-miterlimit:10;}
	.st15{fill:none;stroke:url(#SVGID_22_);stroke-width:0.75;stroke-miterlimit:10;}
	.st16{fill:none;stroke:url(#SVGID_23_);stroke-width:0.75;stroke-miterlimit:10;}
	.st17{fill:none;stroke:url(#SVGID_24_);stroke-width:0.75;stroke-miterlimit:10;}
	.st18{fill:none;stroke:url(#SVGID_25_);stroke-width:0.75;stroke-miterlimit:10;}
	.st19{fill:none;stroke:url(#SVGID_26_);stroke-width:0.75;stroke-miterlimit:10;}
	.st20{fill:none;stroke:url(#SVGID_27_);stroke-width:0.75;stroke-miterlimit:10;}
	.st21{fill:#F0F3FB;}
	.st22{fill:url(#SVGID_28_);stroke:#000000;stroke-width:0.75;stroke-miterlimit:10;}
	.st23{fill:url(#SVGID_29_);}
	.st24{fill:url(#SVGID_30_);}
	.st25{fill:url(#SVGID_31_);}
	.st26{fill:url(#SVGID_32_);}
	.st27{fill:url(#SVGID_33_);}
	.st28{fill:url(#SVGID_34_);}
	.st29{fill:none;stroke:#000000;stroke-width:0.75;stroke-miterlimit:10;}
	.st30{fill:url(#SVGID_35_);}
	.st31{fill:url(#SVGID_36_);}
	.st32{fill:url(#SVGID_37_);stroke:#000000;stroke-width:0.75;stroke-miterlimit:10;}
	.st33{fill:url(#SVGID_38_);}
	.st34{fill:url(#SVGID_39_);}
	.st35{fill:url(#SVGID_40_);}
	.st36{fill:#F0F3FB;stroke:#000000;stroke-width:0.75;stroke-miterlimit:10;}
	.st37{fill:#7366FF;stroke:#000000;stroke-width:0.75;stroke-miterlimit:10;}
	.st38{fill:url(#SVGID_41_);stroke:#000000;stroke-width:0.75;stroke-miterlimit:10;}
	.st39{fill:url(#SVGID_42_);stroke:#000000;stroke-width:0.75;stroke-miterlimit:10;}
	.st40{fill:none;stroke:url(#SVGID_43_);stroke-width:4;stroke-miterlimit:10;}
	.st41{fill:url(#SVGID_44_);stroke:#000000;stroke-width:0.75;stroke-miterlimit:10;}
	.st42{fill:url(#SVGID_45_);stroke:#000000;stroke-width:0.75;stroke-miterlimit:10;}
	.st43{fill:url(#SVGID_46_);}
	.st44{fill:url(#SVGID_47_);stroke:#000000;stroke-width:0.75;stroke-miterlimit:10;}
	.st45{fill:url(#SVGID_48_);stroke:#000000;stroke-width:0.75;stroke-miterlimit:10;}
	.st46{fill:url(#SVGID_49_);}
	.st47{fill:url(#SVGID_50_);stroke:#000000;stroke-width:0.75;stroke-miterlimit:10;}
	.st48{fill:url(#SVGID_51_);stroke:#000000;stroke-width:0.75;stroke-miterlimit:10;}
	.st49{fill:url(#SVGID_52_);}
	.st50{fill:url(#SVGID_53_);}
	.st51{fill:url(#SVGID_54_);}
	.st52{fill:none;stroke:url(#SVGID_55_);stroke-width:4;stroke-miterlimit:10;}
	.st53{fill:url(#SVGID_56_);stroke:#000000;stroke-width:0.75;stroke-miterlimit:10;}
	.st54{filter:url(#Adobe_OpacityMaskFilter_3_);}
	.st55{clip-path:url(#SVGID_58_);fill:url(#SVGID_60_);}
	.st56{clip-path:url(#SVGID_58_);mask:url(#SVGID_59_);fill:url(#SVGID_61_);}
	.st57{fill:url(#SVGID_62_);}
	.st58{fill:url(#SVGID_63_);}
	.st59{fill:url(#SVGID_64_);}
	.st60{fill:url(#SVGID_65_);}
	.st61{fill:url(#SVGID_66_);}
	.st62{fill:url(#SVGID_67_);}
	.st63{fill:url(#SVGID_68_);}
	.st64{fill:url(#SVGID_69_);}
	.st65{fill:url(#SVGID_70_);}
	.st66{fill:url(#SVGID_71_);}
	.st67{filter:url(#Adobe_OpacityMaskFilter_4_);}
	.st68{clip-path:url(#SVGID_73_);fill:url(#SVGID_75_);}
	.st69{clip-path:url(#SVGID_73_);mask:url(#SVGID_74_);fill:url(#SVGID_76_);}
	.st70{filter:url(#Adobe_OpacityMaskFilter_5_);}
	.st71{clip-path:url(#SVGID_78_);fill:url(#SVGID_80_);}
	.st72{clip-path:url(#SVGID_78_);mask:url(#SVGID_79_);fill:url(#SVGID_81_);}
</style>
<g>
	<defs>
		<path id="SVGID_1_" d="M639.13,184.49v75.39c0,3.2,1.94,6.09,4.9,7.3l10.88,4.45l25.21,10.33l13.82,5.66l25.21,10.33l13.82,5.67    l25.21,10.33l13.82,5.67l25.21,10.33l5.73,2.35l8.09,3.31l17.12,7.01l8.09,3.31l9.51,3.9c2.99,1.23,6.27-0.97,6.27-4.21v-75.39    c0-3.2-1.94-6.09-4.9-7.3l-201.7-82.64h0C642.41,179.05,639.13,181.25,639.13,184.49z"></path>
	</defs>
	<clipPath id="SVGID_2_">
		<use xlink:href="#SVGID_1_" style="overflow:visible;"></use>
	</clipPath>
	<defs>
		<filter id="Adobe_OpacityMaskFilter" filterUnits="userSpaceOnUse" x="619.79" y="158.59" width="259.04" height="212.91">
			<feColorMatrix type="matrix" values="1 0 0 0 0  0 1 0 0 0  0 0 1 0 0  0 0 0 1 0"></feColorMatrix>
		</filter>
	</defs>
	<mask maskUnits="userSpaceOnUse" x="619.79" y="158.59" width="259.04" height="212.91" id="SVGID_3_">
		<g class="st0">
			
				<linearGradient id="SVGID_4_" gradientUnits="userSpaceOnUse" x1="-268.4836" y1="-4298.8931" x2="-266.5354" y2="-4298.8931" gradientTransform="matrix(-132.9629 -3.346035e-04 3.346035e-04 -132.9629 -34818.082 -571328.25)">
				<stop offset="0" style="stop-color:#000000"></stop>
				<stop offset="0.109" style="stop-color:#040404"></stop>
				<stop offset="0.2221" style="stop-color:#111111"></stop>
				<stop offset="0.337" style="stop-color:#252525"></stop>
				<stop offset="0.4533" style="stop-color:#434343"></stop>
				<stop offset="0.5705" style="stop-color:#686868"></stop>
				<stop offset="0.6887" style="stop-color:#969696"></stop>
				<stop offset="0.8053" style="stop-color:#CBCBCB"></stop>
				<stop offset="0.905" style="stop-color:#FFFFFF"></stop>
				<stop offset="1" style="stop-color:#FFFFFF"></stop>
			</linearGradient>
			<rect x="619.79" y="158.59" class="st1" width="259.04" height="212.91"></rect>
		</g>
	</mask>
	
		<linearGradient id="SVGID_5_" gradientUnits="userSpaceOnUse" x1="1954.3997" y1="10771.5439" x2="1672.3265" y2="10541.707" gradientTransform="matrix(-1 0 0 -1 2592.4204 10945.9102)">
		<stop offset="0" style="stop-color:#7366FF"></stop>
		<stop offset="1" style="stop-color:#F4F4F4"></stop>
	</linearGradient>
	<rect x="619.79" y="158.59" class="st2" width="259.04" height="212.91"></rect>
</g>
<g>
	<defs>
		<path id="SVGID_6_" d="M654.48,178.16v75.39c0,3.2,1.94,6.09,4.9,7.3l10.88,4.45l25.21,10.33l13.82,5.66l25.21,10.33l13.82,5.67    l25.21,10.33l13.82,5.67l25.21,10.33l5.73,2.35l8.09,3.31l17.12,7.01l8.09,3.31l9.51,3.9c2.99,1.23,6.27-0.97,6.27-4.21V263.9    c0-3.2-1.94-6.09-4.9-7.3l-201.7-82.64l0,0C657.76,172.73,654.48,174.93,654.48,178.16z"></path>
	</defs>
	<clipPath id="SVGID_7_">
		<use xlink:href="#SVGID_6_" style="overflow:visible;"></use>
	</clipPath>
	<defs>
		<filter id="Adobe_OpacityMaskFilter_1_" filterUnits="userSpaceOnUse" x="635.14" y="152.27" width="259.04" height="212.91">
			<feColorMatrix type="matrix" values="1 0 0 0 0  0 1 0 0 0  0 0 1 0 0  0 0 0 1 0"></feColorMatrix>
		</filter>
	</defs>
	<mask maskUnits="userSpaceOnUse" x="635.14" y="152.27" width="259.04" height="212.91" id="SVGID_8_">
		<g class="st3">
			
				<linearGradient id="SVGID_9_" gradientUnits="userSpaceOnUse" x1="-268.5991" y1="-4298.8457" x2="-266.6508" y2="-4298.8457" gradientTransform="matrix(-132.9629 -3.346035e-04 3.346035e-04 -132.9629 -34818.082 -571328.25)">
				<stop offset="0" style="stop-color:#000000"></stop>
				<stop offset="0.109" style="stop-color:#040404"></stop>
				<stop offset="0.2221" style="stop-color:#111111"></stop>
				<stop offset="0.337" style="stop-color:#252525"></stop>
				<stop offset="0.4533" style="stop-color:#434343"></stop>
				<stop offset="0.5705" style="stop-color:#686868"></stop>
				<stop offset="0.6887" style="stop-color:#969696"></stop>
				<stop offset="0.8053" style="stop-color:#CBCBCB"></stop>
				<stop offset="0.905" style="stop-color:#FFFFFF"></stop>
				<stop offset="1" style="stop-color:#FFFFFF"></stop>
			</linearGradient>
			<rect x="635.14" y="152.27" class="st4" width="259.04" height="212.91"></rect>
		</g>
	</mask>
	
		<linearGradient id="SVGID_10_" gradientUnits="userSpaceOnUse" x1="1939.0463" y1="10777.8652" x2="1656.9733" y2="10548.0283" gradientTransform="matrix(-1 0 0 -1 2592.4204 10945.9102)">
		<stop offset="0" style="stop-color:#7366FF"></stop>
		<stop offset="1" style="stop-color:#F4F4F4"></stop>
	</linearGradient>
	<rect x="635.14" y="152.27" class="st5" width="259.04" height="212.91"></rect>
</g>
<g>
	<defs>
		<path id="SVGID_11_" d="M622.85,191.15v75.39c0,3.2,1.94,6.09,4.9,7.3l10.88,4.45l25.21,10.33l13.82,5.66l25.21,10.33l13.82,5.67    l25.21,10.33l13.82,5.67l25.21,10.33l5.73,2.35l8.09,3.31l17.12,7.01l8.09,3.31l9.51,3.9c2.99,1.23,6.27-0.97,6.27-4.21v-75.39    c0-3.2-1.94-6.09-4.9-7.3l-201.7-82.64l0,0C626.13,185.72,622.85,187.92,622.85,191.15z"></path>
	</defs>
	<clipPath id="SVGID_12_">
		<use xlink:href="#SVGID_11_" style="overflow:visible;"></use>
	</clipPath>
	<defs>
		<filter id="Adobe_OpacityMaskFilter_2_" filterUnits="userSpaceOnUse" x="603.51" y="165.25" width="259.04" height="212.91">
			<feColorMatrix type="matrix" values="1 0 0 0 0  0 1 0 0 0  0 0 1 0 0  0 0 0 1 0"></feColorMatrix>
		</filter>
	</defs>
	<mask maskUnits="userSpaceOnUse" x="603.51" y="165.25" width="259.04" height="212.91" id="SVGID_13_">
		<g class="st6">
			
				<linearGradient id="SVGID_14_" gradientUnits="userSpaceOnUse" x1="-268.4957" y1="-4298.8198" x2="-266.5475" y2="-4298.8198" gradientTransform="matrix(-132.9629 -3.346035e-04 3.346035e-04 -132.9629 -34835.9688 -571311.8125)">
				<stop offset="0" style="stop-color:#000000"></stop>
				<stop offset="0.109" style="stop-color:#040404"></stop>
				<stop offset="0.2221" style="stop-color:#111111"></stop>
				<stop offset="0.337" style="stop-color:#252525"></stop>
				<stop offset="0.4533" style="stop-color:#434343"></stop>
				<stop offset="0.5705" style="stop-color:#686868"></stop>
				<stop offset="0.6887" style="stop-color:#969696"></stop>
				<stop offset="0.8053" style="stop-color:#CBCBCB"></stop>
				<stop offset="0.905" style="stop-color:#FFFFFF"></stop>
				<stop offset="1" style="stop-color:#FFFFFF"></stop>
			</linearGradient>
			<rect x="603.51" y="165.25" class="st7" width="259.04" height="212.91"></rect>
		</g>
	</mask>
	
		<linearGradient id="SVGID_15_" gradientUnits="userSpaceOnUse" x1="1925.6726" y1="10728.3721" x2="1707.8529" y2="10630.6436" gradientTransform="matrix(-1 0 0 -1 2574.5359 10962.3154)">
		<stop offset="0" style="stop-color:#7366FF"></stop>
		<stop offset="1" style="stop-color:#F4F4F4"></stop>
	</linearGradient>
	<rect x="603.51" y="165.25" class="st8" width="259.04" height="212.91"></rect>
</g>
<g>
	<linearGradient id="SVGID_16_" gradientUnits="userSpaceOnUse" x1="650.6861" y1="196.9423" x2="650.6861" y2="279.4023">
		<stop offset="0.0497" style="stop-color:#EDF5FA"></stop>
		<stop offset="1" style="stop-color:#7366FF"></stop>
	</linearGradient>
	<polyline class="st9" points="650.69,196.94 650.69,217.53 650.69,238.13 650.69,258.73 650.69,279.4  "></polyline>
	<linearGradient id="SVGID_17_" gradientUnits="userSpaceOnUse" x1="673.6061" y1="206.3324" x2="673.6061" y2="288.8023">
		<stop offset="0.0497" style="stop-color:#EDF5FA"></stop>
		<stop offset="1" style="stop-color:#7366FF"></stop>
	</linearGradient>
	<polyline class="st10" points="673.61,206.33 673.61,226.93 673.61,247.52 673.61,268.12 673.61,288.8  "></polyline>
	<linearGradient id="SVGID_18_" gradientUnits="userSpaceOnUse" x1="696.5361" y1="215.7224" x2="696.5361" y2="298.1924">
		<stop offset="0.0497" style="stop-color:#EDF5FA"></stop>
		<stop offset="1" style="stop-color:#7366FF"></stop>
	</linearGradient>
	<polyline class="st11" points="696.54,215.72 696.54,236.32 696.54,256.91 696.54,277.51 696.54,298.19  "></polyline>
	<linearGradient id="SVGID_19_" gradientUnits="userSpaceOnUse" x1="719.4561" y1="225.1223" x2="719.4561" y2="307.5823">
		<stop offset="0.0497" style="stop-color:#EDF5FA"></stop>
		<stop offset="1" style="stop-color:#7366FF"></stop>
	</linearGradient>
	<polyline class="st12" points="719.46,225.12 719.46,245.71 719.46,266.31 719.46,286.91 719.46,307.58  "></polyline>
	<linearGradient id="SVGID_20_" gradientUnits="userSpaceOnUse" x1="742.3861" y1="234.5123" x2="742.3861" y2="316.9823">
		<stop offset="0.0497" style="stop-color:#EDF5FA"></stop>
		<stop offset="1" style="stop-color:#7366FF"></stop>
	</linearGradient>
	<polyline class="st13" points="742.39,234.51 742.39,255.11 742.39,275.7 742.39,296.3 742.39,316.98  "></polyline>
	<linearGradient id="SVGID_21_" gradientUnits="userSpaceOnUse" x1="765.3161" y1="243.9123" x2="765.3161" y2="326.3723">
		<stop offset="0.0497" style="stop-color:#EDF5FA"></stop>
		<stop offset="1" style="stop-color:#7366FF"></stop>
	</linearGradient>
	<polyline class="st14" points="765.32,243.91 765.32,264.5 765.32,285.1 765.32,305.7 765.32,326.37  "></polyline>
	<linearGradient id="SVGID_22_" gradientUnits="userSpaceOnUse" x1="788.2361" y1="253.3023" x2="788.2361" y2="335.7623">
		<stop offset="0.0497" style="stop-color:#EDF5FA"></stop>
		<stop offset="1" style="stop-color:#7366FF"></stop>
	</linearGradient>
	<polyline class="st15" points="788.24,253.3 788.24,273.89 788.24,294.49 788.24,315.09 788.24,335.76  "></polyline>
	<linearGradient id="SVGID_23_" gradientUnits="userSpaceOnUse" x1="811.1661" y1="262.6924" x2="811.1661" y2="345.1624">
		<stop offset="0.0497" style="stop-color:#EDF5FA"></stop>
		<stop offset="1" style="stop-color:#7366FF"></stop>
	</linearGradient>
	<polyline class="st16" points="811.17,262.69 811.17,283.29 811.17,303.88 811.17,324.48 811.17,345.16  "></polyline>
	<linearGradient id="SVGID_24_" gradientUnits="userSpaceOnUse" x1="627.6127" y1="250.4132" x2="834.2333" y2="250.4132">
		<stop offset="0.0497" style="stop-color:#EDF5FA"></stop>
		<stop offset="1" style="stop-color:#7366FF"></stop>
	</linearGradient>
	<line class="st17" x1="834.09" y1="292.69" x2="627.75" y2="208.14"></line>
	<linearGradient id="SVGID_25_" gradientUnits="userSpaceOnUse" x1="627.6127" y1="271.0094" x2="834.2333" y2="271.0094">
		<stop offset="0.0497" style="stop-color:#EDF5FA"></stop>
		<stop offset="1" style="stop-color:#7366FF"></stop>
	</linearGradient>
	<line class="st18" x1="627.75" y1="228.74" x2="834.09" y2="313.28"></line>
	<linearGradient id="SVGID_26_" gradientUnits="userSpaceOnUse" x1="627.6127" y1="291.6056" x2="834.2333" y2="291.6056">
		<stop offset="0.0497" style="stop-color:#EDF5FA"></stop>
		<stop offset="1" style="stop-color:#7366FF"></stop>
	</linearGradient>
	<line class="st19" x1="627.75" y1="249.33" x2="834.09" y2="333.88"></line>
	<linearGradient id="SVGID_27_" gradientUnits="userSpaceOnUse" x1="627.5889" y1="260.2483" x2="834.3688" y2="260.2483">
		<stop offset="3.409785e-07" style="stop-color:#7366FF"></stop>
		<stop offset="0.9503" style="stop-color:#000000"></stop>
	</linearGradient>
	<path class="st20" d="M627.75,259.53l4.45-2.2c3.92-1.93,8.66-0.69,11.12,2.92v0c3.51,5.15,11.12,5.09,14.56-0.11l18.11-27.44   c4.01-6.07,13.24-4.9,15.6,1.98l13.07,38.07c1.71,4.99,7.42,7.35,12.16,5.01l19.17-9.45c3.72-1.84,8.22-0.81,10.78,2.47   l13.72,17.57c2.75,3.52,7.69,4.41,11.49,2.07l32.99-20.27c3.59-2.21,8.24-1.54,11.08,1.58l18.04,19.87"></path>
	<circle class="st21" cx="684.61" cy="228.74" r="2.03"></circle>
	<circle class="st21" cx="709.98" cy="278.2" r="2.03"></circle>
	<circle class="st21" cx="741.99" cy="267.7" r="2.03"></circle>
	<circle class="st21" cx="765.32" cy="291.49" r="2.03"></circle>
	<circle class="st21" cx="811.17" cy="269.02" r="2.03"></circle>
</g>
<linearGradient id="SVGID_28_" gradientUnits="userSpaceOnUse" x1="679.8862" y1="324.8078" x2="553.926" y2="207.4358">
	<stop offset="0" style="stop-color:#F4F4F4"></stop>
	<stop offset="1" style="stop-color:#7366FF"></stop>
</linearGradient>
<path class="st22" d="M727.45,304.94c0,6.53-2.9,12.87-8.35,18.92c-22.96-25.48-91.19-45.77-178.76-53.47v-37.85  C648.7,242.06,727.45,270.88,727.45,304.94z"></path>
<g>
	<linearGradient id="SVGID_29_" gradientUnits="userSpaceOnUse" x1="95.1905" y1="268.0449" x2="354.0755" y2="386.1612">
		<stop offset="0" style="stop-color:#F4F4F4"></stop>
		<stop offset="1" style="stop-color:#7366FF"></stop>
	</linearGradient>
	<path class="st23" d="M330.14,205.99v126.52c0,3.71-2.24,7.06-5.68,8.46l-12.61,5.16l-29.22,11.98l-16.02,6.56l-29.22,11.97   l-16.02,6.57l-29.22,11.97l-16.02,6.57l-29.22,11.97l-6.64,2.72l-9.38,3.84l-19.84,8.13l-9.38,3.84l-11.02,4.52   c-3.47,1.42-7.27-1.13-7.27-4.88V305.38c0-3.71,2.24-7.06,5.68-8.46l233.81-95.8v0C326.34,199.69,330.14,202.24,330.14,205.99z"></path>
	<g>
		<linearGradient id="SVGID_30_" gradientUnits="userSpaceOnUse" x1="116.2815" y1="416.5289" x2="116.2815" y2="290.4197">
			<stop offset="0" style="stop-color:#F4F4F4"></stop>
			<stop offset="1" style="stop-color:#7366FF"></stop>
		</linearGradient>
		<path class="st24" d="M130.89,341.22v76.47c0,1.58-0.95,3-2.41,3.6l-17.43,7.14l-4.02,1.65c-2.56,1.05-5.36-0.83-5.36-3.6V350    c0-1.58,0.95-3,2.41-3.6l21.44-8.78C128.09,336.57,130.89,338.45,130.89,341.22z"></path>
		<linearGradient id="SVGID_31_" gradientUnits="userSpaceOnUse" x1="161.5215" y1="416.5289" x2="161.5215" y2="290.4197">
			<stop offset="0" style="stop-color:#F4F4F4"></stop>
			<stop offset="1" style="stop-color:#7366FF"></stop>
		</linearGradient>
		<path class="st25" d="M176.13,354.05v45.11c0,1.58-0.95,3-2.41,3.6l-21.44,8.78c-2.56,1.05-5.36-0.83-5.36-3.6v-45.11    c0-1.58,0.95-3,2.41-3.6l21.44-8.78C173.33,349.4,176.13,351.28,176.13,354.05z"></path>
		<linearGradient id="SVGID_32_" gradientUnits="userSpaceOnUse" x1="206.7614" y1="416.5289" x2="206.7614" y2="290.4197">
			<stop offset="0" style="stop-color:#F4F4F4"></stop>
			<stop offset="1" style="stop-color:#7366FF"></stop>
		</linearGradient>
		<path class="st26" d="M221.37,318.79v61.83c0,1.58-0.95,3-2.41,3.6L197.51,393c-2.56,1.05-5.36-0.83-5.36-3.6v-61.83    c0-1.58,0.95-3,2.41-3.6l21.44-8.78C218.57,314.14,221.37,316.02,221.37,318.79z"></path>
		<linearGradient id="SVGID_33_" gradientUnits="userSpaceOnUse" x1="252.0014" y1="387.2661" x2="252.0014" y2="258.4278">
			<stop offset="0" style="stop-color:#F4F4F4"></stop>
			<stop offset="1" style="stop-color:#7366FF"></stop>
		</linearGradient>
		<path class="st27" d="M266.61,268.31v93.77c0,1.58-0.95,3-2.41,3.6l-21.44,8.78c-2.56,1.05-5.36-0.83-5.36-3.6v-93.77    c0-1.58,0.95-3,2.41-3.6l21.44-8.78C263.81,263.66,266.61,265.54,266.61,268.31z"></path>
		<linearGradient id="SVGID_34_" gradientUnits="userSpaceOnUse" x1="297.2415" y1="376.5323" x2="297.2415" y2="224.2276">
			<stop offset="0" style="stop-color:#F4F4F4"></stop>
			<stop offset="1" style="stop-color:#7366FF"></stop>
		</linearGradient>
		<path class="st28" d="M311.85,236.79v106.75c0,1.58-0.95,3-2.41,3.6l-21.44,8.79c-2.56,1.05-5.36-0.83-5.36-3.6V245.58    c0-1.58,0.95-3,2.41-3.6l21.44-8.78C309.05,232.14,311.85,234.03,311.85,236.79z"></path>
	</g>
	<path class="st29" d="M330.14,205.99v126.52c0,3.71-2.24,7.06-5.68,8.46l-12.61,5.16l-29.22,11.98l-16.02,6.56l-29.22,11.97   l-16.02,6.57l-29.22,11.97l-16.02,6.57l-29.22,11.97l-6.64,2.72l-9.38,3.84l-19.84,8.13l-9.38,3.84l-11.02,4.52   c-3.47,1.42-7.27-1.13-7.27-4.88V305.38c0-3.71,2.24-7.06,5.68-8.46l233.81-95.8v0C326.34,199.69,330.14,202.24,330.14,205.99z"></path>
</g>
<g>
	<linearGradient id="SVGID_35_" gradientUnits="userSpaceOnUse" x1="69.3563" y1="555.4556" x2="406.3543" y2="553.8276">
		<stop offset="0" style="stop-color:#CAC5F8"></stop>
		<stop offset="0.805" style="stop-color:#7366FF"></stop>
	</linearGradient>
	<path class="st30" d="M874.56,555.17L569.3,680.23l-28.68,11.75l-60.1,24.62c-9.75,3.99-20.69,3.99-30.44,0L56.04,555.17   l104.01-42.61L465.3,387.49l13.65,5.59L874.56,555.17z"></path>
	<linearGradient id="SVGID_36_" gradientUnits="userSpaceOnUse" x1="294.6961" y1="477.0463" x2="626.6553" y2="610.7394">
		<stop offset="0" style="stop-color:#CAC5F8"></stop>
		<stop offset="0.805" style="stop-color:#7366FF"></stop>
	</linearGradient>
	<path class="st31" d="M874.56,555.17L569.3,680.23l-81.31,32.83c-0.54-0.19-343.03-183.13-343.03-183.13l104.01-42.61l229.98-94.24   L874.56,555.17z"></path>
	<path class="st29" d="M874.56,555.17L569.3,680.23l-88.78,36.37c-9.75,3.99-20.69,3.99-30.44,0L56.04,555.17l104.01-42.61   L465.3,387.49L874.56,555.17z"></path>
	<linearGradient id="SVGID_37_" gradientUnits="userSpaceOnUse" x1="56.0455" y1="507.0798" x2="874.5565" y2="507.0798">
		<stop offset="0" style="stop-color:#F4F4F4"></stop>
		<stop offset="1" style="stop-color:#7366FF"></stop>
	</linearGradient>
	<path class="st32" d="M874.56,508.7L465.3,341.03l0,0h0h0l0,0L56.05,508.7l394.03,161.43c9.76,4,20.69,4,30.45,0L874.56,508.7z"></path>
	<linearGradient id="SVGID_38_" gradientUnits="userSpaceOnUse" x1="516.2165" y1="679.9619" x2="431.6187" y2="297.378">
		<stop offset="0" style="stop-color:#7366FF"></stop>
		<stop offset="0.8659" style="stop-color:#F4F4F4"></stop>
	</linearGradient>
	<path class="st33" d="M709.98,484.76c0,73.84-139.34,148.46-139.34,148.46s-313.09-13.07-336.25-148.46   c-12.45-72.78,106.47-133.7,237.8-133.7S709.98,410.92,709.98,484.76z"></path>
</g>
<g>
	<linearGradient id="SVGID_39_" gradientUnits="userSpaceOnUse" x1="470.4129" y1="586.7322" x2="456.29" y2="247.783">
		<stop offset="0" style="stop-color:#F4F4F4"></stop>
		<stop offset="1" style="stop-color:#7366FF"></stop>
	</linearGradient>
	<path class="st34" d="M696.22,463.22l-0.02,3.27v0.01l-0.02,3.08c0.01,0.01,0.01,0.03,0,0.04v0.21h-461.8v-6.61   c0-7.88,0.39-15.66,1.16-23.34c0-0.01,0-0.01,0-0.01c0.87-8.64,2.22-17.13,4.01-25.47v-0.01c1.97-9.14,4.47-18.07,7.49-26.77   c6.44-18.61,15.2-36.15,25.94-52.25c7.16-10.77,15.21-20.89,24.04-30.28c7.39-7.87,15.33-15.22,23.76-21.99   c39.56-31.78,89.82-50.8,144.52-50.8c54.7,0,104.96,19.02,144.52,50.8c8.43,6.77,16.37,14.12,23.76,21.99   c8.83,9.39,16.88,19.51,24.04,30.28c10.74,16.1,19.5,33.64,25.94,52.25c3.02,8.7,5.52,17.63,7.49,26.77v0.01   c1.79,8.34,3.14,16.83,4.01,25.47c0,0,0,0,0,0.01C695.83,447.56,696.22,455.34,696.22,463.22z"></path>
	<linearGradient id="SVGID_40_" gradientUnits="userSpaceOnUse" x1="247.5102" y1="304.3926" x2="553.0037" y2="533.6415">
		<stop offset="0" style="stop-color:#F4F4F4"></stop>
		<stop offset="1" style="stop-color:#7366FF"></stop>
	</linearGradient>
	<path class="st35" d="M696.22,467.83c0,22.57-16.03,43.45-43.26,60.47c-23.5,14.7-55.35,26.52-92.42,34.08   c-29.04,5.91-61.28,9.2-95.24,9.2c-33.96,0-66.2-3.29-95.24-9.2c-37.07-7.56-68.92-19.38-92.42-34.08   c-27.23-17.02-43.26-37.9-43.26-60.47c0-28.87,26.24-54.98,68.59-73.79c23.81-10.57,52.71-18.84,84.9-23.98   c24.2-3.87,50.27-5.98,77.43-5.98c27.16,0,53.23,2.11,77.43,5.98c32.19,5.14,61.09,13.41,84.9,23.98   C669.98,412.85,696.22,438.96,696.22,467.83z"></path>
	<path class="st29" d="M691.62,417.14c-2.33,5.11-5.52,10.08-9.52,14.88c-3.6,4.35-7.86,8.55-12.72,12.59   c-6.98,5.81-15.19,11.28-24.48,16.36c-5.69,3.11-11.79,6.07-18.26,8.86c-18.63,8.04-40.31,14.7-64.22,19.61   c-29.53,6.06-62.43,9.44-97.12,9.44s-67.59-3.38-97.12-9.44c-23.91-4.91-45.59-11.57-64.22-19.61c-6.47-2.79-12.57-5.75-18.26-8.86   c-9.29-5.08-17.5-10.55-24.48-16.36c-4.86-4.04-9.12-8.24-12.72-12.59c-4-4.8-7.19-9.77-9.52-14.88"></path>
	<path class="st29" d="M255.26,367.13c0.61,0.66,1.24,1.31,1.89,1.96h0.01c5.59,5.59,12.12,10.93,19.5,15.95   c6.13,4.18,12.84,8.15,20.08,11.87c1.48,0.77,2.99,1.52,4.52,2.27c20.94,10.19,45.93,18.44,73.71,24.14   c27.74,5.69,58.27,8.84,90.33,8.84s62.59-3.15,90.33-8.84c27.78-5.7,52.77-13.95,73.71-24.14c1.53-0.75,3.04-1.5,4.52-2.27   c7.24-3.72,13.95-7.69,20.08-11.87c7.38-5.02,13.91-10.36,19.5-15.95h0.01c0.65-0.65,1.28-1.3,1.89-1.96   c3.07-3.22,5.8-6.51,8.22-9.88"></path>
	<path class="st29" d="M272.98,310.14c3.76,3.03,7.77,5.97,12.01,8.81c11.89,7.96,25.58,15.13,40.74,21.31   c7.79,3.18,15.96,6.1,24.48,8.73c11.68,3.6,24,6.68,36.85,9.17c4.02,0.78,8.09,1.5,12.21,2.16c13.07,2.09,26.62,3.57,40.55,4.39   c0.01,0,0.01,0,0.02,0c8.36,0.49,16.86,0.74,25.46,0.74s17.1-0.25,25.46-0.74c0.01,0,0.01,0,0.02,0   c13.93-0.82,27.48-2.3,40.55-4.39c4.12-0.66,8.19-1.38,12.21-2.16c12.85-2.49,25.17-5.57,36.85-9.17   c8.52-2.63,16.69-5.55,24.48-8.73c15.16-6.18,28.85-13.35,40.74-21.31"></path>
	<path class="st29" d="M594.38,271.71c-4.56,2.12-9.23,4.13-14.01,6.02c-4.74,1.87-9.58,3.63-14.53,5.26   c-13.54,4.5-27.81,8.11-42.67,10.74c-18.49,3.28-37.88,5.02-57.87,5.02c-19.99,0-39.38-1.74-57.87-5.02   c-14.86-2.63-29.13-6.24-42.67-10.74c-4.95-1.63-9.79-3.39-14.53-5.26c-4.78-1.89-9.45-3.9-14.01-6.02"></path>
	<line class="st29" x1="465.3" y1="571.58" x2="465.3" y2="232.3"></line>
	<path class="st29" d="M277.64,528.3c0.71-12.17,1.8-24.14,3.24-35.89v-0.02c1.61-13.05,3.65-25.81,6.12-38.23   c4.17-21.1,9.54-41.22,15.97-60.12c1.66-4.93,3.41-9.77,5.22-14.52c5.85-15.38,12.43-29.84,19.64-43.25   c6.04-11.24,12.52-21.74,19.41-31.41c32.32-45.39,73.38-72.56,118.06-72.56s85.74,27.17,118.06,72.56   c6.89,9.67,13.37,20.17,19.41,31.41c7.21,13.41,13.79,27.87,19.64,43.25c1.81,4.75,3.56,9.59,5.22,14.52   c6.43,18.9,11.8,39.02,15.97,60.12c2.46,12.42,4.51,25.18,6.12,38.23v0.02c1.44,11.75,2.53,23.72,3.24,35.89"></path>
	<path class="st29" d="M564.86,562.38v-0.24c0-11.25-0.17-22.37-0.5-33.34c0-0.01,0-0.01,0-0.01c-0.38-12.34-0.96-24.47-1.74-36.38   v-0.02c-0.85-13.05-1.92-25.81-3.22-38.23c-2.78-26.59-6.55-51.64-11.18-74.64c-0.64-3.2-1.31-6.35-1.98-9.46   c-2.57-11.88-5.38-23.17-8.39-33.79c-3.18-11.24-6.61-21.74-10.24-31.41c-17.05-45.39-38.72-72.56-62.3-72.56   c-23.58,0-45.25,27.17-62.3,72.56c-3.64,9.67-7.06,20.17-10.24,31.41c-3.01,10.62-5.82,21.91-8.39,33.79   c-0.67,3.11-1.34,6.26-1.98,9.46c-4.63,23-8.4,48.05-11.18,74.64c-1.3,12.42-2.37,25.18-3.22,38.23v0.02   c-0.77,11.91-1.36,24.04-1.74,36.38c0,0,0,0,0,0.01c-0.33,10.97-0.5,22.09-0.5,33.34v0.24"></path>
	<path class="st29" d="M301.18,292.07"></path>
	<path class="st29" d="M234.38,469.83v-6.61c0-7.88,0.39-15.66,1.16-23.34c0-0.01,0-0.01,0-0.01c0.87-8.64,2.22-17.13,4.01-25.47   v-0.01c1.97-9.14,4.47-18.07,7.49-26.77c6.44-18.61,15.2-36.15,25.94-52.25c7.16-10.77,15.21-20.89,24.04-30.28   c7.39-7.87,15.33-15.22,23.76-21.99c39.56-31.78,89.82-50.8,144.52-50.8c54.7,0,104.96,19.02,144.52,50.8   c8.43,6.77,16.37,14.12,23.76,21.99c8.83,9.39,16.88,19.51,24.04,30.28c10.74,16.1,19.5,33.64,25.94,52.25   c3.02,8.7,5.52,17.63,7.49,26.77v0.01c1.79,8.34,3.14,16.83,4.01,25.47c0,0,0,0,0,0.01c0.77,7.68,1.16,15.46,1.16,23.34l-0.02,3.27   v0.01l-0.02,3.08c0.01,0.01,0.01,0.03,0,0.04v0.21"></path>
	<path class="st29" d="M696.22,467.83c0,22.57-16.03,43.45-43.26,60.47c-23.5,14.7-55.35,26.52-92.42,34.08   c-29.04,5.91-61.28,9.2-95.24,9.2c-33.96,0-66.2-3.29-95.24-9.2c-37.07-7.56-68.92-19.38-92.42-34.08   c-27.23-17.02-43.26-37.9-43.26-60.47"></path>
</g>
<circle class="st36" cx="465.3" cy="232.3" r="8.21"></circle>
<circle class="st36" cx="277.64" cy="528.3" r="8.21"></circle>
<circle class="st36" cx="365.74" cy="561.47" r="8.21"></circle>
<circle class="st36" cx="387.06" cy="358.16" r="8.21"></circle>
<circle class="st36" cx="325.72" cy="340.26" r="8.21"></circle>
<circle class="st37" cx="284.98" cy="318.95" r="8.21"></circle>
<g>
	<circle class="st36" cx="465.3" cy="365.45" r="8.21"></circle>
	<circle class="st36" cx="543.54" cy="358.16" r="8.21"></circle>
	<circle class="st36" cx="604.88" cy="340.26" r="8.21"></circle>
	<circle class="st36" cx="645.62" cy="318.95" r="8.21"></circle>
</g>
<circle class="st36" cx="234.38" cy="474.6" r="8.21"></circle>
<circle class="st36" cx="301.26" cy="399.17" r="8.21"></circle>
<circle class="st36" cx="374.96" cy="423.32" r="8.21"></circle>
<g>
	<circle class="st36" cx="629.34" cy="399.17" r="8.21"></circle>
	<circle class="st36" cx="555.64" cy="423.32" r="8.21"></circle>
	<circle class="st36" cx="675.35" cy="367.13" r="8.21"></circle>
	<circle class="st36" cx="465.3" cy="432.17" r="8.21"></circle>
</g>
<circle class="st36" cx="285.69" cy="460.96" r="8.21"></circle>
<circle class="st36" cx="368.17" cy="489.44" r="8.21"></circle>
<circle class="st36" cx="238.98" cy="417.15" r="8.21"></circle>
<circle class="st36" cx="465.3" cy="498.87" r="8.21"></circle>
<g>
	<circle class="st36" cx="644.91" cy="460.96" r="8.21"></circle>
	<circle class="st36" cx="562.43" cy="489.44" r="8.21"></circle>
	<circle class="st36" cx="691.63" cy="417.15" r="8.21"></circle>
</g>
<circle class="st36" cx="465.3" cy="571.58" r="8.21"></circle>
<circle class="st36" cx="465.3" cy="298.75" r="8.21"></circle>
<circle class="st36" cx="407.42" cy="293.74" r="8.21"></circle>
<circle class="st36" cx="364.76" cy="283" r="8.21"></circle>
<circle class="st36" cx="336.22" cy="271.71" r="8.21"></circle>
<g>
	<circle class="st36" cx="523.18" cy="293.74" r="8.21"></circle>
	<circle class="st36" cx="565.84" cy="283" r="8.21"></circle>
	<circle class="st36" cx="594.38" cy="271.71" r="8.21"></circle>
</g>
<g>
	<linearGradient id="SVGID_41_" gradientUnits="userSpaceOnUse" x1="215.276" y1="187.9464" x2="283.8517" y2="332.3932">
		<stop offset="0" style="stop-color:#F4F4F4"></stop>
		<stop offset="1" style="stop-color:#7366FF"></stop>
	</linearGradient>
	<path class="st38" d="M330.48,305.7v35.22c-75.37-10.44-127.33-32.5-127.33-58.02c0-5.56,0-31.56,0-31.56s1.37,4.11,3.15,7.14   c2.09,3.54,4.66,6.08,4.82,6.25C228.41,282.79,272.52,297.68,330.48,305.7z"></path>
	<linearGradient id="SVGID_42_" gradientUnits="userSpaceOnUse" x1="217.4129" y1="213.494" x2="388.8523" y2="243.4047">
		<stop offset="0" style="stop-color:#F4F4F4"></stop>
		<stop offset="1" style="stop-color:#7366FF"></stop>
	</linearGradient>
	<path class="st39" d="M203.15,247.7c0,5.56,3.98,12.35,8.62,17.5c19.54-21.68,76.07-37.34,150.58-43.9v-35.2   C270.16,194.2,203.15,218.72,203.15,247.7z"></path>
</g>
<linearGradient id="SVGID_43_" gradientUnits="userSpaceOnUse" x1="185.7684" y1="442.1034" x2="744.8341" y2="442.1034">
	<stop offset="0" style="stop-color:#7C70FE"></stop>
	<stop offset="0.4637" style="stop-color:#CAC6F8"></stop>
	<stop offset="1" style="stop-color:#7C70FE"></stop>
</linearGradient>
<path class="st40" d="M678.48,364.34c40.18,16.53,64.36,37.81,64.36,61.02c0,52.63-124.26,95.29-277.53,95.29  s-277.53-42.66-277.53-95.29c0-23.65,25.09-45.29,66.63-61.95"></path>
<g>
	
		<linearGradient id="SVGID_44_" gradientUnits="userSpaceOnUse" x1="3706.6589" y1="1541.9044" x2="3572.6133" y2="1563.3643" gradientTransform="matrix(0.7815 -0.6239 0.6239 0.7815 -3561.3398 1607.3052)">
		<stop offset="0" style="stop-color:#F4F4F4"></stop>
		<stop offset="1" style="stop-color:#7366FF"></stop>
	</linearGradient>
	<path class="st41" d="M264.86,541.13c-16.51-20.68-56.94-15.84-90.3,10.79c-33.36,26.64-47.03,64.99-30.52,85.67   c1.79,2.24,8.7,10.89,10.49,13.14c16.51,20.68,56.94,15.84,90.3-10.79c33.36-26.64,47.03-64.99,30.52-85.67   C273.55,552.02,266.65,543.37,264.86,541.13z"></path>
	<linearGradient id="SVGID_45_" gradientUnits="userSpaceOnUse" x1="247.7704" y1="516.9099" x2="168.1129" y2="650.1076">
		<stop offset="0" style="stop-color:#F4F4F4"></stop>
		<stop offset="1" style="stop-color:#7366FF"></stop>
	</linearGradient>
	<path class="st42" d="M234.33,626.8c-33.36,26.64-73.79,31.47-90.3,10.79s-2.84-59.03,30.52-85.67   c33.36-26.64,73.79-31.47,90.3-10.79C281.36,561.8,267.7,600.16,234.33,626.8z"></path>
	<linearGradient id="SVGID_46_" gradientUnits="userSpaceOnUse" x1="204.4434" y1="463.7899" x2="204.4434" y2="661.608">
		<stop offset="0" style="stop-color:#F4F4F4"></stop>
		<stop offset="1" style="stop-color:#7366FF"></stop>
	</linearGradient>
	<path class="st43" d="M228.03,618.9c-27.34,21.83-60.07,26.3-73.09,9.99c-13.03-16.31-1.42-47.24,25.92-69.07   c27.34-21.83,60.07-26.3,73.09-9.99C266.98,566.14,255.37,597.07,228.03,618.9z"></path>
</g>
<g>
	<linearGradient id="SVGID_47_" gradientUnits="userSpaceOnUse" x1="782.8261" y1="324.3387" x2="819.6445" y2="374.7448">
		<stop offset="0" style="stop-color:#F4F4F4"></stop>
		<stop offset="1" style="stop-color:#7366FF"></stop>
	</linearGradient>
	<path class="st44" d="M778.07,318.8c11.9-11.32,36.19-4.81,54.26,14.55c18.07,19.36,23.08,44.23,11.18,55.56   c-1.29,1.23-6.27,5.97-7.56,7.19c-11.9,11.32-36.19,4.81-54.26-14.55c-18.07-19.36-23.08-44.23-11.18-55.56   C771.8,324.76,776.78,320.02,778.07,318.8z"></path>
	
		<linearGradient id="SVGID_48_" gradientUnits="userSpaceOnUse" x1="2263.8865" y1="160.2081" x2="2214.3477" y2="243.0436" gradientTransform="matrix(-0.9726 -0.1569 -0.1186 0.9695 3011.6694 505.0676)">
		<stop offset="0" style="stop-color:#F4F4F4"></stop>
		<stop offset="1" style="stop-color:#7366FF"></stop>
	</linearGradient>
	<path class="st45" d="M790.9,372.77c18.07,19.36,41.99,26.23,53.43,15.34c11.44-10.89,6.06-35.41-12.01-54.77   c-18.07-19.36-41.99-26.23-53.43-15.34C767.46,328.89,772.83,353.41,790.9,372.77z"></path>
	<linearGradient id="SVGID_49_" gradientUnits="userSpaceOnUse" x1="769.5513" y1="321.0373" x2="842.3662" y2="376.4706">
		<stop offset="0" style="stop-color:#F4F4F4"></stop>
		<stop offset="1" style="stop-color:#7366FF"></stop>
	</linearGradient>
	<path class="st46" d="M795.27,368.62c14.81,15.87,34.13,21.77,43.16,13.18c9.03-8.59,4.34-28.42-10.47-44.28   c-14.81-15.87-34.13-21.77-43.16-13.18C775.78,332.92,780.46,352.75,795.27,368.62z"></path>
</g>
<linearGradient id="SVGID_50_" gradientUnits="userSpaceOnUse" x1="137.2899" y1="510.8135" x2="69.1878" y2="407.5737">
	<stop offset="0" style="stop-color:#F4F4F4"></stop>
	<stop offset="1" style="stop-color:#7366FF"></stop>
</linearGradient>
<path class="st47" d="M147.61,477.74c11.53-16.19-0.3-44.39-26.43-63c-26.12-18.6-56.65-20.56-68.18-4.37  c-1.25,1.76-6.07,8.53-7.32,10.29c-11.53,16.19,0.3,44.39,26.43,63c26.12,18.6,56.65,20.56,68.18,4.37  C141.54,486.27,146.36,479.49,147.61,477.74z"></path>
<linearGradient id="SVGID_51_" gradientUnits="userSpaceOnUse" x1="149.5844" y1="490.9655" x2="50.9347" y2="397.0545">
	<stop offset="0" style="stop-color:#F4F4F4"></stop>
	<stop offset="1" style="stop-color:#7366FF"></stop>
</linearGradient>
<path class="st48" d="M79.43,473.37c-26.12-18.6-37.96-46.81-26.43-63c11.53-16.19,42.05-14.23,68.18,4.37s37.96,46.81,26.43,63  C136.08,493.93,105.56,491.97,79.43,473.37z"></path>
<linearGradient id="SVGID_52_" gradientUnits="userSpaceOnUse" x1="145.4812" y1="486.3304" x2="72.8795" y2="418.3877">
	<stop offset="0" style="stop-color:#F4F4F4"></stop>
	<stop offset="1" style="stop-color:#7366FF"></stop>
</linearGradient>
<path class="st49" d="M83.84,467.18c-21.41-15.24-31.39-37.96-22.3-50.73s33.83-10.77,55.23,4.47s31.39,37.96,22.3,50.73  S105.25,482.43,83.84,467.18z"></path>
<g>
	<linearGradient id="SVGID_53_" gradientUnits="userSpaceOnUse" x1="427.5507" y1="463.6196" x2="868.5003" y2="574.6279">
		<stop offset="0" style="stop-color:#F4F4F4"></stop>
		<stop offset="1" style="stop-color:#7366FF"></stop>
	</linearGradient>
	<path class="st50" d="M834.09,392.34v149.2c0,6.45-3.89,12.25-9.86,14.7L564.86,662.51l-9.22,3.78l-11.04,4.52   c-4.66,1.91-9.77-1.52-9.77-6.55V515.05c0-6.44,3.89-12.25,9.86-14.69l279.63-114.58C828.98,383.87,834.09,387.3,834.09,392.34z"></path>
	<linearGradient id="SVGID_54_" gradientUnits="userSpaceOnUse" x1="541.9775" y1="475.1555" x2="779.4864" y2="566.2248">
		<stop offset="0" style="stop-color:#F4F4F4"></stop>
		<stop offset="1" style="stop-color:#7366FF"></stop>
	</linearGradient>
	<path class="st51" d="M834.09,408.58v132.96c0,6.45-3.89,12.25-9.86,14.7L564.86,662.51V529.55c0-6.44,3.89-12.25,9.85-14.69   L834.09,408.58z"></path>
	<path class="st29" d="M834.09,392.34v149.21c0,6.44-3.89,12.25-9.86,14.69L544.6,670.81c-4.66,1.91-9.77-1.52-9.77-6.56V515.05   c0-6.44,3.89-12.25,9.86-14.69l279.63-114.58C828.98,383.87,834.09,387.3,834.09,392.34z"></path>
	<g>
		<polyline class="st29" points="657.62,496.87 657.62,489.85 548.35,534.62 548.35,527.72   "></polyline>
		<polyline class="st29" points="820.57,457.94 820.57,450.92 548.36,562.46 548.36,555.56   "></polyline>
		<polyline class="st29" points="820.57,485.78 820.57,478.76 548.36,590.3 548.36,583.4   "></polyline>
		<polyline class="st29" points="820.57,513.63 820.57,506.6 548.36,618.14 548.36,611.24   "></polyline>
		<polyline class="st29" points="820.57,541.47 820.57,534.45 548.36,645.98 548.36,639.09   "></polyline>
	</g>
	<g>
		<circle class="st36" cx="796.83" cy="423.51" r="3"></circle>
		<circle class="st36" cx="807.2" cy="419.26" r="3"></circle>
		<circle class="st36" cx="817.57" cy="415.01" r="3"></circle>
	</g>
</g>
<g>
	<linearGradient id="SVGID_55_" gradientUnits="userSpaceOnUse" x1="349.1789" y1="223.1136" x2="581.4231" y2="223.1136">
		<stop offset="0" style="stop-color:#CAC6F8"></stop>
		<stop offset="0.6335" style="stop-color:#7366FF"></stop>
		<stop offset="1" style="stop-color:#CAC6F8"></stop>
	</linearGradient>
	<ellipse class="st52" cx="465.3" cy="223.11" rx="114.12" ry="24.2"></ellipse>
	<polyline class="st29" points="418.5,216.02 405.04,202.56 418.5,189.1  "></polyline>
</g>
<linearGradient id="SVGID_56_" gradientUnits="userSpaceOnUse" x1="365.5076" y1="315.6407" x2="703.672" y2="380.9832">
	<stop offset="0" style="stop-color:#F4F4F4"></stop>
	<stop offset="1" style="stop-color:#7366FF"></stop>
</linearGradient>
<path class="st53" d="M727.45,342.79c0,38.26-99.33,69.89-228.37,75.02v-37.85c105.67-4.21,191.41-26.18,219.01-55  c0.19-0.19,3.2-3.18,5.66-7.35c2.1-3.55,3.7-8.39,3.7-8.39S727.45,336.26,727.45,342.79z"></path>
<circle class="st36" cx="255.25" cy="367.13" r="8.21"></circle>
<g>
	<defs>
		<path id="SVGID_57_" d="M572.02,114.72v101.24c0,3.61-3.66,6.07-7.01,4.7l-78.33-32.1l-13.99-5.73l-78.23-32.06    c-4.3-1.76-7.11-5.95-7.11-10.6V38.94c0-3.61,3.66-6.07,7.01-4.7l78.33,32.1l13.99,5.73l78.23,32.06    C569.21,105.88,572.02,110.07,572.02,114.72z"></path>
	</defs>
	<clipPath id="SVGID_58_">
		<use xlink:href="#SVGID_57_" style="overflow:visible;"></use>
	</clipPath>
	<defs>
		<filter id="Adobe_OpacityMaskFilter_3_" filterUnits="userSpaceOnUse" x="366.73" y="20.08" width="282.82" height="222.12">
			<feColorMatrix type="matrix" values="1 0 0 0 0  0 1 0 0 0  0 0 1 0 0  0 0 0 1 0"></feColorMatrix>
		</filter>
	</defs>
	<mask maskUnits="userSpaceOnUse" x="366.73" y="20.08" width="282.82" height="222.12" id="SVGID_59_">
		<g class="st54">
			
				<linearGradient id="SVGID_60_" gradientUnits="userSpaceOnUse" x1="-266.7761" y1="-4297.8208" x2="-264.6491" y2="-4297.8208" gradientTransform="matrix(-132.9629 -3.346035e-04 3.346035e-04 -132.9629 -34820.332 -571319.5)">
				<stop offset="0" style="stop-color:#000000"></stop>
				<stop offset="0.109" style="stop-color:#040404"></stop>
				<stop offset="0.2221" style="stop-color:#111111"></stop>
				<stop offset="0.337" style="stop-color:#252525"></stop>
				<stop offset="0.4533" style="stop-color:#434343"></stop>
				<stop offset="0.5705" style="stop-color:#686868"></stop>
				<stop offset="0.6887" style="stop-color:#969696"></stop>
				<stop offset="0.8053" style="stop-color:#CBCBCB"></stop>
				<stop offset="0.905" style="stop-color:#FFFFFF"></stop>
				<stop offset="1" style="stop-color:#FFFFFF"></stop>
			</linearGradient>
			<rect x="366.73" y="20.08" class="st55" width="282.82" height="222.12"></rect>
		</g>
	</mask>
	
		<linearGradient id="SVGID_61_" gradientUnits="userSpaceOnUse" x1="674.6451" y1="37.9907" x2="388.6796" y2="185.0074" gradientTransform="matrix(1 0 0 1 -2.2502 8.7037)">
		<stop offset="0" style="stop-color:#7366FF"></stop>
		<stop offset="0.9061" style="stop-color:#C2BDF8"></stop>
	</linearGradient>
	<rect x="366.73" y="20.08" class="st56" width="282.82" height="222.12"></rect>
</g>
<linearGradient id="SVGID_62_" gradientUnits="userSpaceOnUse" x1="364.7412" y1="121.555" x2="513.1553" y2="138.9313">
	<stop offset="0" style="stop-color:#F4F4F4"></stop>
	<stop offset="1" style="stop-color:#7366FF"></stop>
</linearGradient>
<path class="st57" d="M557.64,120.6v101.24c0,3.61-3.66,6.07-7.01,4.7l-78.33-32.1l-13.99-5.73l-78.23-32.06  c-4.3-1.76-7.11-5.95-7.11-10.6V44.82c0-3.61,3.66-6.07,7.01-4.7l78.33,32.1l13.99,5.73L550.53,110  C554.83,111.76,557.64,115.95,557.64,120.6z"></path>
<linearGradient id="SVGID_63_" gradientUnits="userSpaceOnUse" x1="379.766" y1="67.1219" x2="543.0818" y2="193.5326">
	<stop offset="0" style="stop-color:#F4F4F4"></stop>
	<stop offset="1" style="stop-color:#7366FF"></stop>
</linearGradient>
<polygon class="st58" points="557.64,163.85 472.3,128.89 472.3,77.94 458.3,72.22 458.3,123.15 372.96,88.19 372.96,102.81   458.3,137.77 458.3,188.71 472.3,194.44 472.3,143.51 557.64,178.48 "></polygon>
<g>
	<linearGradient id="SVGID_64_" gradientUnits="userSpaceOnUse" x1="501.4141" y1="164.8745" x2="519.9591" y2="203.4287">
		<stop offset="0" style="stop-color:#F4F4F4"></stop>
		<stop offset="1" style="stop-color:#7366FF"></stop>
	</linearGradient>
	<polygon class="st59" points="514.16,173.39 514.16,202.64 510.14,201 510.14,171.75  "></polygon>
	<linearGradient id="SVGID_65_" gradientUnits="userSpaceOnUse" x1="501.4135" y1="164.8747" x2="519.9586" y2="203.429">
		<stop offset="0" style="stop-color:#F4F4F4"></stop>
		<stop offset="1" style="stop-color:#7366FF"></stop>
	</linearGradient>
	<polygon class="st60" points="526.24,190.87 526.24,195.07 498.06,183.52 498.06,179.32  "></polygon>
</g>
<g>
	<linearGradient id="SVGID_66_" gradientUnits="userSpaceOnUse" x1="494.6337" y1="87.5614" x2="521.27" y2="135.2263">
		<stop offset="0" style="stop-color:#F4F4F4"></stop>
		<stop offset="1" style="stop-color:#7366FF"></stop>
	</linearGradient>
	<polygon class="st61" points="514.16,105.1 514.16,134.35 510.14,132.71 510.14,103.46  "></polygon>
	<linearGradient id="SVGID_67_" gradientUnits="userSpaceOnUse" x1="494.6331" y1="87.5617" x2="521.2693" y2="135.2266">
		<stop offset="0" style="stop-color:#F4F4F4"></stop>
		<stop offset="1" style="stop-color:#7366FF"></stop>
	</linearGradient>
	<polygon class="st62" points="526.24,122.58 526.24,126.78 498.06,115.24 498.06,111.04  "></polygon>
</g>
<g>
	<linearGradient id="SVGID_68_" gradientUnits="userSpaceOnUse" x1="387.7079" y1="112.1788" x2="429.1644" y2="176.4664">
		<stop offset="0" style="stop-color:#F4F4F4"></stop>
		<stop offset="1" style="stop-color:#7366FF"></stop>
	</linearGradient>
	<polygon class="st63" points="410.78,131.04 410.78,160.29 406.76,158.64 406.76,129.39  "></polygon>
	<linearGradient id="SVGID_69_" gradientUnits="userSpaceOnUse" x1="387.7074" y1="112.1792" x2="429.1639" y2="176.4667">
		<stop offset="0" style="stop-color:#F4F4F4"></stop>
		<stop offset="1" style="stop-color:#7366FF"></stop>
	</linearGradient>
	<polygon class="st64" points="422.86,148.51 422.86,152.71 394.68,141.17 394.68,136.97  "></polygon>
</g>
<g>
	<linearGradient id="SVGID_70_" gradientUnits="userSpaceOnUse" x1="391.1118" y1="92.8071" x2="423.0415" y2="63.1582">
		<stop offset="0" style="stop-color:#F4F4F4"></stop>
		<stop offset="1" style="stop-color:#7366FF"></stop>
	</linearGradient>
	<polygon class="st65" points="410.78,62.61 410.78,91.86 406.76,90.21 406.76,60.96  "></polygon>
	<linearGradient id="SVGID_71_" gradientUnits="userSpaceOnUse" x1="391.1115" y1="92.8068" x2="423.0411" y2="63.1578">
		<stop offset="0" style="stop-color:#F4F4F4"></stop>
		<stop offset="1" style="stop-color:#7366FF"></stop>
	</linearGradient>
	<polygon class="st66" points="422.86,80.08 422.86,84.28 394.68,72.74 394.68,68.54  "></polygon>
</g>
<path class="st29" d="M557.64,120.6v101.24c0,3.61-3.66,6.07-7.01,4.7l-78.33-32.1l-13.99-5.73l-78.23-32.06  c-4.3-1.76-7.11-5.95-7.11-10.6V44.82c0-3.61,3.66-6.07,7.01-4.7l78.33,32.1l13.99,5.73L550.53,110  C554.83,111.76,557.64,115.95,557.64,120.6z"></path>
<polyline class="st29" points="428.44,503.42 445.43,520.41 428.44,537.41 "></polyline>
<g>
	<defs>
		<path id="SVGID_72_" d="M137.03,258.27v54.85c0,2.02-1.22,3.85-3.1,4.61l-3.78,1.55l-10.98,4.5l-6.02,2.47l-10.98,4.5l-6.02,2.47    l-10.98,4.5l-6.02,2.47l-10.98,4.5l-2.5,1.02l-3.53,1.44l-7.46,3.06l-3.53,1.44l-1.94,0.79c-2.36,0.97-4.94-0.77-4.94-3.31v-54.94    c0-2.02,1.22-3.85,3.1-4.61l84.73-34.64C134.45,254,137.03,255.73,137.03,258.27z"></path>
	</defs>
	<clipPath id="SVGID_73_">
		<use xlink:href="#SVGID_72_" style="overflow:visible;"></use>
	</clipPath>
	<defs>
		<filter id="Adobe_OpacityMaskFilter_4_" filterUnits="userSpaceOnUse" x="41.91" y="221.31" width="112.88" height="134.61">
			<feColorMatrix type="matrix" values="1 0 0 0 0  0 1 0 0 0  0 0 1 0 0  0 0 0 1 0"></feColorMatrix>
		</filter>
	</defs>
	<mask maskUnits="userSpaceOnUse" x="41.91" y="221.31" width="112.88" height="134.61" id="SVGID_74_">
		<g class="st67">
			
				<linearGradient id="SVGID_75_" gradientUnits="userSpaceOnUse" x1="-263.0381" y1="-4299.0703" x2="-262.1892" y2="-4299.0703" gradientTransform="matrix(-132.9629 -3.346035e-04 3.346035e-04 -132.9629 -34818.082 -571328.25)">
				<stop offset="0" style="stop-color:#000000"></stop>
				<stop offset="0.109" style="stop-color:#040404"></stop>
				<stop offset="0.2221" style="stop-color:#111111"></stop>
				<stop offset="0.337" style="stop-color:#252525"></stop>
				<stop offset="0.4533" style="stop-color:#434343"></stop>
				<stop offset="0.5705" style="stop-color:#686868"></stop>
				<stop offset="0.6887" style="stop-color:#969696"></stop>
				<stop offset="0.8053" style="stop-color:#CBCBCB"></stop>
				<stop offset="0.905" style="stop-color:#FFFFFF"></stop>
				<stop offset="1" style="stop-color:#FFFFFF"></stop>
			</linearGradient>
			<rect x="41.91" y="221.31" class="st68" width="112.88" height="134.61"></rect>
		</g>
	</mask>
	
		<linearGradient id="SVGID_76_" gradientUnits="userSpaceOnUse" x1="2551.3391" y1="10703.9561" x2="2406.1895" y2="10585.6865" gradientTransform="matrix(-1 0 0 -1 2592.4204 10945.9102)">
		<stop offset="0" style="stop-color:#7366FF"></stop>
		<stop offset="1" style="stop-color:#F4F4F4"></stop>
	</linearGradient>
	<rect x="41.91" y="221.31" class="st69" width="112.88" height="134.61"></rect>
</g>
<g>
	<defs>
		<path id="SVGID_77_" d="M854.93,423.03v75.84c0,3.28-1.98,6.23-5.01,7.47l-131.84,54.02l-4.69,1.92l-5.61,2.3    c-2.37,0.97-4.97-0.77-4.97-3.33v-75.84c0-3.27,1.98-6.23,5.01-7.47l142.14-58.24C852.33,418.73,854.93,420.47,854.93,423.03z"></path>
	</defs>
	<clipPath id="SVGID_78_">
		<use xlink:href="#SVGID_77_" style="overflow:visible;"></use>
	</clipPath>
	<defs>
		<filter id="Adobe_OpacityMaskFilter_5_" filterUnits="userSpaceOnUse" x="699.56" y="414.93" width="158.25" height="156.43">
			<feColorMatrix type="matrix" values="1 0 0 0 0  0 1 0 0 0  0 0 1 0 0  0 0 0 1 0"></feColorMatrix>
		</filter>
	</defs>
	<mask maskUnits="userSpaceOnUse" x="699.56" y="414.93" width="158.25" height="156.43" id="SVGID_79_">
		<g class="st70">
			
				<linearGradient id="SVGID_80_" gradientUnits="userSpaceOnUse" x1="-268.3255" y1="-4300.6084" x2="-267.1353" y2="-4300.6084" gradientTransform="matrix(-132.9629 -3.346035e-04 3.346035e-04 -132.9629 -34818.082 -571328.25)">
				<stop offset="0" style="stop-color:#000000"></stop>
				<stop offset="0.109" style="stop-color:#040404"></stop>
				<stop offset="0.2221" style="stop-color:#111111"></stop>
				<stop offset="0.337" style="stop-color:#252525"></stop>
				<stop offset="0.4533" style="stop-color:#434343"></stop>
				<stop offset="0.5705" style="stop-color:#686868"></stop>
				<stop offset="0.6887" style="stop-color:#969696"></stop>
				<stop offset="0.8053" style="stop-color:#CBCBCB"></stop>
				<stop offset="0.905" style="stop-color:#FFFFFF"></stop>
				<stop offset="1" style="stop-color:#FFFFFF"></stop>
			</linearGradient>
			<rect x="699.56" y="414.93" class="st71" width="158.25" height="156.43"></rect>
		</g>
	</mask>
	<linearGradient id="SVGID_81_" gradientUnits="userSpaceOnUse" x1="877.4228" y1="442.3781" x2="705.5113" y2="530.759">
		<stop offset="0" style="stop-color:#7366FF"></stop>
		<stop offset="0.9061" style="stop-color:#C2BDF8"></stop>
	</linearGradient>
	<rect x="699.56" y="414.93" class="st72" width="158.25" height="156.43"></rect>
</g>
</svg>
