<?xml version="1.0" encoding="utf-8"?>
<!-- Generator: Adobe Illustrator 25.2.1, SVG Export Plug-In . SVG Version: 6.00 Build 0)  -->
<svg version="1.1" id="Layer_1" xmlns="http://www.w3.org/2000/svg" xmlns:xlink="http://www.w3.org/1999/xlink" x="0px" y="0px"
	 viewBox="0 0 518.64 354.38" style="enable-background:new 0 0 518.64 354.38;" xml:space="preserve">
<style type="text/css">
	.st0{fill:#1B1B1B;}
</style>
<g>
	<path class="st0" d="M411.45,99.19l-168.75,201.1c-3.99,4.75-0.61,11.99,5.59,11.99H321l168.76-201.1
		c3.99-4.75,0.61-11.99-5.59-11.99H411.45z"/>
	<path class="st0" d="M413.92,31.49H341.2l-178.8,213.1H89.66c-6.2,0-9.58-7.24-5.59-11.99l101.89-121.41
		c3.99-4.75,0.61-11.99-5.59-11.99h-72.72l-77.88,92.82c-3.47,4.13-3.47,10.16,0,14.29l85.61,102.01c2.11,2.52,5.23,3.97,8.52,3.97
		h70.09l225.54-268.8C423.5,38.74,420.12,31.49,413.92,31.49z"/>
</g>
</svg>
